<mxfile host="app.diagrams.net" agent="Mozilla/5.0 (Windows NT 10.0; Win64; x64) AppleWebKit/537.36 (KHTML, like Gecko) Chrome/130.0.0.0 Safari/537.36" version="24.8.3">
  <diagram id="C5RBs43oDa-KdzZeNtuy" name="Page-1">
    <mxGraphModel dx="3217" dy="3598" grid="1" gridSize="10" guides="1" tooltips="1" connect="1" arrows="1" fold="1" page="1" pageScale="1" pageWidth="827" pageHeight="1169" math="0" shadow="0">
      <root>
        <mxCell id="WIyWlLk6GJQsqaUBKTNV-0" />
        <mxCell id="WIyWlLk6GJQsqaUBKTNV-1" parent="WIyWlLk6GJQsqaUBKTNV-0" />
        <mxCell id="WIyWlLk6GJQsqaUBKTNV-2" value="" style="rounded=0;html=1;jettySize=auto;orthogonalLoop=1;fontSize=11;endArrow=block;endFill=0;endSize=8;strokeWidth=1;shadow=0;labelBackgroundColor=none;edgeStyle=orthogonalEdgeStyle;" parent="WIyWlLk6GJQsqaUBKTNV-1" source="WIyWlLk6GJQsqaUBKTNV-3" target="WIyWlLk6GJQsqaUBKTNV-6" edge="1">
          <mxGeometry relative="1" as="geometry" />
        </mxCell>
        <mxCell id="WDdC_8Nd04Wn6b3jCk4Q-1" value="" style="edgeStyle=orthogonalEdgeStyle;rounded=0;orthogonalLoop=1;jettySize=auto;html=1;" edge="1" parent="WIyWlLk6GJQsqaUBKTNV-1" source="WIyWlLk6GJQsqaUBKTNV-3" target="WIyWlLk6GJQsqaUBKTNV-6">
          <mxGeometry relative="1" as="geometry" />
        </mxCell>
        <mxCell id="WIyWlLk6GJQsqaUBKTNV-3" value="" style="rounded=1;whiteSpace=wrap;html=1;fontSize=12;glass=0;strokeWidth=1;shadow=0;" parent="WIyWlLk6GJQsqaUBKTNV-1" vertex="1">
          <mxGeometry x="160" y="80" width="120" height="40" as="geometry" />
        </mxCell>
        <mxCell id="WIyWlLk6GJQsqaUBKTNV-4" value="Yes" style="rounded=0;html=1;jettySize=auto;orthogonalLoop=1;fontSize=11;endArrow=block;endFill=0;endSize=8;strokeWidth=1;shadow=0;labelBackgroundColor=none;edgeStyle=orthogonalEdgeStyle;" parent="WIyWlLk6GJQsqaUBKTNV-1" source="WIyWlLk6GJQsqaUBKTNV-6" target="WIyWlLk6GJQsqaUBKTNV-10" edge="1">
          <mxGeometry y="20" relative="1" as="geometry">
            <mxPoint as="offset" />
          </mxGeometry>
        </mxCell>
        <mxCell id="WIyWlLk6GJQsqaUBKTNV-5" value="No" style="edgeStyle=orthogonalEdgeStyle;rounded=0;html=1;jettySize=auto;orthogonalLoop=1;fontSize=11;endArrow=block;endFill=0;endSize=8;strokeWidth=1;shadow=0;labelBackgroundColor=none;" parent="WIyWlLk6GJQsqaUBKTNV-1" source="WIyWlLk6GJQsqaUBKTNV-6" target="WIyWlLk6GJQsqaUBKTNV-7" edge="1">
          <mxGeometry y="10" relative="1" as="geometry">
            <mxPoint as="offset" />
          </mxGeometry>
        </mxCell>
        <mxCell id="WIyWlLk6GJQsqaUBKTNV-6" value="Lamp&lt;br&gt;plugged in?" style="rhombus;whiteSpace=wrap;html=1;shadow=0;fontFamily=Helvetica;fontSize=12;align=center;strokeWidth=1;spacing=6;spacingTop=-4;" parent="WIyWlLk6GJQsqaUBKTNV-1" vertex="1">
          <mxGeometry x="170" y="170" width="100" height="80" as="geometry" />
        </mxCell>
        <mxCell id="WIyWlLk6GJQsqaUBKTNV-7" value="Plug in lamp" style="rounded=1;whiteSpace=wrap;html=1;fontSize=12;glass=0;strokeWidth=1;shadow=0;" parent="WIyWlLk6GJQsqaUBKTNV-1" vertex="1">
          <mxGeometry x="320" y="190" width="120" height="40" as="geometry" />
        </mxCell>
        <mxCell id="WIyWlLk6GJQsqaUBKTNV-8" value="No" style="rounded=0;html=1;jettySize=auto;orthogonalLoop=1;fontSize=11;endArrow=block;endFill=0;endSize=8;strokeWidth=1;shadow=0;labelBackgroundColor=none;edgeStyle=orthogonalEdgeStyle;" parent="WIyWlLk6GJQsqaUBKTNV-1" source="WIyWlLk6GJQsqaUBKTNV-10" target="WIyWlLk6GJQsqaUBKTNV-11" edge="1">
          <mxGeometry x="0.3333" y="20" relative="1" as="geometry">
            <mxPoint as="offset" />
          </mxGeometry>
        </mxCell>
        <mxCell id="WIyWlLk6GJQsqaUBKTNV-9" value="Yes" style="edgeStyle=orthogonalEdgeStyle;rounded=0;html=1;jettySize=auto;orthogonalLoop=1;fontSize=11;endArrow=block;endFill=0;endSize=8;strokeWidth=1;shadow=0;labelBackgroundColor=none;" parent="WIyWlLk6GJQsqaUBKTNV-1" source="WIyWlLk6GJQsqaUBKTNV-10" target="WIyWlLk6GJQsqaUBKTNV-12" edge="1">
          <mxGeometry y="10" relative="1" as="geometry">
            <mxPoint as="offset" />
          </mxGeometry>
        </mxCell>
        <mxCell id="WIyWlLk6GJQsqaUBKTNV-10" value="Bulb&lt;br&gt;burned out?" style="rhombus;whiteSpace=wrap;html=1;shadow=0;fontFamily=Helvetica;fontSize=12;align=center;strokeWidth=1;spacing=6;spacingTop=-4;" parent="WIyWlLk6GJQsqaUBKTNV-1" vertex="1">
          <mxGeometry x="170" y="290" width="100" height="80" as="geometry" />
        </mxCell>
        <mxCell id="WIyWlLk6GJQsqaUBKTNV-11" value="Repair Lamp" style="rounded=1;whiteSpace=wrap;html=1;fontSize=12;glass=0;strokeWidth=1;shadow=0;" parent="WIyWlLk6GJQsqaUBKTNV-1" vertex="1">
          <mxGeometry x="160" y="430" width="120" height="40" as="geometry" />
        </mxCell>
        <mxCell id="WIyWlLk6GJQsqaUBKTNV-12" value="Replace Bulb" style="rounded=1;whiteSpace=wrap;html=1;fontSize=12;glass=0;strokeWidth=1;shadow=0;" parent="WIyWlLk6GJQsqaUBKTNV-1" vertex="1">
          <mxGeometry x="320" y="310" width="120" height="40" as="geometry" />
        </mxCell>
        <mxCell id="WDdC_8Nd04Wn6b3jCk4Q-2" value="" style="swimlane;startSize=0;" vertex="1" parent="WIyWlLk6GJQsqaUBKTNV-1">
          <mxGeometry x="60" y="-1090" width="720" height="720" as="geometry" />
        </mxCell>
        <mxCell id="WDdC_8Nd04Wn6b3jCk4Q-7" value="Add New Fund Request" style="rounded=1;whiteSpace=wrap;html=1;" vertex="1" parent="WDdC_8Nd04Wn6b3jCk4Q-2">
          <mxGeometry x="390" y="30" width="150" height="50" as="geometry" />
        </mxCell>
        <mxCell id="WDdC_8Nd04Wn6b3jCk4Q-9" value="" style="rounded=0;whiteSpace=wrap;html=1;" vertex="1" parent="WDdC_8Nd04Wn6b3jCk4Q-2">
          <mxGeometry x="40" y="145" width="655" height="240" as="geometry" />
        </mxCell>
        <mxCell id="WDdC_8Nd04Wn6b3jCk4Q-10" value="Fund Waiting To Approve" style="rounded=0;whiteSpace=wrap;html=1;fillColor=#d5e8d4;strokeColor=#82b366;" vertex="1" parent="WDdC_8Nd04Wn6b3jCk4Q-2">
          <mxGeometry x="40" y="145" width="655" height="40" as="geometry" />
        </mxCell>
        <mxCell id="WDdC_8Nd04Wn6b3jCk4Q-11" value="" style="rounded=0;whiteSpace=wrap;html=1;" vertex="1" parent="WDdC_8Nd04Wn6b3jCk4Q-2">
          <mxGeometry x="40" y="185" width="655" height="40" as="geometry" />
        </mxCell>
        <mxCell id="WDdC_8Nd04Wn6b3jCk4Q-12" value="ID" style="rounded=0;whiteSpace=wrap;html=1;" vertex="1" parent="WDdC_8Nd04Wn6b3jCk4Q-2">
          <mxGeometry x="40" y="185" width="45" height="40" as="geometry" />
        </mxCell>
        <mxCell id="WDdC_8Nd04Wn6b3jCk4Q-13" value="Fund Port Code" style="rounded=0;whiteSpace=wrap;html=1;" vertex="1" parent="WDdC_8Nd04Wn6b3jCk4Q-2">
          <mxGeometry x="85" y="185" width="100" height="40" as="geometry" />
        </mxCell>
        <mxCell id="WDdC_8Nd04Wn6b3jCk4Q-14" value="Description" style="rounded=0;whiteSpace=wrap;html=1;" vertex="1" parent="WDdC_8Nd04Wn6b3jCk4Q-2">
          <mxGeometry x="185" y="185" width="180" height="40" as="geometry" />
        </mxCell>
        <mxCell id="WDdC_8Nd04Wn6b3jCk4Q-15" value="Request By" style="rounded=0;whiteSpace=wrap;html=1;" vertex="1" parent="WDdC_8Nd04Wn6b3jCk4Q-2">
          <mxGeometry x="365" y="185" width="80" height="40" as="geometry" />
        </mxCell>
        <mxCell id="WDdC_8Nd04Wn6b3jCk4Q-16" value="Request To" style="rounded=0;whiteSpace=wrap;html=1;" vertex="1" parent="WDdC_8Nd04Wn6b3jCk4Q-2">
          <mxGeometry x="445" y="185" width="80" height="40" as="geometry" />
        </mxCell>
        <mxCell id="WDdC_8Nd04Wn6b3jCk4Q-17" value="Status" style="rounded=0;whiteSpace=wrap;html=1;" vertex="1" parent="WDdC_8Nd04Wn6b3jCk4Q-2">
          <mxGeometry x="525" y="185" width="50" height="40" as="geometry" />
        </mxCell>
        <mxCell id="WDdC_8Nd04Wn6b3jCk4Q-29" value="Check Information" style="rounded=0;whiteSpace=wrap;html=1;" vertex="1" parent="WDdC_8Nd04Wn6b3jCk4Q-2">
          <mxGeometry x="575" y="185" width="120" height="40" as="geometry" />
        </mxCell>
        <mxCell id="WDdC_8Nd04Wn6b3jCk4Q-30" value="" style="rounded=0;whiteSpace=wrap;html=1;" vertex="1" parent="WDdC_8Nd04Wn6b3jCk4Q-2">
          <mxGeometry x="40" y="225" width="655" height="40" as="geometry" />
        </mxCell>
        <mxCell id="WDdC_8Nd04Wn6b3jCk4Q-31" value="1" style="rounded=0;whiteSpace=wrap;html=1;" vertex="1" parent="WDdC_8Nd04Wn6b3jCk4Q-2">
          <mxGeometry x="40" y="225" width="45" height="40" as="geometry" />
        </mxCell>
        <mxCell id="WDdC_8Nd04Wn6b3jCk4Q-32" value="KWI A" style="rounded=0;whiteSpace=wrap;html=1;" vertex="1" parent="WDdC_8Nd04Wn6b3jCk4Q-2">
          <mxGeometry x="85" y="225" width="100" height="40" as="geometry" />
        </mxCell>
        <mxCell id="WDdC_8Nd04Wn6b3jCk4Q-33" value="Request Add New Fund" style="rounded=0;whiteSpace=wrap;html=1;" vertex="1" parent="WDdC_8Nd04Wn6b3jCk4Q-2">
          <mxGeometry x="185" y="225" width="180" height="40" as="geometry" />
        </mxCell>
        <mxCell id="WDdC_8Nd04Wn6b3jCk4Q-35" value="P&#39;A" style="rounded=0;whiteSpace=wrap;html=1;" vertex="1" parent="WDdC_8Nd04Wn6b3jCk4Q-2">
          <mxGeometry x="365" y="225" width="80" height="40" as="geometry" />
        </mxCell>
        <mxCell id="WDdC_8Nd04Wn6b3jCk4Q-36" value="P&#39;B" style="rounded=0;whiteSpace=wrap;html=1;" vertex="1" parent="WDdC_8Nd04Wn6b3jCk4Q-2">
          <mxGeometry x="445" y="225" width="80" height="40" as="geometry" />
        </mxCell>
        <mxCell id="WDdC_8Nd04Wn6b3jCk4Q-55" value="Waiting" style="rounded=0;whiteSpace=wrap;html=1;fillColor=#fff2cc;strokeColor=#d6b656;" vertex="1" parent="WDdC_8Nd04Wn6b3jCk4Q-2">
          <mxGeometry x="525" y="225" width="50" height="40" as="geometry" />
        </mxCell>
        <mxCell id="WDdC_8Nd04Wn6b3jCk4Q-57" value="Check" style="rounded=1;whiteSpace=wrap;html=1;" vertex="1" parent="WDdC_8Nd04Wn6b3jCk4Q-2">
          <mxGeometry x="585" y="235" width="40" height="20" as="geometry" />
        </mxCell>
        <mxCell id="WDdC_8Nd04Wn6b3jCk4Q-58" value="Delete" style="rounded=1;whiteSpace=wrap;html=1;" vertex="1" parent="WDdC_8Nd04Wn6b3jCk4Q-2">
          <mxGeometry x="645" y="235" width="40" height="20" as="geometry" />
        </mxCell>
        <mxCell id="WDdC_8Nd04Wn6b3jCk4Q-59" value="" style="rounded=0;whiteSpace=wrap;html=1;" vertex="1" parent="WDdC_8Nd04Wn6b3jCk4Q-2">
          <mxGeometry x="40" y="265" width="655" height="40" as="geometry" />
        </mxCell>
        <mxCell id="WDdC_8Nd04Wn6b3jCk4Q-60" value="2" style="rounded=0;whiteSpace=wrap;html=1;" vertex="1" parent="WDdC_8Nd04Wn6b3jCk4Q-2">
          <mxGeometry x="40" y="265" width="45" height="40" as="geometry" />
        </mxCell>
        <mxCell id="WDdC_8Nd04Wn6b3jCk4Q-61" value="KWI B" style="rounded=0;whiteSpace=wrap;html=1;" vertex="1" parent="WDdC_8Nd04Wn6b3jCk4Q-2">
          <mxGeometry x="85" y="265" width="100" height="40" as="geometry" />
        </mxCell>
        <mxCell id="WDdC_8Nd04Wn6b3jCk4Q-62" value="Edit Port Type" style="rounded=0;whiteSpace=wrap;html=1;" vertex="1" parent="WDdC_8Nd04Wn6b3jCk4Q-2">
          <mxGeometry x="185" y="265" width="180" height="40" as="geometry" />
        </mxCell>
        <mxCell id="WDdC_8Nd04Wn6b3jCk4Q-63" value="P&#39;A" style="rounded=0;whiteSpace=wrap;html=1;" vertex="1" parent="WDdC_8Nd04Wn6b3jCk4Q-2">
          <mxGeometry x="365" y="265" width="80" height="40" as="geometry" />
        </mxCell>
        <mxCell id="WDdC_8Nd04Wn6b3jCk4Q-64" value="P&#39;B" style="rounded=0;whiteSpace=wrap;html=1;" vertex="1" parent="WDdC_8Nd04Wn6b3jCk4Q-2">
          <mxGeometry x="445" y="265" width="80" height="40" as="geometry" />
        </mxCell>
        <mxCell id="WDdC_8Nd04Wn6b3jCk4Q-65" value="Waiting" style="rounded=0;whiteSpace=wrap;html=1;fillColor=#fff2cc;strokeColor=#d6b656;" vertex="1" parent="WDdC_8Nd04Wn6b3jCk4Q-2">
          <mxGeometry x="525" y="265" width="50" height="40" as="geometry" />
        </mxCell>
        <mxCell id="WDdC_8Nd04Wn6b3jCk4Q-67" value="Check" style="rounded=1;whiteSpace=wrap;html=1;" vertex="1" parent="WDdC_8Nd04Wn6b3jCk4Q-2">
          <mxGeometry x="585" y="275" width="40" height="20" as="geometry" />
        </mxCell>
        <mxCell id="WDdC_8Nd04Wn6b3jCk4Q-68" value="Delete" style="rounded=1;whiteSpace=wrap;html=1;" vertex="1" parent="WDdC_8Nd04Wn6b3jCk4Q-2">
          <mxGeometry x="645" y="275" width="40" height="20" as="geometry" />
        </mxCell>
        <mxCell id="WDdC_8Nd04Wn6b3jCk4Q-69" value="3" style="rounded=0;whiteSpace=wrap;html=1;" vertex="1" parent="WDdC_8Nd04Wn6b3jCk4Q-2">
          <mxGeometry x="40" y="305" width="45" height="40" as="geometry" />
        </mxCell>
        <mxCell id="WDdC_8Nd04Wn6b3jCk4Q-70" value="KWI C" style="rounded=0;whiteSpace=wrap;html=1;" vertex="1" parent="WDdC_8Nd04Wn6b3jCk4Q-2">
          <mxGeometry x="85" y="305" width="100" height="40" as="geometry" />
        </mxCell>
        <mxCell id="WDdC_8Nd04Wn6b3jCk4Q-71" value="Please Check Edit Port Type" style="rounded=0;whiteSpace=wrap;html=1;" vertex="1" parent="WDdC_8Nd04Wn6b3jCk4Q-2">
          <mxGeometry x="185" y="305" width="180" height="40" as="geometry" />
        </mxCell>
        <mxCell id="WDdC_8Nd04Wn6b3jCk4Q-72" value="P&#39;A" style="rounded=0;whiteSpace=wrap;html=1;" vertex="1" parent="WDdC_8Nd04Wn6b3jCk4Q-2">
          <mxGeometry x="365" y="305" width="80" height="40" as="geometry" />
        </mxCell>
        <mxCell id="WDdC_8Nd04Wn6b3jCk4Q-73" value="P&#39;B" style="rounded=0;whiteSpace=wrap;html=1;" vertex="1" parent="WDdC_8Nd04Wn6b3jCk4Q-2">
          <mxGeometry x="445" y="305" width="80" height="40" as="geometry" />
        </mxCell>
        <mxCell id="WDdC_8Nd04Wn6b3jCk4Q-75" value="Not Approve" style="rounded=0;whiteSpace=wrap;html=1;fillColor=#f8cecc;strokeColor=#b85450;" vertex="1" parent="WDdC_8Nd04Wn6b3jCk4Q-2">
          <mxGeometry x="525" y="305" width="50" height="40" as="geometry" />
        </mxCell>
        <mxCell id="WDdC_8Nd04Wn6b3jCk4Q-77" value="" style="rounded=0;whiteSpace=wrap;html=1;" vertex="1" parent="WDdC_8Nd04Wn6b3jCk4Q-2">
          <mxGeometry x="575" y="305" width="120" height="40" as="geometry" />
        </mxCell>
        <mxCell id="WDdC_8Nd04Wn6b3jCk4Q-78" value="Check" style="rounded=1;whiteSpace=wrap;html=1;" vertex="1" parent="WDdC_8Nd04Wn6b3jCk4Q-2">
          <mxGeometry x="585" y="315" width="40" height="20" as="geometry" />
        </mxCell>
        <mxCell id="WDdC_8Nd04Wn6b3jCk4Q-79" value="Delete" style="rounded=1;whiteSpace=wrap;html=1;" vertex="1" parent="WDdC_8Nd04Wn6b3jCk4Q-2">
          <mxGeometry x="645" y="315" width="40" height="20" as="geometry" />
        </mxCell>
        <mxCell id="WDdC_8Nd04Wn6b3jCk4Q-80" value="Fund Approve Log" style="rounded=0;whiteSpace=wrap;html=1;fillColor=#d5e8d4;strokeColor=#82b366;" vertex="1" parent="WDdC_8Nd04Wn6b3jCk4Q-2">
          <mxGeometry x="40" y="455" width="655" height="40" as="geometry" />
        </mxCell>
        <mxCell id="WDdC_8Nd04Wn6b3jCk4Q-81" value="4" style="rounded=0;whiteSpace=wrap;html=1;" vertex="1" parent="WDdC_8Nd04Wn6b3jCk4Q-2">
          <mxGeometry x="40" y="345" width="45" height="40" as="geometry" />
        </mxCell>
        <mxCell id="WDdC_8Nd04Wn6b3jCk4Q-82" value="KWI C" style="rounded=0;whiteSpace=wrap;html=1;" vertex="1" parent="WDdC_8Nd04Wn6b3jCk4Q-2">
          <mxGeometry x="85" y="345" width="100" height="40" as="geometry" />
        </mxCell>
        <mxCell id="WDdC_8Nd04Wn6b3jCk4Q-83" value="Chang Frontend %" style="rounded=0;whiteSpace=wrap;html=1;" vertex="1" parent="WDdC_8Nd04Wn6b3jCk4Q-2">
          <mxGeometry x="185" y="345" width="180" height="40" as="geometry" />
        </mxCell>
        <mxCell id="WDdC_8Nd04Wn6b3jCk4Q-84" value="P&#39;C" style="rounded=0;whiteSpace=wrap;html=1;" vertex="1" parent="WDdC_8Nd04Wn6b3jCk4Q-2">
          <mxGeometry x="365" y="345" width="80" height="40" as="geometry" />
        </mxCell>
        <mxCell id="WDdC_8Nd04Wn6b3jCk4Q-85" value="P&#39;B" style="rounded=0;whiteSpace=wrap;html=1;" vertex="1" parent="WDdC_8Nd04Wn6b3jCk4Q-2">
          <mxGeometry x="445" y="345" width="80" height="40" as="geometry" />
        </mxCell>
        <mxCell id="WDdC_8Nd04Wn6b3jCk4Q-86" value="Waiting" style="rounded=0;whiteSpace=wrap;html=1;fillColor=#fff2cc;strokeColor=#d6b656;" vertex="1" parent="WDdC_8Nd04Wn6b3jCk4Q-2">
          <mxGeometry x="525" y="345" width="50" height="40" as="geometry" />
        </mxCell>
        <mxCell id="WDdC_8Nd04Wn6b3jCk4Q-87" value="Check" style="rounded=1;whiteSpace=wrap;html=1;" vertex="1" parent="WDdC_8Nd04Wn6b3jCk4Q-2">
          <mxGeometry x="585" y="355" width="40" height="20" as="geometry" />
        </mxCell>
        <mxCell id="WDdC_8Nd04Wn6b3jCk4Q-88" value="Delete" style="rounded=1;whiteSpace=wrap;html=1;" vertex="1" parent="WDdC_8Nd04Wn6b3jCk4Q-2">
          <mxGeometry x="645" y="355" width="40" height="20" as="geometry" />
        </mxCell>
        <mxCell id="WDdC_8Nd04Wn6b3jCk4Q-89" value="ID" style="rounded=0;whiteSpace=wrap;html=1;" vertex="1" parent="WDdC_8Nd04Wn6b3jCk4Q-2">
          <mxGeometry x="40" y="495" width="45" height="40" as="geometry" />
        </mxCell>
        <mxCell id="WDdC_8Nd04Wn6b3jCk4Q-90" value="Fund Port Code" style="rounded=0;whiteSpace=wrap;html=1;" vertex="1" parent="WDdC_8Nd04Wn6b3jCk4Q-2">
          <mxGeometry x="85" y="495" width="100" height="40" as="geometry" />
        </mxCell>
        <mxCell id="WDdC_8Nd04Wn6b3jCk4Q-91" value="Description" style="rounded=0;whiteSpace=wrap;html=1;" vertex="1" parent="WDdC_8Nd04Wn6b3jCk4Q-2">
          <mxGeometry x="185" y="495" width="180" height="40" as="geometry" />
        </mxCell>
        <mxCell id="WDdC_8Nd04Wn6b3jCk4Q-93" value="Request By" style="rounded=0;whiteSpace=wrap;html=1;" vertex="1" parent="WDdC_8Nd04Wn6b3jCk4Q-2">
          <mxGeometry x="365" y="495" width="80" height="40" as="geometry" />
        </mxCell>
        <mxCell id="WDdC_8Nd04Wn6b3jCk4Q-94" value="Approve By" style="rounded=0;whiteSpace=wrap;html=1;" vertex="1" parent="WDdC_8Nd04Wn6b3jCk4Q-2">
          <mxGeometry x="445" y="495" width="80" height="40" as="geometry" />
        </mxCell>
        <mxCell id="WDdC_8Nd04Wn6b3jCk4Q-96" value="Status" style="rounded=0;whiteSpace=wrap;html=1;" vertex="1" parent="WDdC_8Nd04Wn6b3jCk4Q-2">
          <mxGeometry x="525" y="495" width="50" height="40" as="geometry" />
        </mxCell>
        <mxCell id="WDdC_8Nd04Wn6b3jCk4Q-98" value="Date-Time" style="rounded=0;whiteSpace=wrap;html=1;" vertex="1" parent="WDdC_8Nd04Wn6b3jCk4Q-2">
          <mxGeometry x="575" y="495" width="120" height="40" as="geometry" />
        </mxCell>
        <mxCell id="WDdC_8Nd04Wn6b3jCk4Q-100" value="1" style="rounded=0;whiteSpace=wrap;html=1;" vertex="1" parent="WDdC_8Nd04Wn6b3jCk4Q-2">
          <mxGeometry x="40" y="535" width="45" height="40" as="geometry" />
        </mxCell>
        <mxCell id="WDdC_8Nd04Wn6b3jCk4Q-101" value="KWI A" style="rounded=0;whiteSpace=wrap;html=1;" vertex="1" parent="WDdC_8Nd04Wn6b3jCk4Q-2">
          <mxGeometry x="85" y="535" width="100" height="40" as="geometry" />
        </mxCell>
        <mxCell id="WDdC_8Nd04Wn6b3jCk4Q-102" value="Request Add New Fund" style="rounded=0;whiteSpace=wrap;html=1;" vertex="1" parent="WDdC_8Nd04Wn6b3jCk4Q-2">
          <mxGeometry x="185" y="535" width="180" height="40" as="geometry" />
        </mxCell>
        <mxCell id="WDdC_8Nd04Wn6b3jCk4Q-103" value="P&#39;A" style="rounded=0;whiteSpace=wrap;html=1;" vertex="1" parent="WDdC_8Nd04Wn6b3jCk4Q-2">
          <mxGeometry x="365" y="535" width="80" height="40" as="geometry" />
        </mxCell>
        <mxCell id="WDdC_8Nd04Wn6b3jCk4Q-104" value="P&#39;B" style="rounded=0;whiteSpace=wrap;html=1;" vertex="1" parent="WDdC_8Nd04Wn6b3jCk4Q-2">
          <mxGeometry x="445" y="535" width="80" height="40" as="geometry" />
        </mxCell>
        <mxCell id="WDdC_8Nd04Wn6b3jCk4Q-105" value="Approve" style="rounded=0;whiteSpace=wrap;html=1;fillColor=#dae8fc;strokeColor=#6c8ebf;" vertex="1" parent="WDdC_8Nd04Wn6b3jCk4Q-2">
          <mxGeometry x="525" y="535" width="50" height="40" as="geometry" />
        </mxCell>
        <mxCell id="WDdC_8Nd04Wn6b3jCk4Q-106" value="2024-10-20 : 12.00" style="rounded=0;whiteSpace=wrap;html=1;" vertex="1" parent="WDdC_8Nd04Wn6b3jCk4Q-2">
          <mxGeometry x="575" y="535" width="120" height="40" as="geometry" />
        </mxCell>
        <mxCell id="WDdC_8Nd04Wn6b3jCk4Q-123" value="Edit Fund Request" style="rounded=1;whiteSpace=wrap;html=1;" vertex="1" parent="WDdC_8Nd04Wn6b3jCk4Q-2">
          <mxGeometry x="236" y="30" width="118" height="50" as="geometry" />
        </mxCell>
        <mxCell id="WDdC_8Nd04Wn6b3jCk4Q-3" value="&lt;font style=&quot;font-size: 24px;&quot;&gt;&lt;b&gt;&lt;u&gt;Fund Information Request&lt;/u&gt;&lt;/b&gt;&lt;/font&gt;" style="text;html=1;align=center;verticalAlign=middle;resizable=0;points=[];autosize=1;strokeColor=none;fillColor=none;" vertex="1" parent="WIyWlLk6GJQsqaUBKTNV-1">
          <mxGeometry x="254" y="-1147" width="320" height="40" as="geometry" />
        </mxCell>
        <mxCell id="WDdC_8Nd04Wn6b3jCk4Q-109" value="" style="rounded=0;whiteSpace=wrap;html=1;" vertex="1" parent="WIyWlLk6GJQsqaUBKTNV-1">
          <mxGeometry x="620" y="-1860" width="730" height="720" as="geometry" />
        </mxCell>
        <mxCell id="WDdC_8Nd04Wn6b3jCk4Q-110" value="" style="rounded=0;whiteSpace=wrap;html=1;" vertex="1" parent="WIyWlLk6GJQsqaUBKTNV-1">
          <mxGeometry x="660" y="-1810" width="650" height="540" as="geometry" />
        </mxCell>
        <mxCell id="WDdC_8Nd04Wn6b3jCk4Q-113" value="Send Approve" style="rounded=1;whiteSpace=wrap;html=1;" vertex="1" parent="WIyWlLk6GJQsqaUBKTNV-1">
          <mxGeometry x="870" y="-1250" width="89" height="30" as="geometry" />
        </mxCell>
        <mxCell id="WDdC_8Nd04Wn6b3jCk4Q-115" value="Cancel" style="rounded=1;whiteSpace=wrap;html=1;" vertex="1" parent="WIyWlLk6GJQsqaUBKTNV-1">
          <mxGeometry x="1010" y="-1250" width="89" height="30" as="geometry" />
        </mxCell>
        <mxCell id="WDdC_8Nd04Wn6b3jCk4Q-120" value="&lt;font style=&quot;font-size: 24px;&quot;&gt;&lt;b&gt;&lt;u&gt;Add New Fund Request&lt;/u&gt;&lt;/b&gt;&lt;/font&gt;" style="text;html=1;align=center;verticalAlign=middle;resizable=0;points=[];autosize=1;strokeColor=none;fillColor=none;" vertex="1" parent="WIyWlLk6GJQsqaUBKTNV-1">
          <mxGeometry x="840" y="-1853" width="290" height="40" as="geometry" />
        </mxCell>
        <mxCell id="WDdC_8Nd04Wn6b3jCk4Q-125" style="edgeStyle=orthogonalEdgeStyle;rounded=0;orthogonalLoop=1;jettySize=auto;html=1;entryX=0.5;entryY=1;entryDx=0;entryDy=0;" edge="1" parent="WIyWlLk6GJQsqaUBKTNV-1" source="WDdC_8Nd04Wn6b3jCk4Q-7" target="WDdC_8Nd04Wn6b3jCk4Q-109">
          <mxGeometry relative="1" as="geometry" />
        </mxCell>
        <mxCell id="WDdC_8Nd04Wn6b3jCk4Q-126" value="" style="rounded=0;whiteSpace=wrap;html=1;" vertex="1" parent="WIyWlLk6GJQsqaUBKTNV-1">
          <mxGeometry x="-540" y="-1853" width="730" height="720" as="geometry" />
        </mxCell>
        <mxCell id="WDdC_8Nd04Wn6b3jCk4Q-128" style="edgeStyle=orthogonalEdgeStyle;rounded=0;orthogonalLoop=1;jettySize=auto;html=1;" edge="1" parent="WIyWlLk6GJQsqaUBKTNV-1" source="WDdC_8Nd04Wn6b3jCk4Q-123" target="WDdC_8Nd04Wn6b3jCk4Q-126">
          <mxGeometry relative="1" as="geometry" />
        </mxCell>
        <mxCell id="WDdC_8Nd04Wn6b3jCk4Q-129" value="Select Fund:" style="rounded=0;whiteSpace=wrap;html=1;" vertex="1" parent="WIyWlLk6GJQsqaUBKTNV-1">
          <mxGeometry x="-412.5" y="-1810" width="100" height="30" as="geometry" />
        </mxCell>
        <mxCell id="WDdC_8Nd04Wn6b3jCk4Q-130" value="KWI_MIX15" style="rounded=0;whiteSpace=wrap;html=1;" vertex="1" parent="WIyWlLk6GJQsqaUBKTNV-1">
          <mxGeometry x="-312.5" y="-1810" width="280" height="30" as="geometry" />
        </mxCell>
        <mxCell id="WDdC_8Nd04Wn6b3jCk4Q-135" style="edgeStyle=orthogonalEdgeStyle;rounded=0;orthogonalLoop=1;jettySize=auto;html=1;entryX=0.5;entryY=0;entryDx=0;entryDy=0;" edge="1" parent="WIyWlLk6GJQsqaUBKTNV-1" source="WDdC_8Nd04Wn6b3jCk4Q-131" target="WDdC_8Nd04Wn6b3jCk4Q-132">
          <mxGeometry relative="1" as="geometry" />
        </mxCell>
        <mxCell id="WDdC_8Nd04Wn6b3jCk4Q-131" value="Create Request" style="rounded=0;whiteSpace=wrap;html=1;fillColor=#ffe6cc;strokeColor=#d79b00;" vertex="1" parent="WIyWlLk6GJQsqaUBKTNV-1">
          <mxGeometry x="-32.5" y="-1810" width="95" height="30" as="geometry" />
        </mxCell>
        <mxCell id="WDdC_8Nd04Wn6b3jCk4Q-132" value="" style="rounded=0;whiteSpace=wrap;html=1;" vertex="1" parent="WIyWlLk6GJQsqaUBKTNV-1">
          <mxGeometry x="-507.5" y="-1730" width="670" height="540" as="geometry" />
        </mxCell>
        <mxCell id="WDdC_8Nd04Wn6b3jCk4Q-133" value="" style="shape=image;verticalLabelPosition=bottom;labelBackgroundColor=default;verticalAlign=top;aspect=fixed;imageAspect=0;image=data:image/png,iVBORw0KGgoAAAANSUhEUgAAAjoAAAGyCAIAAABiIfm/AAAgAElEQVR4Aey9f3Ab2X0n+KqOd9d/qO66rlibLhWrVlgzZ8JiXYgN4xBbujsLjrIWZrUxO2ZMtsKLmQ43lnEqR0JorwLLdmREGkmwJtEhmrEM04ocKCrZ4ESyoYnpgzIzcsCR6YAzJbtpFcdNlZlza4t11fQyqV6Fm/Td9/3oXwBI8DdIPpSKAhqvX7/3fd/v9/O+3/fwPsjmLy4BLgEuAS4BLoGmlwBq+hbyBnIJcAlwCXAJcAnYHK64EnAJcAlwCXAJ7AAJcLjaAYPEm8glwCXAJcAlwOGK6wCXAJcAlwCXwA6QAIerHTBIvIlcAlwCXAJcAhyuuA5wCXAJcAlwCewACfjgCiGb/FtYWNC0/0ze79//TwsLC+Pji+Tj+9//XxcWFm7c+Afy8cMf/seFhYXz5y3y8ROf+C8LCwuf+MR/IR/Pn7cWFhY+/OF/JB9v3PiHhYWF97//v5KP4+OLCwsL+/f/E/moaf95YWGBvEfIboY2kAH8CH95JPC+971vB+g1byKXAJfArpNAEK4W+ItJADHZfOQjH2HX+P8LyJGLzV9cAlwCXAJbJwHmkvETSUyzwF9YAo5b5nDl1QgOVzZ/cQlwCWyHBHxwtcBffgmQEeFw5ZUKhyuiFfwvlwCXwBZLYAW4utOPvK/3nntnYZWvO/2o73bte0jl9b6tfU/dq3f60HvTlbpfL/PFnX5Ur182ftWAq0r6vV65oL47yzyg5leV9HvD6drSJJXX+7ZmbctcvN2HVl3VO+kw7V61ZDhc2fzFJcAlsB0S8MEV2Qqx4Hn5weZO30p+2V8eKqq+wqpfuTZWcrn/69e/3F3ku3fOUdCpdspkO4mNX7XhyoMB75x7b80aPC14Jx32o2l9uGqgNk/F9d7Wr7/eHc51D37XmARwuLL5i0uAS2A7JOCDq+q1Kz8YVPncheDLXx6+rb7C7tl+uCItqQcPy61dBcDgdh/qXz6+qhJdoAYmlIWFhXrt8RRp4G39+hu42S1SPXwcrmz+4hLgEtgOCawGriBJhbNebioMf4R003shTvlfD5EUkje/x/wdzNP7+kk089505U4fzTZBDU6UQ5w++Ov+Plr03Ds0IQnRjJukQgjnGG/Tavpuu3GAk8DEEQ/c0tfvFFuoftWDh8bhyglH/I/G/cKS+Ve/+q9wdz0BFoMT6Ht/H21f/x1HFLjxjpTIjQDwfTQ923eHjQJIm8kBnuIVVDj9jpMMZOURGUS43tdHkn6eSNEvnyqUhV8a+HRmO5SWP5NLgEtgL0rA53rIj6gWPC/H/3pwyAUG8JLEIbIkIQMntwp2BTwvzZjRWIRFV44/xaHYe8+9Ay6bOFDsYTH4VflN5u499YNPx96fBDoYqG5jhCOhD7vFbRx+Vw+uPvzhf7Txq3YykMIt/g+3turRBK7IAlXd9mN8IktftAxrD2k/biLIoe/OAsiQTAVgXIiIqgI7KhCns1S8NUeNwieTIX6W54+nR+5VDlc2f3EJcAlshwR8cLVQ9arhyDzosgAOtO+O50p1eXbF7y4BPyhcOaEJPBw7X+avFxYcn+skFd0Qgfprf/0eF0+zavchuiJ7PTy1eTvqPs57Fb+38as2XAUjkupHY9ylScJl4cpfhraHQhRpE7mdAbwjjQVXRN6JBfTX6SwZHc8YNTJqJCdJEZE0gf3lcIWVgv/hEuAS2GoJ7Cy48mAec8ccrt4bTt+HjCJdPKMCYfJxI2AXX1eeZEBc5ZZf8L44XG21jfLncQlwCWAJ+OCqZjKQhiYLzsuDGVUzdwYeTmFnq4X/Lk90Rf0pvoNEWm644/hcGk+44YVzF3sird+TvyLhjifo8dTmtq/+1oYVkoFV3rzq0YHMpGfhyhMV+e+i+Ux31c2JC2kykKQNHanSKOq+uzWR9dfpLI2r/PL3rml5YzUiF18o5hUVvOdwZfMXlwCXwHZIwAdXK+0MXKAvNyPnbLWgPyEC5+usUeHSATiBa4G1q5pbLcgPvByfy1wqqZ8uG2HAYE/MOr+7ctJiNZx+FcYssxPP2VLQWDIQeuZ/tBeu6Fcu9rOu1YcrqI9tSCFQ56I1k6qT9HNKgmzwU8gVT6q2/qi5tUEnAPC8L7fNeEA5XNn8xSXAJbAdElgBrhb28Gs5uNrTYvHpzHYoLX8mlwCXwF6UgM/1VP9MeGEPv27c+AeiETWiqz0sFh5dEa3gf7kEuAS2WAI+uFrgL78EyGBwuPJKhcMV0Qr+l0uAS2CLJcDhamGZFxkMDldeEXG4IlrB/3IJcAlssQR8cFW91WJhD7/42lXNwedwtcUmyh/HJcAlQCTA4Wqh3ovDVU3JcLgilsP/cglwCWyxBIJwRbjnm4F4vhnaQAbjfe97n3djN3+/xTrKH8clwCXAJWDbdm24IqDF/3IJcAlwCXAJcAl4JbCNwBmEq21syl5+dIi/tkkCL7zwwl5WvO3q+zaN9q597JapsbNEsi2aw+FqW8QefGgoFHr+/Ab/t/US+NSnPhUcDP558yXAFX5jVX3L1JjD1eYbR9M/gVvvxlpv47VtmZ03vQ5uaQO5wjeuoo2U3DI15nC1pXbSnA/zWO/pftRzl0VaTy7sRwj1j50GUsbjpx3Fxdf3X9RuPNf6Ow72P3l++eJB1HHhslPg+VgPgus4YtP6O1idpEK6W8QpwB7n3r5nrmyZnTen4m1Xq1yFpwpMUwt3jyOE/od/wdS1SiEvXzy4/9O/v9+n6h5dxbe75gPWgYhdULOCAh47wgWc8qf7Ebap59is3C1V7KLnQVUN2+bUyJapcVPBlVm+osR6otGeaPRIXDmZzj3QrdVrtDVXyp1V5WNx+UQqe6dsLF+FpedPyurVyvKlVt+KnXSHa73PPXDlQg4YUsdBx64AnBAxLcfawTKZXbnvMc6B4dF7n1yoa+rNZoFb057V2rk1U0gcxQbSE433qckrhcr8qjXNnC7lzigRSYr0pbL3NHPJtqaySm8iP7NGIzDup+Sjam6K3m7cS8qDmbK56oZt2Q2uwjsK/PwGzKUASwCTYCpWDQ+4cKm+Dt89jjoO7u8fo/eSyRnGNseswCJYAec9MShmUwSudtRkbrVqvOaBbiq4MopDEhKj6pl06pQaawcq9dTD5bRevymLopyfdbtvPkxHWxASwvHhhNobEREKnSgaS26B4LtFLd0thE6WzGXKBO/ZbZ9d63XgaqzHwZjn+GL/cWZmYLQ9/cSkPdbOIqqqSMup8/mNu04l1b5gT15ZrZ1bjzPRFhTqS6bOphJ9oN5iX365OZ1ZTnWi8JmyC0RzRbUNoQMx5URCPRpCSIhf056NJyQhkmZ4s4J+V9Wpj8ZhTnIoXQFjtbRrMaFNLRorVLONX7sKzxQYoIUhxJMLLuRAPMSug4YfP73MlAvU+ziUwVAHsNd/nMzPHLgikRPM3oKRlhcm8YNq4GWz2shq1XjNQ998cNWT0RZxd+YKsoiilzRrUS9dSyq9sjKSLc1Y9nw53ReXTyTUY0c/iH+SFOrLYjuxbUvP9wqoVabzxCWzPBJGbWpx3rbmyhBy9SqJSwUNG5XxMJcclOUhJSoigCvL1O5lEgOyPJTKPYSQzJzMKMfU3GPX0tcs5Sa/0bVeAi1ueETmidjYmAlhcz1NZ6DM2olp4WSIP90BBubaKi0Avq3OBLZZDXKTfMdq7RzgSpDUewQKrMq5MJKUomGbk/n0CTnel0jfqphLln4zET+mJk589Mi//Tf/AiEkRpP0FtuaSIVbQokHeBZo6YVTcfls6clrCQmJseGE0qckrhTBQJYC5rBcnRSuEIqeh6c7cGUZlcLVlNonq2dzzHJjMI+EK/nSg3x6WAGjngMTM6cKni7YtlFK9cWTd/TNsB1X4YkC+yZnNwgs4RE/3Q8zM5obIJOtFeAKMue4PK75Lg3F2EWs3jQl7qAg1XlPVAftoa96icdNUsi1VbtaNV7zmDYrXC3qpSuyhET5a+8UhiS0LyIPq3KXgNrUwvcK8j6EWsLx44O/dewAQpJ8vkgnmPOlxAEkDReDodJ8KdmJUEdcHVairUjszb39RjrSgkJHFeVICCEknXzt7ZwsIiHSqypHJITCyQemObE34araToixkb/EqJhp+eGKJOtZrsNJp7i2CtkSssTlZhqdYnvxzWrt3ANXljlVSHYj1JV+681MVEDSESUxGJMQil56661zQBomHpKHPvbRbgGhnkRukmUp5ksJyFtIkUNx9Uy2+Bium+MJCW6IyH1RCaHY1anpUVlEYnRAVY+GsTk8A2isU6d+My7uiyq9IdQSzUwa2lUcXT3VskcgzyGfSKqHRaErVf4htlwkxXrhKQgJkaPxcAuShopPvw9Ro9ijqANREbpQsbYMrhgwePT2dD/BEq2//8JlFmxRnV8JrmgKgRRjhV0ToChI17S8Os9s6jnGSwpmngWtJp7JrVaNdxFcMe1BSIieKujvFhRJiF3TLNu2prOxfaLy5a/IrfRKMBloFFUJhc96Uh9YMOaDZEiIpCdhEmfcUUTxA5/9vV9A7YnSvG2TZOAn8ld/BSahOA8phxEKndpD6UF3sgmREE76+QIsamx3j++/qBFLZqblgytsWmPuxgo2U3Ns9fITd0mA1dDERsja7/UpG/x+tXYOcOUaCEIH5OzEs8r5iECUecksnQyh7s/f+kwYHcDqXZW4g2zdbCk7osQ6RVwTSwa2RNITpr2oZXqE0H8YvfohQRwoQBZ9sZLuRqFTr73x+bp1Aly1yvnJYrIDoUOp3LkoJAPnTH2yVBovFe/k0gMhJMRzD29Ty8V1wrTSgvy/cPilwrkIQlL8ZCp9NhFvQ6g7XSEpljU7tmVvdBXe0XNfgHX5Io6onlzoIfuJ+mGORTGMIVANTaC57rGejguXsbHAeph/7eoGXhsj25cCCQbXIp5o7q4lVkONx22Bfjb4iNWq8bKDs9yXzRddtau58XJ5UjOwvloz+bgoyjdxTmA2HxeF+BdflluF+HUIqIJwZVZSXUjsdbP5xoNc5mrhzTuqJEQzOK1n3lcl4ZdO/uYB1JmC1WACVx//6hd+GU85u+k6tnxuz8KVuy2CZe0Z3oz1dBwk5sdMywNXTuTElqwdA2O3+5CJ1eC76NyyV96s1s7x2pUQO18oTZS1WdOCBVec8SbKbFvlM2HU8ckbfxBG7cmSCV8G1q70O0l5iCXP5yvZXhF1psbH2NqVpWUOCdLHXvnCL7MsBVxB0tDt73y+fp2jAFeFOcsYT0II1oKQpBbnjMKJEBLCsYFEojeEhFj2rwGuwHKdBWPLKA5LwqEv3DoFq2ihrghss+qJxgZZC5fzXWv/zgdXLCnnXUwiEdXdC2R36+WLF047GcJl8IMtzZ7uP7gf75itAVeudQQTDLUtYpnHNYglW1BstWq85pFrPrhy1q5In7C9SYMF3bL0O4rUEk7dvemHq7hnq4VZhmmaGD9X1OYtaw5P97rTbz3KRgUhfl2zLKN0KozaPjaaiQtCLPvYsmYLioRCibt3fjeE2hPFOcueL6UH4uqoZpl6ZaKib+Ysb83DtrE3utbrWWdi00Dv4pOTmmCmxeDKu1JNbvTk3B24cm73pjv2CjLV9BqrtXNPMtBVAZi0CVGIjcxKugeJvTe++dm60GI+TIUFSbmpAdSZWq5XRN3pN+764Uq9c0eVUEeyZNjW41xcRNErU5BgrAeBFK5gxQvsCyZ+arFSgFjqqmYtWZAeXA6uMuN/JotCJP3QtC2jOCLHTxV009QmK9oK+3pdIazqnavwTIHx6Pj0s+PC6btjNMp5cqH/Itt/sQx+MLiCfCDRf1aYmYAvhgvstmA2hXdhMPPxNKmJJ3arVeNVDZa3cNPDlW0b91NRWKyCZHd0pGjMghmQ6ApsDy57EGtRL4zEBCdhIkRT44a9ZJbPxyH3IcCiV+KWbhl4NQsJpKR0svTs3UIC0vyiJAlidyI/bUEchsKpCZb094ptd713rdcHVxhU6O+uaMjFfC4zLWLtTkbFsSjfFWarvh+UBCrco6C1WjuvCVe2qWUHYAkWlPmAnJvC60wEWsjmI4TCI2xj+ZJZviTjpSNiJOHEPQPWrsjOQBJdDRef/SivdtIqxaPp8jze1lGnTt2BK8i2lyAlKKnFp3phOIxapHCHJLQg1LJMdJXR5rXcEJiy1CYKUjR1z7Bm8/F9KHoFVgE2/OUqvA+u8F52ugnIjxMefWYIVENjHbhiZhKIrlim3TETJ/cOV5hN0ffUhXlW1Go80XnQ9r5ZrRqveUCbCq5sc6ZSeVxrQrVk6tOabmLVXTJ1z7TLnKmUJzXyjSuFRUOfKpcDsdGioU3TOqAkBE+QddSmypVZiknmnKbjfUqswF6LrprXJLbXIDfp6au2c8vQJit6rRmUZejajIHTg7Y1p1WmdPLeXjS0iXJl1u/2LdOYrpQnKto8vm7qFZp+t4zHlcoMeYBlzmraHH3YMnVa81plUnf2N5GS5KNl6Pqcac2T+pnlLuGnYKMDk5+mJm/Nu12wrS2Jrlzk4Jq/dgmsWo1dT726d80FV6trOy+9QRJwJ5vcerdWAltm5xukKbukmvUrPN2M7mRx/Me+bNLkpmmr3TI15nC1SyxwPd1Yv/U2rSE1ecO2zM7Xox67716u8BtrF1umxhyudp8xrrpH3Ho31nobr23L7HzVOrGrb+AK37iKNlJyy9SYw9WutsvGOsettxGb3IwyW2bnjSnCXinFFX5jlXnL1JjD1V4x0WX6ya13Y6238dq2zM6XGf09+BVX+MZVtJGSW6bGHK72oLUGu/zCCy98ir+2SQLBweCfN18CXOE3XNk3f9DgCRyutkbOTf2UXUvKvU0d2zIu8KbWqiZu3DbpBX9saJ2mweGqia1qq5rGcyONZDwaL7NluZGtUpDd9hyu8I0r88aWXKdpcLjabaa4hv5w620qm1zDCPJbViUBrvAbq/CN18bhalWKygvXkAC33sbtrZGS67TJGiPEL22oBLjCN6LGm1FmnabBo6sNtYOdWRm33o21zHXa5M5Uop3Uaq7wG6vwjde2TtNoKrgyy1eUGGEQOKYkL+XLc5a9ZBTPyOqVsnMi2VrMAgiI5dT9jaHjNoC5VYkfldWRTP4BO5mtTrOA47EvWZyr83VzXObW27i9NVJynTZZVynAFuKEYsP5K58vm4ZWvJqMd4jSITU9WoITBRe13HAMyhyKxQfU5JVCpdZJnHAg7f2UfIiS5kD5o4nCjP90wbqtwV/MFVN9cppwEy/qxatJtS8eH0ykrxUr88veaen5k7J6tbKahy1b4Wq+5ArfiBpvRpl1mkZTwRVwtWGOxFTyhBxpRehQRpvXs4cFaRAzxa1GI31l59xD3H3XV/3BqlzFJ7u3x9QTqnxIQgi4uJYxOWNMkfbFstPLFFl1Izb8Bm69G2uZ67TJuuO7ZFZuZdLn0smBMLATDKXS59LZb4y/3CsiIRwfSiQGgE1YHMgbz8pwLHqXkjyTVHsjwEXQrhYCp9zix+ijcYHwIp5Lp8+l05fy5eVhxt84ayYHdHR3DHuumIAT3MVIn5oYiocFhLoxn5y/vPvJobwCyq6tfnGF31iFb7y2dZpG88EV5buy9OtxoVXOv+vClQlhjRzvS6RvVSDYWjK1e5nEgCwPpXIPDWvJKI7EY32JxJAsD6cLD0u5M6o8lMpPGPZcQRaRdFRV+2RlJAdBm21bc+XcWVXuVRKXCpppW1NZ5aisnlTlwXT5Xa1wKSH3KYlhOXbMExthtmJ0JKsREiygXgU2SMPytwSOe6c1qL1hIKabtuxFvXQtqfTKyki25J3AbibJd4NugFtv4/bWSMl12uSKo2beT0gtlB3bni8lDqDIeRKmWNqoGh/MlJ8CXDmkIeZkJio4ZXzVA1yJ8ZxfIVkqwtKuq/KJ/PSjrHIkrp5KKH1K4kpRM8H0KrfSYE1DcQmJyp2n2pUoQqEES2AYYypQ002YASuzbct4mEsOyvKQEhVR6CSQoJpTBa9dm5MZ5Ziaw2SqvrZu3Aeu8I2o8WaUWadpNB9cYQb69BngwBaP5XSTwtXT74PJSUeUxCBMIaOX3poelUUkRgdU9WgYoXDyr97OHoYTksNHZTyfRGKPHGtHqCNZ/mFB3gdkOrFBJdaGg7an5WQnQm0xZUiO7ENib+7tbyWABKgtpiQ+d/43JNQalYdwPS1ubGRNpsNIoNTGrvFYeqAl33lSGPTX8IOnxWEJtYTjQ2q8A6E2teCkBzlcbe0h6JthhIE612mTrmbVeeeDqyUDlA2hUFdUHk7nxjWYyZk+uLItLXsICUdzelUoE4iucuO6NZuXRTE+qmOuxRDqwuSNOHCS+6ISQrGrU1PXICaLDSjxDgEhQfmLd/J9wErMOLVYu+cxq1xHXB1Woq3Yyt5IR1pQ6KiiHAGCLuCZ+34m2oLEHkUdiIpg15VnExyu1s7lEVDFZvu4TtNoPrhCYrg7EmmHBAZqUwo/msbJwNvfSUeE9kRpHjOWngyhf5387K8K4gBOEi5W0t0odDJ/+QOC2AexTulUCBuPRYjj8t9jxKa2bYwp4r7Y5RufDCEU7kumzqXUwyJqiV298XE6Y50rKJIQuw4pvkAqz5xIhZGk3vfTDVl67qi/JcOf/0ighr++rbQi1K0kz6WTg8B3rIxtzEIacwzr+p9PNjfWqtdpkyuOpQ+ucChfvJKQD0EGDjBgMK/jZKATXdlYRdHhbHXaGsMVkjoJ63xMuVqpDVctEWArhnSCEPoPo5d/hebnSTJQ+YtH+WMCpO79OW/zQTIk0CjQuKOI4gc++3u/gIgV02Tga2+kI4hkI8/CDBV1pyubz9/NFX5jFb7x2tZpGs0HVzQZaANxaosQ/9IbGK5ufjMZZtM3q3wmjP7noZPdSBouwlwSKFCR9H+8fP4D2IoIXHWlK6YFvOCinJ9w166AI1iIfO6PPyYiJHYQK41Gj6hf/srHCaEqTcff1GEh2r/yZE1nY4KH4RSvJWRGC1/4ZV9Lfu7XP/FBEda03Br+7xtxASEpHMEbSaKH4kkOV7suqHKMdp02uSq4sh7n1F4gv4a7LKN8Popaopny695kIAm2pKEaC8A1koE1oysv1/DHXvkMU3gGV09KJyTUphbZHMyaKWYvZb+e+5gkRDM4rYft7pdO/uYBasUUru6OJ0MICaEuaomxwWzFPxtcURprKMDhytHVLX6zTtNoVrgyteLZmICkxLfeJlstHn1VFoUoTPHMSroHiR/+8uhvS6gjWTJs63EuLqLopfGXyKaMmnAlouj5srlkls9GUJv66l9nY4IQu1qxliztZiLel757m/F/z5eS7Sh0omhYJhg/WXkiNmFp2SMItUSTtyqGZZkT6WgLCn3y7h3V35IvfPWTgRq+93qqC0kDed2yzcmsekzJTDKj3EzW1AYtmVvvxhrtOm1yxVHzRVdGUT2AwicL+iIkHsrno8K+WO5vXbiyjEruBEQw6j0GJp4H1IArWKAVolcqxnQxdUigyUAvXKl/fvM3RdSVKpuWcT8ZhrUrw7yfCCEk9WVKM6a1qOeHJNQSe7n4UlQQ4tc1yzJKp8Ko7WOjmbggxLKPLWu2oEiwdvX212RRiKQfmrZlFEfk+KmC/kyvBHjAPQ3ekLdc4TdW4RuvbZ2m0XxwhRMa+I8YO1s02NqVMa9lByDfDRmPA3JuyrRm8ipsRoIL4tF0+e/YpoyacAVrV6SsEL+mWUtm+YoMKX9JEgUpfr789DUGV7alXZchF0lyKy0x70K0NVdKH4P76KszUZi1gi2ZD9aQnbaM8XRMRGifJO0TwgOeKeRsPr7PE7FtiDmushJuvY3bWyMl12mTK46eD65sy7ifirUyhUQoeq5kzuOdge41Sa7zU5AacLVkFE+G3VvJ2pUXroaLT78LEzXUQixEUO4YsPniZiLS4twnxq+UTZjw4Z20AkIt4cQt3TLwahYSyJ3SyZJparkheJzUJgpSNHXPeHZflRBs01hRDmsuwBW+ETXejDLrNI2mgivbnKmUH5bh35Ru0BS2Zc5o2izVXcvQtRnDcleMLXNW0+bIt5bxuFKZgffWbKXyGIpZ81plUjctU58sV6Zw5Y89v0BZNPRp3SQJd1OvTGrw0EUtNxSNDmeLD0r5E2FIcVRt7bXmdW0SGun5NZi3JTgv8xg6UnlcgWrJI5YsY0YzAmbIo6tdlxVcp02u7IUdXXWKLoH6VSbKRP/tJUufwnb0sFx21M+2LdM05z3/TNM0tMqkRk3AqQ3SilplsqI9xnY0z0zDdk3MnMXWNAXFdMdAlkxjulKeKGt48y2tb9HQHCuDlTa9MgGt0qbKFceu5z12DQUqECxu2ovD1WZAUSN1rtM0mguuNk0/V1PxkgmJCySEOsMiQpEz6/uF8mqevF1lufU2YmmNl1mnTW6WGswVE92S2Cq6/9qiSbb1fLMe2pT1coVvXJk3tuQ6TYPDVS17WrL0iWLuWq7wcIVDK2rdvPOucettKpvceQq001rMFX5jFb7x2jhc7TRbab72cutt3N4aKblOm2w+BdltLeIK34gab0aZdZoGj652mymuoT/cejfWMtdpk2sYQX7LqiTAFX5jFb7x2tZpGhyuVqXnu7Mw5wLfoVzgu1MdN79XXOE3XOEbr3A9w8vhaj3S2yX3clJuLgEuAS6BgATWSVS/Gc6Rw9VmSHWH1clzI41nM3hJLoE9IoF1Ju42wwlyuNoMqe6wOncsXF2+eHD/xQs9/WM79khQrb/j+Glwf2M96GD/k+3/Cdrli8fX3IzLFy/gvmx/LzZJH073s59Bd1y4vOtBi8NVwI8j7+ftRU5vS/ba+x0LV9h9NIWXX7t/vHu85+7zyxcPou2HK62/A+2/qK29LzvGg4/1INzTuxdWgc13j+8N4bDZBoerABBwuAoIZHs+bhlcbZzBY/+OEDrY09/IjB7cE7z6j/ev299cAnsAACAASURBVB2TR/fcfX7j7nHUUGDHnl57Sg4ggfov9HdsN+4+ubB/bZB59zgLOja7C0yS6x7HyxcP9twd66k9Isxf+9GXqRyCofd/ta6PPi3CyoBCqG7DxnrQ8d7+QBvwXd5b8IhAO59c2A/XqyYid4/DI2DEfS/A4ycX9pPecbgKuOMAXJnlK0qMnFl+JK6cTOceVDMeBGrwfQSKxcMeJm9M5n3j3ktKbyLvJaDz3QQHJuk3E/FhRrpIGMGPqrkpSodg3EvKg5kgl0+wkh38eYvgSuu/OLYx+SLXPyKESDJtGQ9CXAA1yw2YIDtP9zqIuv6rwadr2w9Xa0tI+lzepsJVg5JcRhPYV7TNa2ktgFZDcxT2rLqKwQp44Op0P4luAZNqp1Vx4dM14Orgfs90hyQtPXCFccuZizjzEgpmrCWkqRyu6rnyAFwZxSEJYXrG1CkVmBVROPUwcMSeryrKDzJLL1qzpez5dPpsAg6TPSAnzwKZ97hz1LrvVu+HIFzpo3FwbofSmMvA0q7FBA85gvfO3fF+i+AKwpH/qevnV5F+WdHUd0+BjYQrHDr4fdDuEdR298uDLusKqpwRYRUCxjAgPN3vQCkGaXYdL9ZqNeGqp/8gm4oB2vUQSPMCEomovJGW91unPRyu6nn1WnDF+K4IY330kmYFaOPny+m+uHwioR47+sH3AayE+jwHnEOwBNyplLnRts3xhITE2LCHutsyyrcyySFZOZnOP9StquiKwhVC0fMVc8mFK8uoFK6m1D5ZPZsDAntoSSw+nMBX8qUH+fSwAtz2+HzPraf0riflFa974SoQOjgfSa6f6TQ1JzxLpQkEhJz0As2WMDvE+whYzoGlJuAzM0J3Bbv/TyEzRl+eCeaTC/txYTb9JLNFXA5fx4kaKE/smfgR5rXZrJzV0HMdciBk7tlzUQvk9DzTZ3aj23eWjCK3P38OLWcxFnm00xJoA5UAu4uWDHwk/pfBVR2BExkyfxQoTFyb21occbp7N0iT+p3lMW88xIYAl8Hy7LhwBkoSYcK2C+YcazYbSwDfR+fyLCxgwifLclDC1QpcnobFdVQIdIM4UyhAR9aNpD2CxTIh4Qi0kIqIOWJ3NKu1cbnhIM2mGsgkgEeK1eMMdP1xZyNSX0UdJYHamCLd8KoxaP5xlrSk4+5rD5gkvn6X5P2o1tEyTA7EIqihsUFnqUL/DIDDVT2HWR+uFvUSEHyI8tfeKQxJaF9EHlblLgFo47+HmexbwvHjg7917ABCkny+6Esa1oArhMSIQ9391jng840OJJKDEUGMZR+blXNh1J4ssUBOvxkX90WV3hAw3U0a2lUcXT3FZFdCWD6RVA+LQleq/EPcEiTFeoEUHCEhcjQebkHSUPHpdlB615PyitcduPIot3euh3XddX83nlzovwuZvRuwUj3W338c8uPkXnKFrA9Rw3Y2v2HX1j/GZo6swjoLWq6jef789MULl/GqOIMrrb+fbM0Cj9Bz1y3ggaux/ova6YsXzsBWt7H+i2OwB4/4PqeRpIXMARGTdp7rcQrgB3vuMpB47qRWfOlN8minqY4nOt3ver39FzXno6epzOP4dgYy+ZApgiNzxz2VKISTBjOpYj8Ljo/dTpEepAHw6fGJ2M1R2CazAerUPNIG2eJ5utNsNgTYxz250IOFDKPfP+aI7sZzKvzLuABUSyTvUTAo3EGG1a9C0HLywnJjcFUtWFcP4RYYXKqW5HG4p26T2CgHOuJ89A+Hq1E38KSEYq07BXEL1B93Mo2gA+G0P/AgGBT6ciIqLC4CKngnDhtcmiT0aKZ3ruMDs5pwhUeBzRvooLCHw/+4ARyu6jnMWnDlik+Iniro72Iq+mtAqw1kvvtE5ctfkVuFGL4SSAbSx1TDlZe6+0Tx6Q/KpfFS6V4+OxKXgIf+aQ24apXzk8VkB0KHUrlzUUgGzpn6ZKk0XireyaUHQkiI5x7epi1ZrKQJtbEF+Uzh8EsFQEQpfjKV3kJK73pSXvG6A1d4Wke1lpk3GDye3nqMBDsUMv8lQZXjIMC5sBkuq4EY5P6Ogz0X2QTQ8blP3Nk386RsjhxwbdiWXF8JRg7WxZwpXcTy+AI8t6XryQf7Lx7fD4jFvDNuJI2NnHZiYHAc3OmLF/ph4zI4TfwUjNC0g2NkqQlPVykakUdjcTG/Q2rGt5Dtfyw8Ai/jaaoPrmoJnOx0d+JRD3A6DpQ0rAPv7Ic2u3DVT5bcnXiF3IKlR9vgekzoC+sCHQjX8eEIyd9sKEyB/C4NgzDmMeE7iuEiCqufRAO42XToPSNOgNPFObdV2EF7BBuIrmjIzqpyRpNFujQuX2k4WCPxBMKj+U7EjOdeLOzbf1FjQvM0j8wzSOiDFZXoUkCA2DqY2N3JBN0GQtEUgxaADcYwX3v8poTHwtFY3Flvnehgv3eYmJRcaZPxIi3nWy0CnrMWXLWruXFM0oMJb6yZfJwRyduz+bgoxL/4stwqxK9DQNUoXPnI5V59lIO4LXJUSQzHAK7uVMHVaFxslQtzljGeBOa4FuBiLc4ZhRMhJIRjA4lEbwhYhv8a4ApaQpm8S6ZlFIcl4dAXbp3aBkrvgHAb/+iBK9cSmBMHg4F5K3bZn4WZIMw02beu7THVD3hAZ5f2fhLcuMZT5XNJzd4Je8fvH+sg2TZ35ujYPMxrOgBRvGkoePqnf59CJmuSiw3sChTDQSHc3u/b4Of4ncsXj++HzKQXFI+fxpHZaTfSohNe9xHMPYELIFKiYHC8H34lxraJU9hjH/GKAvHaPoE7m9CIW4c+Hz/tfYT/Kfs7IJTEC/VsSvF8rKd/jE7tWb4I/7gKAiB3+NhcG7cQpI3XQi64qyA1e+H3yDWFD48G/WGtoo0Zg0iXBUBULOQK6akDrq6gPArD1I9NX9gokOtMVj4Uwe2nqovFuOxwuBMImkDDyETHlCmqk6V0hEbXZVnzMAywZkOrKCy5auAMH0UdNtWDGdLB/id4hgRf+QbLNVK//HFy76AP0piQSYxInutCuOdbF7F4dFXPc9aCK2ftitxkllOdSBos6Jal31GklnDq7k0/XMXzbKsFfUx1dOWFq98evfwBQezLG0u2+TAVaVkGroBNHHNfYbiqFCCWuqpZSxakB5eDq8z4n20DpXc9Ka94fQW48kYYMHkEa2Eu3vV3TPUpEvSPYWd9ge4GBBC60NNxkHgonxljk4MdgxgUSb4C7IpViN8c78EbnxxXTsr39B8nq1COATvtoc1g6EivszodTKLrak42H2bxJHmoka9IFojWD7cfxE6H+SASNNAuEDRyvnLgClKmPf3H3ZUVcFI4j+qg13M3r+hEbE6nMBZeOE2dIIRN3m1gDBTJUy7095MWAkqRfZjQ9w68n62q+464sCN2muSJjVwvX6sXfnfp1AZvSIqYRkUIdo07zrqqMdR90+ZhoKXADPEBzTd6QdqBJTq+XrjCKz24qn43FawRgcMvyrHkVxoOClc9/QdpOvQizNi8UnJGh/W6atz9wqkqj2vzwRWJ/ADSyOyn5+7YaTZfwbE+jdqdqhjGOI+muXE3gekdcWYLJAnsMzHaVNwkDlf1HGYDcIW3lUf34RAHCdGRojELsEGiK/NhCqIfwY9Yy8PV8KuPXpGlFkHqCElAwb0sXNm2bZQgJSipxad6YTiMWqRwhyQA8/cy0VVGm98GSu96Ul7x+rJwBd6QvqghEWMgWRdmq27aAZCAGIYzL4YasKX51k4cGyNegMVtJM7AT6RejE78oQYMM7gZtE5qn2wKDLcRgCEG700w0k7gtrkTzIC/IB9Jaz2LFsxBOG2mb3B7aMVu3OlewJNlLAfi9fw9cptKRUrkVkvgZBRct85aiB0ojg7ZUzDekwiMJQ+Zz/LNAGgjqQeEepzxwkPgiJH2ndXPAhrmbanEaHXOXa4aYDHC145W+N9UqxDzwuQRLDnsigUqo96WPpZVDmWIlrLgkuoJ7R00r2ZH2EXPo0G1iMDxKDNB4WaQ0XQeDtVWN68KrnzlHYTwhWJujpGNI5Oz2zU8X2QwhhvsqCUr7KguGXroHWs/eS65Ugr+7orucCFleDIw4DkDcGWbM5hsO1DKhihHn9YoTf2SqU9WGJ883FIOsne7FN1Qk8sU7rm+aOgzhrloaJi625rTKlMuE6M1r1UmXWJ78i3hubcMXZ8zLUoHzlqyhGvGTN7QhWlKdm9tLaV3tdgavOKBK4+5uqrf0MU6OyYautcxXf6muSQA22T613EsEx/9HSwBDlcB/xmEq8DX/OPWSGBD4MrZA9ZcDneVoMsb75eAL7Dwf7WDHTHvSCMS4HAVcL8crgIC2Z6PGwJXjRgAL8MlwCWwUyTA4SrgjjlcBQSyPR85XO0UD8LbySWwZRLgcBVwxxyuAgLZno8crrbMBfAHcQnsFAlwuAq4Yw5XAYFsz0fOBd44dTcvySWwdySwPf6o/lO3l2SKw1X9kdnCbwKk1/wjlwCXAJfACy+8sIVOqKFHcbhqSEy7uxBPBu6U/AxvJ5fAlkmAJwMDbp9HVwGBbM9HDldb5gL4g7gEdooEOFwF3DGHq4BAtucjh6ud4kF4O7kEtkwCHK4C7pjDVUAg2/PRA1fstCH861p8Mg36l+6xm8FfhuLzY3y3+M7yoT/RdQ7BC96+TsMjzXNOtnEOIV2p2hrHCAVvCZ5q4z3kCR5IjhEK3lXjJ8kNPKvGXSsLyn9yDzkFzpWE5ySqlavCvahup3s2UgPd9D8FHznoaY1zMpO/WP2OB3tHDqSHY4R8yrY2/SSnfHlHkJ2rxA6pggOcvG2G30qTMzA9nap55pb3LnKwFjt2yycTevau56TKRiWz6rGoL+QVq+JwFXDHAbgyy1eUWA9mrz8SV06mcw98PFaBm2t8XPLUQOo5rGQZh32N8s6l+XJ6UEl9853iiKxcKpPzlpwvMQ2jnLpvuFfYO2umkDgWT96i7bSm84leNffYYt/vjP9rwxVjoKjhO6gNEN/h8yAErnxH2ZITS93zBpezzPrPqnGXcxQeNrzG3Wu1a66qvAZceTwRPaiw6q7GXUOw/lVXFRSUv0K/ZFZd+SrlWSV5f2NWdIvVBYK9IzQlIF6Psq1VP/FRud4zgslcBMbXkZvngD58GCA7prIaYHxNdXEOnwYC4OaBK/+pfdCX4JW1jdRm3cXhKuC+A3AFZFFIjKpn0qlTaqwdIRROPWSciYFb8ccggciSW0P6XBr+nc+WZhsAjzl8bO4rj16tCVfkW0xZEmiF9TgTRQjti+em4SnWZDoihJPLtjlQQzN8rAFXruHBweTOVBTPZ5njpl7J40GwvwabpweogyGBPR8np3GvbFc+41/J+zvOhfi7hu9dN1yB92RuaKVGVvtiuLLhDj1QITuhvPbTG2pz432sKhloTEOP8+lGcCjd7jBlW4d+YuGvSBVPIyo4cZ9FWsFW4X4FLvp10iMZtwtuTwP3rmOw3Do3sBIOVwHnXAuuHAKRuYIsouglzVrUS9eSSq8MvPKUcj4un0iox45+8H0wgQn1ZSsE1AhcOTWQpy0ZxZF4rC+RHJbl4VRuAp8/a2qFSwm5T0kMy7FjyeL3/HC1aFTuZBKDsnomW3xs2rgl0rGEOoDb4ME/ClcICcdymuXClWVUCldTap+sns2xNsfiwwl8JV96kE8PK9CdOQA5c6qQPiHH+xLpWxUI7IxSqi+evKMHhLV5H4Nw5Z5Fjc3A9T7Axdd/nHpqZpnMgzCvhK+fZg4df0tt1ZtSo5W451gTRkGcbYE5rJs8ISUBYzoOeg9cd+fC2EQdEHKewhDFrYoAbXVJyunneSg9Qp4Zv7+PbnTlPKteDexZbhsYCRMjb/VJgJwXfhB4tmCK4LsLxsItzE5bpy10x4gWY7yU1VVRBjInUMDH5Kv93tPHac7LkTz9jG+BHmHelsCx6EzatcHYI0CiDBAb9fTDgLqirtc7j1vH9YBYaj6uIf3EcAUshWQShiunzWMqzdQeGuc+yNMMXKAWXHkIZTwUaIxdk8jRmfz5C7t1Mq3b5iscrgIutz5cLeqlK0CiKH/tncKQhPZF5GFV7hJQm1r4HqacbwnHjw/+1rEDCEny+SJNxlVHV9eKuqlnD4OehI4o8Q6E2hJFwygMSqg1Kg/JEdFDBfKnb7x0WJAGbz96JS60hOWTCbkDoVaFPhFJsT45sg8RrizSE4ArQYwNxUUkytc1YwJHV6VH2SMICWH5RFI9LApdqfIPcZuRFOuNStAWIXI0Hm5B0lDx6fcz0RYk9ijqQFREKHqpYm0zXBGb8i7PYMZYME7MbcqCLWa9Hk+EDZjYPLV8xzcFkoHkuutk6Ty0Rp20DACD42GJPQfWrrAXYJNi4jRhXswAw7f+QTDD8USkC557WaKJOQ4XlrB0COx55s40SVVdA3066xfm0PLwK3r9IykDnaI5Io9giRDcVnkeRGYJLrDhBuIa/FWxzpJK6ATCSa/RdsItdKTIleo+giiow6WVeMt4Hb1XkTx9cVSCIQEVTt3eeet3B8J1+t5UIZ70kK+YzD2PdmSFmQ8pgxpVEl8ykIw7wKcnX+dFU+hbzQyhK9gquHKHlY2Fq//bjExMz33N4HDVAFxRJQefHj1V0N8tKBKlurems7F9ovLlr1DK+Wo2YQJXSAx34wWwnmhsMFN5pmcPUz5G454q7QOeKqgTJ/eMMYVcAQ4tF65iApLiJ1LpS9nc/YrxrkPMaJZHwqgrRYM52wa42icl7lfykMaMZ0aTYSGcfP2pPlkqjZeKd3LpgRAS4rmHwDscu6ZZi5V0N5KGi8A7PCQJh18qnIsgJMVPptJnE/E2hLrTFUyjHJDUpn70R1cYFfwTWEoOAox/DLS8PoJlSxwUAX8B3BPAGAu3ODYMqRX2Amtn3oeBmeu5WCn8vx91iNPxrDS4xgbNZrlKkrL70x6PxyGeCzviv+oHpmD3tf+i5vFrQT/i+crJBAYQApyvp5iLsuCbGLIG/BSgjvdFQyIiDa+soFDPdRYQ0BQrjAX7F2wwXHexx0UCLz5hQTkk6xg8mItnrra2lFgvloErj5fHjfRIxoErVoY8tBq5We+CcAUatQ79JNEV5k5bjiqeSM/L0OYRDhM7Y+BkTfWoOgyN2/In2mWnjNvTWqPmFNv2NxyuAl63VnTVrubGy+VJzcBe25rJx0VRvokzY7P5uCjEv/iyQ89Ye+0qkAy0AK6kwYKxZANcCdEXiy87ddaCq4KB049yNw6EOhI0VXhdt5bM8pkw6kyV2YIajq6kxAPTmi0obYRDMpR8/UnhRAgJ4dhAItEbQsvxDn/h1qkQQkKoKxLFe0NigyyxGRDVZn70wxV192CuzKGQ5SvC9gu+8gLQcuPJqeP+XANm1gi22gFkrMyGvVjiABh2uMSbUwJiAm/Oo6lHptN/rw2zB7mPxl6scbhySuIa3B5Vry15vG3N7pBG1qgh0GwMz+7UvipIqosx0EKvu/S+B5l4H00ltjxcwbdY4AR7qmMp7GoBrvxSCkSrgKyuU6ajU6MxHgHWgStvj7zv/fW79axZPx1Zgf7Uo4p3ddUdQX+rqNYFLnrhzd9yV0tdva0hKLeYV9W35T2Hq4DTrQVXAbAxy6lOJA0WdMvS7yhSSzh196YfrjxUwjXXrqrgKvPma8l2FDpRNCyzfD7qwgmNrm5+54+V+GCmbFjG/UQISYlb7Ik14WofwJVt2/odFeNbKDkG5WNXNWvJ0q7GhOXgKjP+Z7IoRNIPTdsyiiNy/FRBN03Nwz8ZENlmfKwJV9jYWP4Nh0p3xwgt943nY/3AZH+BTBhdD0KMyrFGMj+Fi8RDeYyTfuWZ9ROzZ8YPbp2m/qjjcL2GY7rOg5wrwTbTPI8nGgAUdFwzS2p5rpCH+lwheP9AH8lHABuPEHy7k1kN7rPc7rhwhRGFATPxdK7Q4KF+Ibji8nxVjZTVcEU7iF2hUwmMaQ/bnEbF6z6dhi/VffQMBJ1zNAJXbhlIqZF1Sk/HQThOw7wdx31hWhEYCA/Yr0Y/HbjyTG7o+DKN8ouX7bbwNMMFFd9FVpIppK/XflVhY8HyCuwWt+Ztv8LhKuBsG4Ar2zbup6L7SOAiREeKxizeFoFTeebDVBiyhgyxaDLQm19BsT8hK1I4urqvSvui2cemdl0W4UZcsiVGknUsGVh459UEBh5JEpHQkypV2BOXrBrRFYMr2zJgmQ2FkqW3C8Nh1CKFOyShxbM2dl23FrV0txA6WYJk4LAkHMpo81puCDohtYmCFE3dM6zZfHwfil7RGtjRGJDnGj/WgSvsQajH9LgG6r6ZJw26cnDBzDKZ7bFYypf9x4bqXsHOC9xl7V0GHi/pccfBB7G24XFlKAWel7xIoOBUBV6JvFwsIZ8hLux/wh5UBVcQ6OBH162B7Y1kz3LbQORGboT2uBLAAnEBgy6/kQbRvrDCsOuEtpk00jMVcNxcnaqcaKkaikj+ij6xg+5+DPSR9ciZhbAuuO2p1xhcMd0m6oKTGzXW7R3Tn+BA4Hwpfu4q9NOFq6rxJaoLzfCjCLnCmkfkQ3dh+C86siWa78IVmUiROx1B+aDObQyzmu2+wuEq4E8DcAVM9pXHlDneV3TJ1Kc13cQOfIlRzuMS5kylPKmRb2CX3Uyl/LDs/puoaIZpPK5UZnD+ztQrk5oBCBGNDmeLD0r5E2HUphYNU3+s6fNuSXNWg0omNWiN54nWLG7hEmudZWiTFZ3lBm2ov6KTNKah63OmNY+fuMjavGRBY2bhBujsNO2sNa9rM4ZFqrW2MbpqFlNxfO5OfeN6WC7S9UvA2eyz/qqapwb+uyvmRRv+f08ecbtklk6FYcWoMywiFDlT9bvghsW3Owp6oqvmMead2BI3EHF+rLNT4Xa7p/ZBuXmiseBXzdbUhtoTCAebUdt5dBVw78HoKvD1Jn5csvSJYu5arvBQpzHNJj6s2avmcLUrPGAzujwu2J0rAQ5XAce9fXAVaMje/sjhauf6FN5yLoFNkgCHqwAscLgKCGR7PnK42iSD59VyCexcCXC4CrhjDlcBgWzPRw5XO9en8JZzCWySBDhcBdwxh6uAQLbn4wsvvPAp/uIS4BLgEvBLYHv8Uf2n7smdgfXFsTe/8avoLvy0N4eV97qeBHahivu7VK/jO/06h6sdOYLGg3T8gCB2KdkJ5zdfa+9IE0b9a+9M1Z27u3dV3eUXVpbA7laJXdy7HQ9XlqHr8xb8kvcxPWZwZW21beNhLkvYOhop3Wxl5kvJTlFqD4f2wfFUhvOb5bW2cxfrt23bu7V31mwxd62gbcB0Za1649y3ZJnOD/Wdi038JqASxUGk3HOaq2c6nXMr6JvwJV2/BEfPuK/BIr6hqHRm9JmM/ztaW3EQIaSQclAYFwtf0m27qLgVAatfZsZ5+ga8CfRuA2psmip2NlxZ09l4RzjcqWSuquEOtViD77empK3KuYh4KLN1xxzVbMWaLy5q2WMhsS0a7xHFY3l9Y+FqUcsNx+h5u0eVxNlscdq0PRejh2LyUDJ7T2NncBjl0ZTaF4/3KslL2HtC4bh83v3xtTWdTxyT06+OpwdlOGVqppA4io/MPxyXh5Ppm2VydIjLJe0wQX//WfkKPr9xHgtraS2+ebdarzmeCElyfnbNarRhN1qTGXk4X3PatBzd9pJZOi/H+tJlPLjGeFo+lsjPsKPH8LfxE/nNMNKASvjhiollJhPuzDikc/qlMEYa9i35fyYTHiwCDnlK2vcUhD8WB1G4M+wAIQE8BlceGPNXuf5Pgd6tv8LmqWFnwxXQ0hNKin3RmuT0dQS9w+GK9GrJLJ0MicdyGwxXZjnZgVCXkjybSg7HwwKCQ6qesIvn0umzSeVwCKFQ4r4JTJIgfyF8TFUHYnDQoiTnHj8rnw0jSSnMkYaCtCltWCuKXdXMx0DxFepLpkYS8iG4SezLaWYtJuh3nwLBNELhkRIQVy755iNf/OIXDcN3xTCMl156KTDou9V6dwZcLUO3PVdQ8MGd8i3KtyC3osj5CsWruYIiocg59jEwqOv7GFCJNcOVfgmjUQCuIHgCNIJqBxVE4zA90xlWBgnm0QKr7cQeV3jbtpsLrqyZYuaUIh+TE+cwCe+iXgTOXzU1SibgRvlmSu1TEqcSylCm/MNybkSBb6+X4Ji+JVO7l0kMyMqJVO6+Rrybp/yLt/40qQylCsBST+Fq6lFWHUiVDNuayir4jTmRTQyq6ftA94gvpu9+K3ilZFjGg2xySI73qqlrRcjGmFrxSlLtlZWT6TxhK7Zta6aQHlKSo289+ip5rmlNF1JDavq+8cx9iqXfSsinCvh5RulqUumNy8Op7H3NtEztVlrtkxPn85V5254rZU4oiasl/XE+MYAnoQ5cLeqFc6pyKgcsXPPl9KCSmcBA0jAlsc96MVyFRyhHijmekFAo+dp4sgM5F+35otqGwmffmroaQ0hS71B2THMScEgaLj4DzklG+0LO1B8mZxMzuBIk9R5BGksblUUUSrz2BJApcB6/e2ZxODlueuHq2rVrCKH29vaf/vSnxOx/+tOftre3//8nj16/ft3rCHy9836xA9979ZPBlWU8yCUHZfVkMjGo5v5munQrV5gwzLly/nph6k2q4bZt6feAIBtIq0fBXtyqzErulJK4WjYtkwTK8lAyMwbE1uYE1KyczACnNqh0MXNSUYaTyWEl+bW337oFFcpDyfQZJT6U0xbBEPIjinImD+/xqx7dNrRnNE5TYkeyEEIt4ROiGTsPcAMJ0cxjFmzZljaqxgczDtXcekYvoBJrhqviIA6SAnDlia6UewyZcJkiDdHYxdX0YW8qfEBCTQVX5VQXQgfk9Ggu3RcSuj79jawSPZrMXk/FJEm+qYN9wlReQK0R9Y+/+ZVENDqUyd/MKB1i5NzrU9flyJFE5loue14JCyH1nuEr/8VvfPFDkihKwJHIvZfckgAAIABJREFU4OrRtxKh1nh+1oKS+E3lfFRqFaUByGxgd/BrfzQSuCLf+HYW2BuPpnI3M2qnEBp+9c2cEulRkldyuXNyqDWamQQbM8bUUKsovj/52V/Bzz2fTx+FA9rFgdvfSbM6LatyPiKCj7a0K+D642dz+UtqeF/o49nPxXvk9PVsokcMDRffeVUNiaLUnSqOp6Ot0fQULNfR6Gq2oLSLYmskPWnZMCfFSLAaSmKf9TpwtWRbc+XccBgIVr73erIDSX3ZIhwfXCoA0bOkfv2dfJ+IOpIO+5e9pOd7BaCvfKZljwjC0ZxuYTG2hJIPTHuuIDvRlQtXtj2Xl0UUefHNV4HiMqqeSafP4X/XivoiDrk6FaULoc5kac7JzdiGYRw4cIAgloFfBKva29sDIZevdwH132EfrSr9lPMPQaqoRUAtUvRk7jtfT4TbQ9KBmHI0JB7JPLpLFNs2J4C7IDSQzo+m5QNC5OzrbxBV78vmR6LiPoQOJPJfkkUkRE9m89cSUVGU/zSfOhJVL+UyQ2GxK1WGMQV8EVqE0NHkza+/GO+KJ86nFXzcPUxllmxrJhdvAyPLwqQQXrXptoEuRwMWuqFC5Y4qCVh1bY+qWK7+sCHafrjyrDeR1Sa8cMUWpdxvWWKQoCD5S3KJLKPoX7ui4RfraJ3/96TCB2XRVHBlYV4PIX5NMyZSkdZYlsytLD13RAyPlJ9OFvK3CoXRtNyOOThmC4kuQexJpAZC4r998cV/H5FPqdE2KdyXSnSL4bPlZ/7yT1/PxERMQ1UXrmxrrpjsptTDGK7kGxPBK/kfGYWhEGqJpCcM7WoMLHneLI1EJSmSuJ5PdIhxTG5im1quT0JdqfHXMjERST2R8JFUeiAk9eWfzrI6LRzn4ZCCEjweylQMLXNIZGkQimePCqqEJOWmZkxWwZVlVa7LwAQ24YGr4EAv99nn0Eky0DW+sDqqWcGLQuw8BJkATt4lwCWzeEIiAEZnx1N6cRiEAJBWD66MotKKwp//DsBVgAl6nnAuZysP0tEWFD6Z83Zjbm7uPe95D0IohF8Iofe85z1OsOWU9PXOuboz39TSz3L+ZqF4J5c6Kgnd6crTchYvPcZP5srzGABgHmbbsN4pIDGemzbKZ8Likez0u8VkN0Lt0UinnD4bl9oTxR+Wkp0ItSdKc3q+TwqdKEKKwrbNB8lQazz3g+nSrXxhLJ89GRXFWPYHTwvDYUGMKOezqcMi3fKzZJYvgZFRy61Ht/3QtKbSkRYhdq5QGkvH9qHQKZzsZYG4PpmJCiJNEm7CSAVUYo3R1UxGgX0TeA8Fgyi8jYKuS9Fq7ynhS3pxEBDOA1drWbvagwofGPzmgqvKuYhAfPdkOtIazUzhOZql546K4VMlus6Oz1MXj+amf5CX2wQkRuQjkvihq98YiUidkVCrIPaoarfgZq5Yef1ZOdUlAmtifbiyl8ziMCAKi67k/LtVV36kZw8DfJpLln4tLnYmy8/07GGEWsIqhqsPnPidDx1RUrcq5UtRALOn5RTMQEXlVqVAKrdYnRbQE4OXWbStx9lYazg1YdrAJymGz5RJ53H4lX7rb7MxUYicKuoTVXC1BPdGWyOpCdOazcutkjLmW9EJDHn1R5/1YmQigVTlMeVssf0hV7ZXEg9ntEWzdCqEJJWtUYFPzBxC6DDO7eC1h/BwMt4qRC/hFYg6cGVNZaItQjz3qF4yUDic1S2zcj6KqrT1Jz/5SSgEITfBqrk5ulzm7aOvd94vduL7av1kWy2AF7tNKRi2OacDE7dlaFPaU5o/sG0TlB+TqLGF20UTZhIIhU4WK6Oy1K4W3ynIJDRfMgqDkjREN51SuGKbICCEaoX8cKpLDA+q8e5YvEv8uX//CeVDcfV8sTKeCjsTTRpdVdFtP3wKvHHeF9UiCB9Razw5RGh9NmuEAiqxNriiC1dBuHIwCa9dwYbDotIZJnsx1glXtm3vOYX3q0CVA/B/vcmfAqdaWJWzYbJhz6oPV8a9ZFRE6EiO8gvvCwNcHc1N/006uk8QD0RT98tZHI0ReHPL14IroFMcyJYwEXB4IKeZDEhoMrA+XJ0pWwBXMQZXADDmfDlJoitTy5+IRbtECCwIXHWmyvNG8QTGQgxXQqcsHw5LmCIyMnL9M/9OQghHSLXg6jt3VAlvXrCmfHCFUEi5VjEfZ6OiFBuIR9ph8RqJcv4HzxqnJPZZr4NM3rH3XzQfJsMtocS4SRarxKPp4mPDnC3nTkRgKYuAJc5VQmNaWGqoFlyZjwvJQ3jW/yO8q6LW2pVwJAuLY2Yl3eNTGNLAubm5tra2AwcO1MSq3baRvQ5cWdN5tROhVuXm7UR4nyAeShdvquHu5PgYEI2G+s+/go3GO1fTCFy1AFupfssDV/dhjbAwUAeuzEq2DzbaJO+NpzoRaoupwzEBIXGwANzcV5VoT1jYVxVdBei2v3U30Y5gAoqjNzD2FkEexQu409lYC2gNUJj6t7xac5XylB646FXSxt/7FJ7siXA3srNq/CtSDGnYt7ae6WQRkr+ks1HQQUHYIojjMFbJWtaunAfvLYV3uo3f7Di4svRRWRKEMM5UwEQP+2dQfbOS7hbgDUseYrhyyz/5ZhJmdK3hSHck1CpGzpSefT8TaxVEuiAkiD2p198pKG2wvy3cHYkcEKUjmbeqrlQglsLRjxNdzZuls1FRDEW6QmJrNE1+umtWINToxHDVKcCWJ8iVOXAlISGWeWho12HBWRo8/zvvFYQ2OTdj1Yyu3rylighJXZFIuyh2J/GWfVjuEgUxcrb87HEW9toN5/W5UrIdoZZo9ts3Gqck9lmvH5motgQu4o/SUNFYsvSxVAwPAZ4rh5Sr7v51wvUs9ObpTgwvXOHS9E9rLHXfsNxdFe53seyjV4ckCle2bU6k/dpLP+m6/pOf/KTmV7sMrmjG2KOfZOsBRKhYk19/MyuDAsNuTfWObk5hDf/FT37+10PCvhCeSXijq5CIpwIYrhI0uiJwVS+6MsvJLlGQYtnvT+eOSYIYToyVMocEJxlYGgmD+rEtErB2VUW3/fEXByF3/ZCmS2hQfigDGzQsvPwJ8zb2LR1XTOQtNf5jlXrqANd9Co/hytU551dQfhBiSMOqJVvYySd/SRuQDH565cAVu8cJvNYFV7Zt7x2Fd0RH3jQVXNnWnEbZhBcNjTD5QjMtY7pSmaWLt/CL4CnNIfC1Zh02YSDq1eZgT5+nvGX84I3xV781/remNa9VJijRMCUXxiWdW+CNZWisTHkKU2FVX7GdB0HxymPKmAVExhMeZmHbhic+NiwLl8e8webffvPWt59AqDDDCI4tU5uCu6xZzW0V7QjuPJGJqdPGT7IEHRaMNoV/HI0zP4SZGOqZNqzVUBL7rHfJ0qc80iZqUnUROss6bi9ZxoymTRvBn4rCSJERwbXgn3LDb7q9In3MOJRrM0FbXs5l22Y6QFrV2F9f7xq7pXlLeUVH9JO2FXQeazJOA06y946Gmzqkdkk0w6zMUUJQ1CkdNqNiVaRU14SA27btRcyIzWQPRopZsKl6L3mU2dFJVhjGuopue/pHlfKkL07yWDF2ArWiqM2Lrpp3uNfUsl2l8H4JNBdc+du2EZ/wupfQFgoPF2v+jHEjnrGKOow7SqjLs5VuFbduYtFdrN/VU+lNlCOveodIgCv8DhmoYDN3O1zZtjmVz1zBv+IK9n07Pi9qxTslEgZtx+NrP9N/POYu/FS72/zqXpXALlRxf5d268DufrjarSPH+8UlwCXAJbCnJMDhak8NN+8slwCXAJfATpUAh6udOnK83VwCXAJcAntKAnsJroxiojsU7grL5NSJdYzzxtJNraMh/FYugQ2VwJJRPJvIkp/nb2jFvDIugfVLYA/BlTVbSP67X/qA/LnXaxx9sBpJrppuyjLng3u86z1vW0iMvvvd77788suvVL2uXbv24x//uF5T+fVdKIGlZ+Pp5Ff+1tmHvgu7aNv2J1610UiNf8IZ+0tv7c4u745e7Q24mq/kTsnR7kikMyR1JdlpTmsdwdXSTc2Xkr3JEmFsWumZ5KDCLSYxevnll2u262c/+9no6GjNr/jFXSWBJaN0VY0fikS6wqE2dvjZruqhrzPVWPXfn7H/TRYA7AOv+EryD00lgb0AV2b5XASfnRoJ7UOofd1wRQbQORDdf1RMjdFterh65ZW6NrrMVzV6yi/tTAmY94HrQOqMROCM+wic97+rX9Vwla/Y//TP9sEMh6umHvjmgqsg39WSWSGcOoOUgAdk6XDq/KiUGQaeHmPRKF9NAOHTD9mVJWCrwlxWlnaT0VwtGcURWb2uWUuWNpZO9AGRT2GSngZrjGfUwUT24VNW3qGnejpVXYMN9FqMHbHWI2zLGM8kTqazV1LqYDL/2LQD3F0uIVbl6XddSi0nuvJxC42+8VotEqMalEVL8Duz9LAsDybT5xLx3lTph6XUSsRXy2DSMl81tV7v1sYtBSmprJlS9owq9zKKONxxqsylR5QIbd4y7qdVIHszmXpbtmMOc8xqHDsy/dRWo2+86qGdc7ROv5dShrNwctKSWb6WUIbTxXefeUjaatqFbRvl3FlVPiarI5nClAk0dR5et0Dljx44puEww1nGw3z6BCa6I2xzdpB/zpzMKMfUHDsIqloXAnA18i0ocuP7PLqqFlVzXWkquArwXaXGH2TiXTH1bDZ3LRmTJELM4XDqXL7xyXCrKHaoueuJsCiglshnXiZXEqV523yAmX5+pOeOMpordpbgs6lMvDueup7PjcTENqUwi7HnVERsFcOfGL1KaLEceqrfeNklymI1wHFmDlwt1nrETE7uiMT7YuGumHxYEg+/OP6yj7vLJcTq+fytzzL6K+dc3R/5uIW+8qWP1yIxYuxHHsqiu6+lY13xxLl0ogeOzoXz+p5yuGouk1tPa/Rbfkqqrz4qnIhEepOZ65iVqhPnnIGCACvzUOoj7wEitOTNrNwuCkiI/cn4y1Xm8PRBMmBH6b+Z8lBbffLlP/qoh3bu7fIIrny4UL4WFztwrmKxkj4EVvbRCx6Stt8erWE4lg4caWI0eS2fPRkRJPlG8UUPr9udbya9lX/yS45pOMxwT0upQ5H4iXR2FFPBDRWevh3gnys++e7KcPXffNo++237v/uP9tGv2P/8z/abuv3f/kcOV+vRza24t6ngqgbflXFHDUtSdCSfHZCcYzQpp873p/PDYbQvHO2MqOeTwKDxxnR+OIQOeOBq1jYfMporS6cntS8ZheFIuC9TepCNtYaS+KhNa6agdiDpRBHTYvnoqZ44RFlODV64WqrxiKcPkpEeNdkbltqiiTOyJMl5sr/DC3iMEOv1HzL6KxeudB+3UPn1miRGmP3IS1n08aufiwr7RFEUQ73p9GBI8JJR1VenZUKoZb6qXx//ZtMkYFRRUs1X0kdCUoeSvZWKEN5OHLiDMv/uq2+8IktIjPSEoyfTiU5gz3lWbQ6WXm1HPvUjXItUdV8fPxNGYjw7CaczU7iybeN+KuIyVDGStvEq07NtYxxOmg6PlIyZvCzBuf5YWOSWF28lfZW/5piGlxluOie3S6Gj6fylmNiRLD+r4p8LnI5bNRpoxD5+C64+eNf+mWXPLditn6c7L/jaVZW0muhCc8FVFd+VWYFlJyEyks8NSNWcOvpNGYKI7nTpYQaTRVn6TVlqT5TmLeOeKokxOOAcM/0AdQKwMQlABDdfTnUJocOxSGdYbPmXfUPHYr3J3MNKrhdT0s1X0VNBeUyU5dSw5ImuliiZkPcRz36UkzvCse6QKIbkk7JEKPLgAFDg7mo/1nfES4g1X8VawkiMKLfQQ7M2iRHQSfgoi/78z1X4LEix86XSOcJTvLK2LYNJy3y1cr28xIZLYK6Kkmq2IIsItckYrv6X3/7dX/Mq87O3s8AS1hLLTpSoDlebw5JdbUek4Y76wUdGO/fkjiK1hNRbGsDVzw9+/KOx+IlsaaqgHpAYoSLBnnTl72oYDpz+fgAfrE76ct8LV+nv3PRU3pEsOabhYYYzx4EVRTySzl+Kix2J0t9V8c81AFdoxL76XdytJftf/zHFKr7VYsMVdmMrbDK4CvJdAVwBA5aJ+eKqOHWwmQnyLd2k3IYAV6IYlXujYXDbCB3OaGAzQuioEusKYaYLKfEX3wSqHjGEuaak5APTmikkj0YjbQgYVAlceempCLx5a7hnkGQgoZuywAX4H/HqO4WhkChJ4cFc+R4lIPfavOklxHJs0omuCFwxbqH/8/Lv1CAxGshidi4J8zUwyqInmEAEk4FhXseMNm+uSHy1DCYt89XGKiKvrSEJOC7eoaSaxQB23zCBQwRY5L3KTOBKOlE0nClXta7eM6rtCBrD1C+J2aoYXN0dHwEyYmCbo9GVZYyn5UPRUDC6InDls4uP/19fVDoQaoP8B7BLS5Lqg6vP3Pikv3JsGj5muLPlp68lQq1yfpY0gMGVl3/uqV6ZqOiLdSXqrF198Q17IO9iFYeruiJrji+aHK4s414iLIrhrrC0T5KvabBjacl0OHUAnAhpIcBVJDUBcCUgUb5eMSYzEeTQTSHUnSzO6oVBESFB/sobmKoHxz0oRKzRms7JIiQDAa4C9FRwxV/DTd22XbopE5N2+x5xUzfuKKIYz81YdBWNIBCbosL8jxFiVZNsERIj4PDF3EIvff2lGiRG3akyNmYfZZGBN4AQuCLR1Q/zKxJfXbt27Wc/+1m1Qr777ru3b9+uvs6vbJsEHBfvEP6alcxRSTwQBiK0LkKEZjvKDHAlhhIPTDfHUEtXq+0IOsjUj5JXUdW9Oz4CuwjD3ZGwJISGKJmZDgSnMHHEkqHRFcwU/YZz7LPJiCiIhzOVxdpwdeuT/soJh6SXGW64+OxHeeWAIHWyBphB/rnxr6tSDcYsd9CEMz6IctALjdi/+mW3GH/XbBJoKriqzXdFeKoolw+RH6N3ojw9kI5751u3x5/MM4op2FzOWKmW8Jt5vDfX1IHXZ4kU001g1XJnYUD/M2sCe9Pjiualp6pVAzSENAN2RtV4hM2eBW8mNfY7YS8XF2vtYhXJFlMTh1uI8AYxIbjkRkHKoiXbmq1QOiJCa9QA8dWPf/zj0dHRql8Jv3L79u2///u/Z23h/zeBBJZqUVKB+pWBQcqz/5wqM9BNYUa0JevJtwvfqjD1rjYHQjHllMd9ddUPPlLVBW6qh8AbR9SMCmXJ0h9XgMzMuRGYzKrtwjUuTFzn8sMRrjuzqnJHw20PHRc2B6cBuE4guoPLwD83v0J09aW3YMN69b9f/bL9XZaHp/3i/zWTBJoLrtYsGWs6Fz+w8T9vbE56qjVLid+4dyUA2wXDoaFCM7C+7d1R4D1fnwR2CVzZS2ZlrFCmv6Fan0i8dzclPZW3gfw9l0CDErBmS/n7OJ3e4A28GJdAk0lgt8BVk4mVN4dLgEuAS4BLYGMlwOFqY+XJa+MS4BLgEuAS2BQJcLjaFLHySrkEuAS4BLgENlYCHK42Vp47srbQTnu98MILO1LQvNHNIYEt1neurhs17ByuNkqSO7ieUCj0/PmNHfTvU5/61A4WN2/6dktgixWeq+tGDTiHq42S5A6uZ4utd/24yO1/B2tbEzR9ixWeq+tGjflugCv9TjJxU/f8RHKjhLNX6tli6+VwtVmKxanrG5PsFis8h6vGhmXlUrsBrp7e/oM/uP105b6uqYRl6M5v9ddUwQ64aYutl8PV+nXCMvTpyqu5awXNe5zrplLXL5n6tGGtSEa6/r5tfg0ehb988SA+XBShjguXnz+/8eTCfvoZIXSw/wkkyZ0y+y9qnpy51t9BC3gu1kqqc7jaqCHduXBl6ffTypFopCsSbqNUWBslFDh9ehMr37hmblBNjvX+rPLbQx9s7/ll/O9/77lYvrZ+aNmMGvaq/fvU8sjvDR6Q5DywtW0mdf18JXdKjnZHIp0hqWuDmLg3SG/XXI2j8HePU5R6/vx0PwI0enJhP8EtR2/vHkfo+Gn4ONbDAIxhGIerNY/Bmm7csXA1m5dbEWqLRDrh6HXC3LgmCdS6aVMrr/XA7b3mWO9/uv/Bn0P/44c+cewPP/frf/iFwbvalx2jbao3exSu/GrpwNVmUtebZWDwEcPdkdA+hNp3G1x5tfrucdQ/doP89VynMOa5gmMpgK79PLraYsfVVHDFyOltYHBPYQb37D3NtCz9fiYxpKZGy/pcKT2oZN54u4rV2/LdsmTbi3rpWlLpldUzWeDYtvTgLT94pt3P5+9VTFMvjeaK33s9PaBkJkzb4QJfsu35ElycfEYpwx/rpUuKcun1R19NKkAl7mEQr2Lgtk2teCWp9srKyXR+Ap+Y6xLev8VqMK3pQmpITd9/OnWzRp3aqBofzNAD2jdNNRy4+snNXxR/7hf/7HuXn+hNGlcRr7FH4cq2HW54y7bN8URIkr88xujhzUrulJK4WjYX9dLVhNIrJ87ly+Tg1znMN9+rJi/BFbcS5xZTL93KFSYMc66cv357/JWEfKqgWx72etvSb8JF491S5oSSuFrSH+cTA4n8w9cyw/BQY8m2prLqQKpk2LapFc4nlGNxpvnVdPXAq1C+llCG08UfTQcN8212xbTt+TLY+4RpGyuTYjduH47Ce0Do8sWDEF1BLEVfOPWn9XegnrvBFN/pftRzlycDG5f4BpVsKrhiNGvz5dSRiHwul7+aiLSGP579QqxNCnXHogek2Jl0XJLU0a8o7X5W70u3Pu25JfGXTwrDkehwOns9mzkBHNv5h7eDt3zh0q91hEJSOD4Qk9qgALDv3DNMygXuoeQpPMocEsVWSb5ezg9KkvJyNav3s8cBBu5X38wpkR4leSWXOyeHWqOZSdgLYoypoVZRfH/ys78CZOGx8/n0UUloQeJv1KjTtK0thqt3XgozW0U/90L/G//PCkl5j7Vvacm9CldW5XxUahWlgbxBqdF+7Y9G8JW+bH4kKu5D6MDH81eVyJFE9lYufUwSj2a1p6XkoYhyLpu7nkkeFsXDLxY+H7gl8fXbiXB7SDoQU46GxCMvFj5DSOb03FGspUDcYxHmuTe/oYZEUepOFcfT0dboZ65/MtwqAkfivE2Jct41iydCqCWsXsnnzsQlMZZ587UAXT0cs7tYSR+CypVslS2f/5OPYutOT1r2XEHBVrnZcAVLVjjj56YHSeoPMKmnn65v0bWrJxf294/deM7haoNAqPFqmhKubEu7Loe71dyDUrpbjI78yUclhFpDUoskX8oAqLz6tHK9itX7QSraKoQHU2qXGD3zyse6Y4mTsZAUip9KxlqlxDefBW/54zdfO6/EeqKxvlT+sUnJ4u4ZNnCBh9ABD1z95aPMIYR6UuU5yhL55PUqVm+rioF73iyNRCUpkrieT3SINF3JCO/HX8vERCT1RMJHUumBkNSXr1Fn48O4vpLOZPPJzQ9++Hf7v125/Oj6/3YAoZ4L538WnFduKSzVg8O9Cle2NVdMdgtinwNX8o2JYrIbofZopFNOn41L7Yni3+m5gZAgxZIjcalNuXM3GTmkJnvDUls0MSJLknzje1W3PClnh2PRnmj8ZK48T5FJs2zzIdNzBleP/lKVkKTc1IxJgKv0o2nHWBxeN3MyE21B0mBBnysm2oFiGPi3vHT1eHuIcT8VEUT5a9NVhjn11nVZagmnJjxwtT4ND9ztKDxRMMAqtqviibuZAsdbf9Xfgde0oKQLYHgLBoergFg3/2NTwhVwuoeEzlisKxzahyLnK5D6eACcvLkHeRIDWY+DrN5P76mhfUjoiMfbhcjnCy8elsLdYUkUw4OJWCuETdW3mPO6bliErUr/IaMVt4ELXGr3wNU3n5ZOhpAkZ6f0wqAkDRZcbtZFLXNICJ0qmYssNFyy9GtxsTNZfqZnDyOYZmK4+sCJ3/mQl/D+aTnVgRASlVuVwjDAVY06t2oXlmO9P6n84SMNpwH/3z/8w19AB3730//pH5oCnwK4tWfhysamAdriEE+/axaHYfk2dLJYGZWldrX4VMscFoUWMdobFSXldjknt4cinZIoYj7S1ni++pZ525zTjUVC4Tb1xmdxdAVWx9jrGVxNvZ2NiULkVFGfwHA1BYSo2Fgs454qiTHgIx3Hpjpj2fMlmKiN6j66+p//jY//Rix+IluaKqgHMJhV2bL5OBsFtlXTguU6SRnbYKoFR+HpVsDaOyZIevB0v/st5ACve7cOQi6iOlUYNJm9q64bDWDNBlcIidHkN59gC5RCmMB+GbjysXovGaVTYaEdw9X5t6avx0VBlLoThYc+hHNvOfcnHz0gCFI8ey8rd0Qzf3VbFpHQpeZnHAtkhKcQXYnQDELhSuHKx+qd+Maj7GEx7GXgBriCK+Z8+f9j7/2iIrnOe9H9wEM9zFqpB9ZJPfBALfNA3cO6l7qLtUzncJLQCY7pZJJQ53BsKiY2p0IiUubqjCtYJi0cCZWJjFozNmozEmoxY5JGY6QeSYwaRUiNZoRVzBirmTFyoTlIxRxhuVCwVfFhyXXsdqbu2ru6qqv/8G9ooKupXrOG6l21v/3tb39f/fa/3j/BHF05Ce9NuKoLSptqvMeGq2yZ06q+npRM3rxiN7xTnh293/uL3wL/8bOvfvD0L5Kdnz3lja6cRiqN6+3gqsIXXtaUSQRXm4a+HAlUpuEqhqYEAE5QnRFpGgJJGq4cWaae46lTGN4kxic4quH+i39PAUAEhqDrButx/0jWZCBh8ncvZeAKx31Mm49C0QqaQzde4glITg+Xfm24yqKr39TVWZFp8pEYDsdeCK4ygTkiQ7jCCX9HgK7BISLgTPSdDXkxTZp68JawHT57s99Fe39gZiz1K8fmi6ydgd5k4MHbYd8SSgquVDiowghmYiU55MMxnO7k/TgaXaXUWDcJ/baawKqYyIoOXTyH1RutDKGQIdgpVV+J+HHYL9PS3FvbAAAgAElEQVSt6e/cLP84+VAzCgaA0X1xdVMSGnCM8IdvLIVPw3SyHm47xKqZyNtLoQa4PYqGwzWCGZX1fAbxZ6454AqNrja1xIAPx0m6nsQrfeICmgGxCO+lO1KwDkMQCOf606OrbKZwZmJF6qcAwcWL3LnM9RI7ej/6QednTZMA8Nt/5q1d5Rrq2L/razG2Cpjc83Q1TrSEkptwKgJvCSu6geCKj2+aK0NoFbJRTG4Z6hSL4wE47kFTFAiusrK88EaYgWIBwChuSlkZZwgMo3rit68IcDGzkqIbaLISp/sTt5/jcACIepquwfEGIa7CqQgM4MxYUl0M0QCAuuDsZZ4wd9hbcKWvZtPVo5/0K1McAbA0XGXHMoSrCkB2R5X1hFADQIUv/OrFwCngO1scvi7b4e0fXaHKw52BcEXK/JIZNn3l87kpaPzkTQYeeTyUFFwZhqbINgn3kqxu2bTWkHgbUm4vICZvk+baYvW2uerhXMZyMglZtw1Ilb2IqLVTmrKELmxib5OT25oGtDm801TfJpU4ove2ikPk4iglTT+/Hau3k4EbTeVpq0lpIcPwDRXflKGGeoYFXHv7yuSrtwsxhRtHPLqCncqPHrvx5sO3PijRLezmrODJnV3RVXkBEs/Df0uK+aNdmx4eupY9FtcQAbz5I2JNSadrSnJR1nSjQBYYHUnLvTVlSVY05KtWcclVs7+lJM2URUVDqJP2Z+jtVrRapZj09vKm+ZwqL9p09eg9l9KV5ST8DX4mMLVbL8Rmb6OUJdncTauvyTBCUTinkw78lrThynSnw/7/5LrrgVsqR0CJwVWOdifjqzrFkvWCZL5ZjqPKRxy9B387ePF/HG5y+GWi7YKB8UM/UO2IHd5z12K5jgdXxbLkAeRsyfGpRPqXWQcQc89Zjzh6Pbi655Yq+4zqfAz+SvKQP0fs8B5cFas9PbgqliVdLOeIo9eDKxf7SlmofsQO78FVsbzGg6tiWdLFco44ej24crGvlIXqR+zwHlwVy2s8uCqWJV0s54//+I+/6raPi83tqX7cFjh6hz/uGpdJ+R5clUlDetXwLOBZYI8WcFvfbN/6HnwC4xgl7NCIHlztYBzvlmcBzwJlaIHynp376le/eoxgc/Cid3A4D652MM5JubXvzpvbMpyUhvTquTcLeHB1cFA5PAk7tKEHVzsY56TcKvvoPSkNmVdPZUrgJw79Z0x5xZZ6Qtk7/OFhyRFI3sF7PLjawTgn5VbZR2+5NeSWqqxrRkrXVnc5Rk996R/6Ltw+pOrrqgLPpHDhJ9fhV0MUYONWReKd6TOX2Ol0kjJM2dfxTkANK9azhmHEWUCFVu0EJVQHRdlCQGdasJ2Szg4LNT/O7IYyTNlZbKH7unBOBiZvnh0avv/zX2h7dfaxb4bu7+j888lLQ/8w2PPf2D977bV/fGToy8/FHj4CBNpXETtU1oOrHYxzUm7lRq9haMux0BmWaQ0w3cHInLu75/m1c3e7akmxmaRqaW4kxNTSwnyBH9VCzs92P2SsryXIrhjklyraR1dmRLbFR9fTVBVRZBbvoim5iyCHS8RZC5tMVIFoUReCcOTAsHgnRBR4C30suFJCdfl4E2frQtcykAOfgVA3zabFQnhj406Qs29NW7pYCLdLNba57YSrCy9en5x5d2bhXx+/8Mb5525dev3D/nOvfiNy/akX1774tUtfCc0FR2/sC0uO4OFtqgWTPbjawTgn5ZYjeuHJb/I4C08KJnxsNxeoxwAAdH+iqK+84hj28ccfV9Ws039VVT137lyO9Oza5dx04deUGu8135tEYFjS8qFIl8MtGMBIuoHCAcA7iwpXkNEDgCp4+jMAwP1wZTqACSGGYVjokuUXEIHs8ZQyTFlwZT6khOocw6NpNvsuBDlqWHHminciAMsUYZeOkqbZIo6unox/vHwndWvt18n3f724+qtzVz4ZmNz62oT21We0/zH2b19+6uPf/cqtI0CgfRWRMUzeVUnBlYMke1BgWvnYexvSeJBrDzBdQuhyUksZ2kJE6GTY3lAcEiom8om3taV4dDIhb2rydCQyp+qrcThKOM3wg5HEqr4jIX3yzvdzecQzKYauTFqM4EdCSJ/XUoeYkPVCV+NcFQBNYtLstetqrJsAFb7QzTvxvoC/jee7GKY7GF2Et/U0qzrLD8dkDdKfsy0B7gzPtrP82bhcoN9ftFqMjo4CAGpqan7605+aQn/605/W1NQAAMbGxpzFZNXOecON13oWsX2Gxt72T03J5ZJf0bWlaLCbYTqF8LQM4S2lydMhvoNhe4KRGVnbysvyzoY8E41OJzVNSYxH4j+4KnYgBnpHxBmbCZi4uCFPCGxXMLasJIZZdvjqjQvo64pupNR4H8ONQfIRdS4sdDGBNi44irxCk+NnBa6NYXvF6EL69DF9NSZ2scL4HsPQajxdiZ0JMAP7607luYQNGDkze6iU1RDrmP1zAg+6nQVXyjDrmBiE901wckJUroTVEOWAQzgOK97o6okX1Wde/fjRS+oTL/588J83Hvqnjx4Y3/ibkZ/cF/7pnz+y9vlvfvifeub2hSVH8LDVtAX+lhRcJYLNNNMXCrYhGpDG0Ow4pKDy9Yajo7wPx5nvRIMtPm44Euqi8Prg7LSQS7z9rhxqIclqgm5n6UqSf/ZKsB6AakYcj4jtJFb/wGR4e0L6xocmv55DCn7fU0GLa1zXk0M03hiSt46IkL5AWx1akjN69UWRAhgzYfcmDW0hSAGc+e4NyDYJANXKsk04wAORH1wV6gCo8rNdDH0K4G2Rmy/zsOVwmmn3EQAgnqTDUlpV1erqahOxVPQxsaqmpiZnyOWs3WFpc0RydWXcSWx/LjaY55/vxljEHC9MhJkaHAOYf3jygRaaGYxER3i6kuJnNuQxhm7hQ6OR8BBLYSQ3nkc//8jwn9WSJEEFOvxEFROdv2RyompzmYhLs2/HIBUcXkkwY1K0kyDY849/FlLa+0dlXVciLTjVJ20sh/0YIFqDkYkQV4eR3S+8GTl4GFoWLz5csWz22pVz4QqOv3YaXaUXrizlMnOA28NV3niuqHA1M//ju3fvfufyzbt3776R/OCjjz/56ONPEj/8QP/Vv488f1P92Sdtf/XgESDQvorIWC/vqqTgSpch0Q7h6w6Fe2msVkjcTsAXYg2fWFei7QTZEzenPrQ5ATILv5NPvK0rl4NMs8/XworTim7o8hgEvMCorC4E6Up/+ObGDoT0V3+cSwr+wi2La1xHjOAQrvJM6P4E5wsdgRPBzWRGRpAnDMMCT10LN6dp1/XVSADHTz94HwkA1S4EB4NcMw4q/CMX7yMqaMjstSWHGjG7vQ7JQuvr65/61KcgMxn6AAA+9alP2YMtu1Bn7exEt1+ol1miin0hmeefmp7LJT8ib8wFfZUY1Rnk6nHf4Oz5Npo5w/mqCKo9yDfgVPAqJJsHON1I+XpFvg73f+vNV4ZYf6PP3x6MwmkMi2hbV2yq+3QiZC4FoDEoIRJIojN2+2rIj2Owp6IrYQRXmq7GukgAHUOVR/x4fVDa1I43DPNcwjm6smbqrLWreGdmF8ZucBVnnQMjuBaVzrsNXEGsypk8LO7oanLm7fH4Ow88MfvUS+88HLn6ROzWxWff+MVTX//l19sX/7L5288l/Z/7u31hyRE8vENslhRcIaK5Jo5rof0tFFbLJ25ZcWLS+FqLxmm4ytD+Zoi3jS1VWYNEPNqaLK9pyUEaQxijL4p0pS90Y2UnQnrIdAeHBxkecRWqBLkTdU3qp7AGSHZXfh9n9EIowoBvOGlv+YKk5oDgX74ZbsYIcyFkLcrg2B/8f//ttwDAa2lfow/+a+GefuY+AqPFJdhPCDVhRHe6e3F4Fvvggw9IEvJ2mli1vr6eX5azdvl3XZoC4Qqy+hbwT5OcF1T4wwsJkwv4zjRHngJYLSLaFq9d7aeJOpqsxPBGjmvAzAGQDwBnFm1TUSxCOOXHVhgakIwRUd1bRNtX7iR6SUAw4SUl1klA97AJiLegD5BnEtoWotXuk7SUrowi5lJItA1ABcWNRfla/Pd7/uqzLWxwMikN+0wwO+wwzHMJG66cwyNzli9r4WoXuHIuXDmwKieXBV2FsMpAAzIn5u3fQZ1bLabfuHX37t0nX3rn7t27125+qP78k//z4Z1fv37pE/3fb7fXvb2itn6h5H5TvEONSw2uCFBBBrpZugKAagRXOMAa+OgKCoZCcJVFvP17fQ9+Bscwkh2Piy0kM75yfYDCm0Jw+jwDV9sT0ptw5SAFjyO4wuoYppki4J4DQA9IG2tHQUi/Q5sV/VZW9KbUWBcBKih+XFI2VXlaDBBoKQu9YrDWsLxlqNM8UUE98N3H/BjmH0nqKV2e4APt4kuX+COGK8Mw1tfXq6qqqqurC2KVYRhZtSu67Y5DoL4S5eoAqEzDVa5/3gz7AHByyespNXGGwmoQXA0ltUXRdwrDq33BGckcAG3k0M8Pfvtz1RhGBMLTYabWF/qXS3COop6LZjqIFlzB0RWOSLFVB1xhZCvrrycRMTXBP3/DQbTtx+sECfrSQcPQ2mOCGFlXTKrIvTZGnkvYcOWY6zNHV04EQuJ3mAw0NxDCp6yRWUYhe/tfemcgXNPKHVeZTxd1MvDZVxa//6MPH45cvXbzwycv/3D6LeXalcSm8CfKEw+9/ke10VdX/uDz3ugq00o7XwHnbQB0k/PeNxiP91FwDvA9SahHhPRm360QXGURb//H+x//WxrBCsBbREnTkzlw9cONnQjp83nEIVwRAPOH5lV5LAC3y3W/MPvAURDSOy1z2Ne50bsphTut34QAgDUJsRXd0FGPGPbBoYGJzqiypUlnGTgaJQgcIwJD0p1XjgGuYNdVUT744IPtrJRbu+2ec0+6vhTyVWJ4A5xVy/PP+MbNsC+bS143DPUyhxaECXZKNbaSYgNGnUlojuWlrCz/OPlQM8IagNF9cXVTEhpQGN5YCp+G6WQ93BmIVTORt5dCDQDgFN1AETjBjMq6JgXrAGgQ4mtKrBMHAGOeueaAKzS62tQOHIbWwB2O4wF2Oqrk75DcvkHzXCIDV+bmQDRch/v9MghkSdserjLjMPsnVkhOGpbsRIhSEM+cH8d8Y1Hh6rlXf7Cp/fI7L9xSf/7LK2+tLa1+/PaPP3ztxTdWF2+df/qVmYX/9Rm27wjm9/ZVhGXpAn9LanQF6bNlRHqtq2kab0RIr+mpDF03rMQW5PBWdYtI3km8DacBkzYFOMy+jLYebakyymIYUFRhQnpHKfpP3ow9d+3OlqNcXZOXII390RDSF2irQ0vKi15Ykq6p8rIMZ4TMD4QrDD8dis9LEiJQT6dvqcpKmgfdQKznKpwvRX1eky49/dyx/SlYu2PTpjgF6+pKmqjeprE3LP90cMkjNnpr5526nISxkBUsUE5yzUk/b2VJmaMWK/M6YqCHiZI0j/4tyFZDp1PkdeQqKGOa8F5TUCQimegujOtlBemwtzB8b3byhRsbjsDMVDNtSVPPA46uitMqJSLFORn4vZnrP/u3Xz4+ef0jTX/xzf95c/VnN+SPJl+//aO1//3Nf74+c/2Dz7DeZOBe2y1ndLXXbEfwnL4SCVT7QkvWy/oIijy+Ivb0QkdwlV67Oj5V76HkPdXuHuR6WQ7fAuoUS9YLUmbfT3GKLG+XcMLVuYsz/73/KYZ/nH94nP3Kt/964Gn2K090/l24s+87/+XLZ7/QN9r4p/y+hj5H8PAObVxio6sdND3iWykteTkmZf0I9Yg1OLri3HZi7b71PTpTeiUV1wJbcnwqYY/wiyX75MDVhxsTK6ujK6uj76L/zeuc/48AgfZVxA6t7MHVDsbxbnkW8CxQhhY4OXC1L5wokYd3cDgPrnYwjnfLs4BngTK0gAdXJYJMBdXYweE8uNrBON4tzwKeBcrQAvueTXZbhoIw4JbEHRzOg6sdjHNSbrktGPetr1sCdVc9T4pHHnI99+1AbstwyPY7NvEeXB2b6UunYG9uZFecKJEHSsdnXK1J2Tu8q1tnB+U9uNrBOCflVtlHb4mAzcHVOCkeecj1LHuHP2T7HZt4N8NVSo0P8OGT8dOoQ3WQso/eg+NEiUjYrxsoUwI/4W52zf1WeS/Pl73D78UIbnymBOFK19bQWQpbqrysWCeDFbJtamNWFJ55u9Avebfk2Gg4vlroViFJJzzNGb1ZR8Ugu+SnQMJvi6Enn6s7JyXNv2AzpVpnVNvcrBa7Dzzx03loTbpR8o9f22drOX816UYucCdSpqu+pSrrmpHStdUkPNxl+4/60j/0XbiduZ/S1TV1p5jKPLqfq5SWnAxH5lzzK0Wnw++nnu541lm7H72z/GhouKOTfT3x+mNnQ+xfspemvvew+PDn/uJzb7zxxjce/cblFy+7o1ZIy5KDK3WKpWooqlWM9PnItkiBnmFKTYxwgSaarqfIKsfBE5vJyBkGsR4I0dcRQ4+DBcNFTXL0qmb8O+sgTsSRmpVinWy2GqI645DpwPzYB0jnp0B6Oir0eohyolRn3HEGaJrdznHip02Rl0tMfm+WccKVG7nAc+FKS4rNJFVLcyMhppYW5gsc+aCvxILtfl8DTdcSpHXSpmHoyUEfjqHTAvdzwl5hs6fDEJH1PH/tHDqydifkLCzleFIzDn885R9uqc7aXXjx5uTMuzML//r4hfnzz9269PqH/ede/Ubk+lMvrn3xa5e+EpoLjt44XG2KKr3k4EpfCgfM0zXr+Vih4ZE2w5MAEHU0Dcn5EF0FtIgmDdLwrM0GmjwFwO98seW3s0ibimq0chPm9G+rbmnWOOeBnhbxATy1mp22Hsw/kTMrJTMOS2cwuVMdzziLMJ+xC0JfncePWoXu568TrtzIBZ4LVyk13muej0oEhqUCQyVdDrdgACPpBgoHADc5X6DFEP1bBe4/m2GH2Y8hs57NCsPf+qMv+X6L6pc8uMqy0TF9cYbzHhz+nWNS816KLS24ymLptjm5NcPYlMROSL+dYfvWkpEzLD8iaapUgJnbJJSb0Sx2dk4YjkrrOpRj0njD6YsQ38kwXYLYzwa6zr88lkfabT/TKYQuJ7WUoS3HxB6WH4om1xVI7P3kjaVJkWtnYMqmYawnQj0sP5JQlqN8Bx+1sVZNBNsDwlSGn/deGuow8zj92yonDRJO5LBxJYuwzgE86bzOlGzicPgAumuLslOscuEB66E6NLBLJxUTrtzIBZ4FV7qSGOHZNoYfhP6cCQdDVyZ55kxM0fKY7Fd0fTUeOsMypxl+MJJY1Y0tJT7MM+1ccFxSdT3NXr+i66YDn03c/n6Y7+TEGUhwmharw3OlE6MC28Zw/eHYkmboVkGagU7rh4QgekqTp0N8B8P2BCMzspYycovOiynYyJoc7WPZ/qj8biLUDYNa3VKlEZ49E0n+2EpJGfpSmOsIJlRDWwyxp7nI8r2DYyGHdzigyy+dtduDw19zUXVLCq6koJOle2LCpPEWF3VjPcYSBDd9JzmUw0+foXAswMwdfUlootnBcGQsJDTjeHNIfjdNNKcthgL1AX5IZGvhfBZ15vmRPNLuO/AZPzcQjowKfoIIfOv5+xsIstbnbyCINjHYhNd+sbelkRHHwnwjTnbHb73AkThONATjs6Kv0gdZCs2P2+DKXFUyyXgKwVX2gMkJTmZ9HSlZ4zB4Nz3RtwNc5Sx9oSzWJGTaoPv74xxduZEL3AFXTyvjLN3Chycj4mkCbz0XG0Th0BFVdT05ROON0MPNqBEmwkwNjgHM//jkA/UAVDPieERsJ7H6B54Ps75WITwW9BME88y1SGuarl5dEH1VBNH4wMWv54ndVGPdtK9bDI+FQz00RjDR+UuZ8ITHH+NU/9WlMYZu4UOjkfAQS2Ek9+yVYFbRwdm57Jgag5P9kBG0CscJ/2MX76cqcbyWi4zxFI6BCvrB82YKn9g0tDmerAxE1wxtwYOrnULACVd7cfidZJXYvZKCK8s2W0mxEafF65CTu4IKLthwperrufz0cZtxOI+Zu/OxL9NNnNBGEVU+vo8hCCb6A4sXNaXGuikMp9mhcLAZL0zabRjqFEcRhK8vGu4gCPbbQ5/FACDISkB2h8VmnOozj4pOvyluxCDrLjshq4vZcGVVq2T/Ov3bVtJcTCoAVzkDJgc4pfM6UrLGYRCr0szi28EVxCprE4elSTFHV27kAnfA1UXLJgZkE65iX0jGhQYMh2zXenIQwZWmJ3OY7EeWlsYgvWJgVFYXgnSlP2yOSyyyqzvzJl19Up4O+jAAGsXrP84T+16ca/DzvX6SIANnBH8lwV/ZgAWZ4WnCVd/z59to5gznqyKo9iDfgFMDEMByis6KKXOiMqVJw34c84d/uBLtpsApyldHc0OCr5IOXluJdpOQqdUBV7YR7vmioMPfs7RSy+is3V4cvtT030GfEoaroaS2HIYuu6Dpa1GmkmAvq0Yqj5/ehqs8Zu4vRUaYGpKuI3CcZHoZojIQXbDgSpOC9TjVyQUa/IF6CFcFSLtT8BUAIENdNNKBiL1TkEQVso5PpmlY0TK3CVfi9bfDfhyjz8SVhXKAq/xZOxO6cgdMDnBK+1kmxTkOy2AVfCzzTIa/tRBWmQOyoo2u3MgFvi1cEWk2YQLClSb1U1iDmNwydEQN7GCyX7o+SGONIXnL4tQ2x/26EmnFIUkjIlTEa0iilhGHGKKSia5p8W4yS+yGHGomKMjBiFOdvL+S4KZVfTmEwtOk7sSpB2av9tNEHU1WYngjxzVgVN/Va7lFa86Y+u0//Vv2swFuKJ6cDVIIR5UJBrJ/NoiJ+ZC/EnZVlQmGqOETm7o6zRG4P2LPse/wVtvtlvOFvtuz7rvvrN1eHN5FNSw9uEppiUE/AQBtwhVO+DsCdA3afYEz0Xc3IH2qk5/+VmxbZu4rt2OdBMAJqjMiTaOZhAXr4bevQs7TKj/X7cfM5ehNKVifTdo9fQf2WJtCsmYRe+8IV69NcQR8gxj6UjZc6Zq8uMuG4+P1GNu/nRNx6a16uTsDlVBdNng4gCddCzslQxye3riRqWZme7q1UpUpKPMUuirm6MqNXOD5cKWvRLk6ACrTcIXVMUwzRSAWbXpAgmzCABA9kAU4WI/7R5au53Bq58NVLQCVTGRZU2d4OAmB4Cpb7NWbTwZwDCca+Nh8lIEz83lw1S9pi6LvFIZX+4IzZn/u6rXcoiFcZcWUrkkjrK+Rwk7BYR+CK4yZVLTlsA1XOO5j2nwUokMGzSH5J0pyIalAFtB7/NgOf4/5Szubs3Z7cfjSrk2WdiUIV2qsm8Qwgp1UYD+xApDdUWU9IdQAiFI3N+LdJN4SVnRDmYTdrvh72zNzr+jqFIvjgciqnp74vmU9/MOVyGkCwyn+ciLUhKVHVzmk3ROKOs1TOE7VU8QpROxt6Mo4A5GTIAmc5NK7J9KjqzcnORwAop6ma3C8QYjbv0JZiwZOAd9Z2VrLymqAUvji9G/7V1bWz6EMOyVN2m1vWzdVt8HJromVkiEOtze4mxvf0XQfhMbMPvjMj67MtMzOQziFmA2QdkF7u3CuXbmRC7wAXC2FfJUY3hCUNtFkA+YPzavyWAA6ZnccwhVO8nOagaYQ9gRXdRjVD2e2tVkbrgiQI/adiB+HMxx6eiH5tjTkAwBgNTRivqf4y6qxlRQb0Eb59ExjPlzpeTFlGCkt0UehPiiEK9zs80G4os3RFQZwZiypLoZoAEBdcPY5jgBUcKHADv69eYThdPg9ZnHRY87a7cXhXVS10oMruFPI5MyGFOryUvp3kPoaot9G1PVJxKqub8omyT1kuF9R9QLM3A5RiJdd0430w4YBsyMu8DR9eAHSbtiO8LEFKU3sbcDskPx7IWu0BGUuq7qmJBcQEfiiRQZvOoJ7Rlcucty9q+qEKzdygefDFQyMlaTpk2nvhZ6qyUtJBe7TU+VFxExvurSqp/3TMIwtdCvdb4JCIPO99Rg0qRUmhcTCSQIoP6UpqCBtNQljISscbJ77tPCCRefEFCzXinQ7qA3t1suXZm9vZuIUPrSMag0DzRtdbRsBTrjai8NvK6j0bpQkXJWemcpbI6d/l19NnXDlRi7wQnBVfq2UWyN9JRKodhwCkHv/QN/L3uFt6+zF4e2HS//Cg6vSb6ND17Dso9d+47uRC9xW/le/yuwMPHSfOPYCUlryckyyZ9SLqk/ZO7xtrX/9+S/eu/Phe3c+fB/9b17n/G8/XPoXHlyVfhsduoZlH73ON76rrw/dFU5GAWXv8OXajB5clWvL7qNeZR+9roYop/L7aFTv0e0tUPYOv33V3X3Hgyt3t19RtC/76HW+8V19XZTm9oSUvcOXaxN7cFWuLbuPermN2nvf+roaopzK76NRvUe3t8C+HchtGbavurvveHDl7vYrivZuC8Z961sUK3lCysYC+3Ygt2Uom5bKqYgHVzkGOYlfvbmRk9jqJ7jOnsO7tPHdD1eaFOoRpU2X2r8k1PaitySaobhK6Eq0kyLraLo7ph6cjLG4uh23NM/hj7sF7rH8EoQrXVtTIKP3liovKwXY53JquiVHhyPJHQ5kSenquqbrmrKyB2k5wk/GVy96XdbOW6qyrhkpXVvNOl0lqxZbcqTb7zvNR5Z2iI2sHCfni8PhM6d/Wed+2RzWGdI157HODtpr02A2+bX5NX2opn10WeHDzAwDEWqbJ45lCoJsb8OUneXeWsRRu3sTULq5Sg6u1CmWqqGoVjHS5yPbIpAPp+DHyb09ve1TsPknGbyCZM6wvtPwUOptPoiGrjuc3NSks6y/0edr9PlaAmyvGJmzhKvJ6BDPng4EOnhxQoKAWi6fjH/rqjQZEhBrZXga0utBKr+ziJRvMCpb7z1tTuR6o9AuKS0xxLJDDk7bnBRdjvZy4tyGMh8Ve1hICTgWR4eT6upsmO8IMF3B6DKSuynHRgSunbkXajMAACAASURBVGHPhGKL9q9DdeWywHSHk9s23O5tkKmdYfzoneVHQ8MdnezridcfOxti/5K9NPW9h8WHP/cXn3vjjTe+8eg3Lr94eXeJx/uElhSbSaqW5kZCTC0tzFutYmu159Cwc+xwAUkR2/noiq7OBJkmFBdNfkhqOmmFgK5K40GuPRBoY4XhmO0kO8g89lu2S2SwwTpzOYNG1tGXkBSgEyKKfcqlSQWHeETz8QayEFzLQI51uHPmBGfzDEwHyNm37KM1c47l3Ke97NoZ5eHwjuqXHFzpS+EAOn4d1POx7ckCsri3cSa6th166PJIAJ5VTQRCO52JqScHKUiro6rxLgLgPq5fDJ7h/DWQuzE4r0E6R6gV6e/kuVYSnuzZEjLZrhzGdOul7d/yqB8AzH8mHBliiAqSv3I73kuCSr9wVmRrAG72HlJavIeiel+5eSXEt8Jjai16dV2ZyUkx9JWwvzrw2HMP0QAQp4OR0aC/EtAD0p1FkcYw35mQ2E4Cgo2tqbEOHFTQ/NlIqIsC8FBwQ1+JiV1+aGtEd3TPxrVrZxjGhRdvTs68O7Pwr49fmD//3K1Lr3/Yf+7Vb0SuP/Xi2he/dukrobng6I17LuiIMqbUeK95OjARGHZ0FKzi9xwaVoYd/2pzvElqpYwHMEAEeoNiP882wdPR/WdlXU0EG2E0UKc5rgMSKQCCOQjP7466FO2m0yUsoSZ+WPwAMNU+W9nJg5Phu7EyOrNAZhwLzNL3TWo3J8Gbk0MOPWQXhL45YNIqYn9/nbUrB4d31L604Epbiga7GaZTgF37LQe79qYkdrKhBc0mwIbnXc5FhE6G6xX4Ti7yL6+kabNThrGZgAz3ixvqbIjvFcNng1ynALvw6wWItC1TZMMVIgeCt9Yh4Yjv0dmL7Rg4FYismKCoy+MMBjBmonT57K167emv7d+JQQYSqOuGocZZAvgeefJLVZhvGJ4lD9mGTvlCy7qhSUI9yU3fkccFrpvzV2bgKi/FUMYDZHPozUmBaYe05UZKibRi+OmnnxcoAEmMEJMsjgeevBLuCnBjsCBtXiAh6Z8Gmd27ebYRM5/cU00KPWTXzjCMJ+MfL99J3Vr7dfL9Xy+u/urclU8GJre+NqF99Rntf4z925ef+vh3v/JOIRklk6YriRGebWP4wai0rkMT5bLU66o9kB0UmFZ+4vK5XZ+JrenaUlSEoceLEwknN0cWXCFyA2gLyMcIsNbzs9/yA0BwU+kZCG0x5KuAp8LvPod/rBZ1ukRakdUQBYkCnMhh4VA2H6kTeFBe6zHzyzAbWs2qmwlOTojKlZAu2spVVLhyvcNbVjH/lhRcScEWmhmMREd4upLiJyYy7NppzgJVm00TYBtrMaYSgAoMVBC+3si1aQHRZsM3IMQYgoDcjLV0oN1P1fuZZgJvDt2IZ56xibQtaxSCqy0lcZYhAM489RxfDYiueGbJWo1zVYDoSZR4WFq12+VvXvTqMiSBJYXnprgqQPbCaupLIR9G8DOaviDSNXD0Az+QJwLRr9iL+c6UlBrtIOkByR75agshPwZo8bWL7TjWgmZ6NyE1DDWQTD+jK7FuNN5aN3WG5CxFhKsnXlSfefXjRy+pT7z488F/3njonz56YHzjb0Z+cl/4p3/+yNrnv/nhf+q5touxjvO2royzdAsfnoyIpwm89VxsMI+l/k4i2EwzfaFgG6KHanw09tCuz4RuzIn+BiZ4NhwZCTJVGN2fGbQVgKuUJk+LfhyQ/HNP/1cc1AqZaYaUEm3DQH1wp7Xk4zRguuwchzfXmdDaVQG4ci5cmWtL2eMnJ1wVYoNDdDnbw5U1W2ibpahw5XKHt42SvigpuLKU20qKjTgtXr9us2vnwZW+LkUnYvGpSLCVgCSqm4pNkm3CVeejX6YbLeb7fsR8/17mmV3gypyRhv9jvjMx5U4cEuz0Z167kEmoLhvALN3d+Dc7euHYEdJjDiQ0XZOG/BjAfW2MD779cG5mQx72kaetNUUnOJk1d6aoca6WEubSiyvaYsh/CmCtoeSmOcaKKinDtCTVh954uhLrIQEg+cv2ymCR4Wpm/sd37979zuWbd+/efSP5wUcff/LRx58kfviB/qt/H3n+pvqzT9r+6kFXtKB6mSWq2BeSeSz1W6j5MMLXHQr30lit8Eo+k33uM/c/9bCf7hDYeoJo4IKdFN4ctsnZnHCVCQsA8BYxsaZCcGoK2Q9Dsu8eIgvAStKa2Q5vqmjCRgG4indm0a3ljo0MJ1zFWeeyE1yLSufdBq5godngl0W0fW/Gc9aubBzeNEUJw5XJJgwp2jR9LcpUQmq4zOjKakkzbmPrmjTkwyoD4XlVW7NHV5S/gcRt5vs1Y3si7ezRVQ0XmZUkkzQIsgTJYgPA7He0YU5hAWrQGhNYyrj0b8a/U2piKIAD3D+UsIaSuroYiwyLwR4fVkGJb62EWwm4aGFW1QlOeSnaLE/VcoimUlemBR8GiPYw7Hen4AIhZr4TNxN8NZpv1JLhDhJgtJC1cabIcDU58/Z4/J0Hnph96qV3Ho5cfSJ26+Kzb/ziqa//8uvti3/Z/O3nkv7P/Z0rGhG6PaQxzGOp12AK3sRxLbS/hcJq+YS6+zPP/TNHVdN0NY5V+flOCrcnww3DCVdYBS1MJqSFJNq5C9mxEmdIQHCx9FAYRkqoCQAH2pWmMTMO79AP4dC1UJ29T8+ErqyFq11GV86FKwdW5eSyoKsQVhlFhquycXizoUoPrlJaYhCu2dImXOGEvyNA16DdFzjz9MX7CADIjrC5x89mAT8/ypJwQwUV6Aj4m31EBcFduR3rInHCwXyP4CqXSDu95SwbrhzhisxkTo5hvr5ocl1Tl2JCEwZweynL4fLuvLSj15wD5CYtNILksIDoiqlbaryHBLXCK8koU+0TF63pvZ3gSpP6abIT/ugHLmlggDoTtwZNOly3x/3hZU2d5UmMEq7ejnURoDIQzt11XWS4mn7j1t27d5986Z27d+9eu/mh+vNP/s+Hd379+qVP9H+/3V739ora+oWvln4b2m5vwlUWS31wdoojQAUZ6GbpCrRLBcHVLs/cTgi1GEaQgeFEYpDeFq7stSvLRuZiFd4qxpdVbU2K9MAtNdxle2On9VyJ/bUdPrMPEA6SADsNubPTwx1zUs6JQKgWO4yuMvTZ1j7DTL3t7X/W8limoMxD6Kqok4Hl4fC2hUoQrtRYN4lhBDup6MthXwUgu6PKOlzhABW+c8896jdpv9EME1xQQV+fj7BwsqpRTGomtBDcjJbLfI/gKodI25p23xmu4MaOxFAArQagGREiIM5Y717blq69sKNXbHDO9wBq4PrSBDLsKbgrkptU7lxmyYagZbQd1660pNhEwt0oKdQHdwpuCss/kcQWDADUxeiJrbwTCVQ4nyD4WXMKschw9ewri9//0YcPR65eu/nhk5d/OP2Wcu1KYlP4E+WJh17/o9roqyt/8HkXjK5st5c2tXh3Dkv9C9dEH47hvsF4vA/tZ4FwtfsziV4SaxSTW9Dge4cr6AGXg35zKy9sQJIdyax7lWxA2A7v2IxuoRSEE/MDh1kZBLIqsz1cZcZhmR9dIUkm/tmJ8CvEM+fHMd9YVLgqD4e3bG+UHlyZDNxL6Ce9FiU2XNRfQwz3DtpvVAeLBRwRcssmgljk3JDJ25RjUXrbhPcZIm3LEroqyyuqnjIg7ffyNlAEf2ssy2uabu8ssLK7+q8dvcoS4jI3Gc3npeQ6HEVpa8nkEiJTNwzIZb7q/KEP4jgvmAJbIZ0rw5JuSjbNC3/lKsvrSNqWKi84il5AJOtmA6/L6Ua8VxPbtTMM47lXf7Cp/fI7L9xSf/7LK2+tLa1+/PaPP3ztxTdWF2+df/qVmYX/9Rm2717LOcp8ltsbyF1N++uajDjpM0Tyatp0hZjsVXkJhot+e3byhRsbKUNfSyZXoNtn6OrNCsFf66MnN+XkoqxZ4+qs2qZ0dRWGT+G7WY+WxBenS5SEQkVVwlm7cnH4tIFKEq6K2niesF0t4PTvXR923QPO2n1v5vrP/u2Xj09e/0jTX3zzf95c/dkN+aPJ12//aO1/f/Ofr89c/+AzrAsmA4vYBOoUS9Y7tvYVUXQJi3K6RAmreY+qOWtXZg7vwdU9+kQ5ZXP6dznVy6yLs3bnLs789/6nGP5x/uFx9ivf/uuBp9mvPNH5d+HOvu/8ly+f/ULfaOOf8uVngZ1qtCXHpxLbTCbslM/V95wu4eqKFFTeWbsyc3gPrgq2+MlKdPp3+dXcWbt//fkv3rvz4Xt3Pnwf/W9e5/xffhbwapRjAadL5Nwqg6/O2pWZw3twVQb+edAqOP37oLJKL39516707O0CjcrbJcq4dh5cuSC6DlvFMvZvwzDKu3aH7RtlKb+8XaKMa+fBVVnG4/4q5Tau1H3ruz9zeE+XuwX27UBuy1CuDejBVbm2rFcvzwKeBTwLlJUFPLgqq+b0KuNZwLPArhZw22AJ6rtrpU7CAx5cnYRW9uroWcCzQMYCrnv7u07hjK2LeuXBVVHN6WZhY9eN3z1v/N554z+PGn88brx6+94rc+PGjfPnzz/55JPnz5+/cOHC7dsHkHXvWng5PQsUtoDr3v6uU7iw3Q+c6sHVgU1YFgL++nnjH2aNX//GMM+XuvOx0RE1nvh+pm72iWfwpDNE4WOeM+08+AwAeMxaLBabnZ39zW9+Y2b++OOPJycn33rrrYwsm+QbAGASLuQeoWYf4JbJ5F15FiiWBVz39nedwsVqqRw5HlzlGOQkfh27DrHq418abd81QJ+B9RvCFWiHwDPGj9Dh2sowlcYVZB77a95xn8aNGzdmZ2fzjTg+Pq6qSFYesQKUnEOomp/fS/EsUDwLuO7t7zqFi9dWWZJKCq406Szrb/T5Gn2+lgDbK0bm0qTaWSpv/0VfCrPNKLsppNHna+WjqwVP5dxeysm787vn4bjKxCrQBxEL9BnffMN4430Tt5wEdKZ14iwaSOXD1fnz5+1xldOQ77///ssvv4wOwLb5hBz3PbhyGGOHS301xremPTzQzglnY8nNHR4vcMuU4O+OmBQ8RgoFXRMTnL2jTPCB7jQ1T4GcZlJKjfcx7LALjl3ftgou/CmeB1dma5YUXEHWPoD7uH4xeIbz10D+quC88/zvXA9UJhgct4jY4antifCQKA7wkNGgmhEGRHE4KpU6+U5upY7++++dh3OANlCZF7/zHYhhfzhmFBz6mBRz+XD15JNPFtT/N7/5zdNPP414ExxcCfajHlzZptjxQl8OQUqddiE4EOTbaRwAvD26U58O0V47ibChBDiBS4eWUDdOkyA1D8CYiRUPrna0/XHe9ODKtH7pwZVNjbgeY3DgG5b1LSUxKrBtDNsXTqzqxqYktgeYHp473foH/xeMPNLkqLXdSZfDTQDvgMSAhq7EzjDMQBxea1KoM8CNTD7U5g908Vw7w/ZFJJMjYykm9jCBdl6cTGrlRQ5iW2WHi/88Cm9i/VmI9ZmnjV/ocM/FznCVtXZVFxo9f75gQbquX7hwoaAo+Hzu2lWhEVhBuScsEYINRnDTZhcMkbQRbFw1tMWow4F1CDynOb7ncy1/9Dv/AQCA+4R0FsOCK+AbhlzY2pxAwiZ0wNWmmpwK8Z0M1x+OL2swhOajYg/L9gQjs7KmZ0ZXeYVy/lZW6OWYko8j1739XafwIcVlqcLVlpI4yxAAZ/7pFuSZPUUz3RxTj4EqLvaDGHMKgAoq8BedXzxdDQDBDMWzOphOuDJ0+awPq2Ri67o2y5MVVPDyBMwOCH8n668CoCm09BbsseKNLNfhw0E6jA/J3KUp9o/HjTsfw3k/5wDre7eMySVjKLELXKWpV62KXbhw4eOPP7a+Zf4uLS3Nzc15o6uMRe7pygFXurYUExoAqBevvwnJmokWlu+ENNy+4evXByH5H97EdH3pcw0YAI18ZDE9SwElVACiCsOaQ/KWJvVT4BSBI7hKDlKg5v7otwJYBcX08kwtAJXspX8J0RUY3clzLZDHW3j5ZrgZIzpjd35YuFBQF2BbSDgvsrDTvMg91b5omVz39nedwkVrqmxBpQdXme465jsTU96LsQTmH4V07PpK2H8KZ59+hqlMp+RMBqarlgVXKBeOs5PJeA+JNYjJd2Mw+wgUqF5m8VO//7Uz/w8ARKA3KA7wgSoAGsTkVraRyv3bq7fhPkDDgOtVv/Md4zNPG9+7ZXy0ZTSNGv8GZ4z2sXZ1+/btycnJHINtbW2Njo7qul5IFHrWmwzMMdk2X+2xUTpKqpnwwkZyiMZq+MSmAYmbe0nQ8NDkgxSoRikFJwMxgjnDkpX+0HwiWI/R3YIfx5mJFQuu/BggAj1BcTgcmUneeUukASDbBHEoFJ5MyHdWEFxdek3ctlB9NRLAcWaydGfhXff2d53C2/jvQZNLD65quMisJC1a9LWrUej6Ewqs6Fo0gGOBx88zlVhgDA6o9gJXhq5E23C8iQ0QmO+srK9DuDKzazMcgf3fvV+sBgAj62m4xaPR5+8MJ0u3X3jQ9t4u/xPfh/sA33gfrlf9QofjqqZR4+r76cfhVkBr83p6/zragJ6/dmUYxltvvTU+Pv7+++//5je/0XV9aWlpdHT0/fctWd7OwO3aYA/paGyE+YdiiQXJYrXWpD4K1AUl6LQ6HC3V3n/x7ylQIyQ0OAEerAO5a1cYwU/G+FqMaguQOC1ejjCVNlwJiQ049840EBARa/n4mi5Ph/jTFCS4r/CJCXN0NXFF2L5QGKdWzO6hUkf/iOve/q5T+JDatPTgyl67MmuM4o3ojCm6rkyxRAUVfGnCxhsEV4HoWrZxskdXhmGoUywKNn9kRTfMJbEhSUtp0gANqrjxUQbHaHFeM9C8fOBMLGtqMVt2GX/7kQrnA/9wDOLWUMIcV2Wqu7ffXQF2GmZRVfXll19++umnx8fH5+bm0LgqI8rYw++unPvmHTlP+qVjMjBjChgFmE9c0AwtKTYCvO3ila/vCFenCH5WSZxBi1YNYnIl6oCrLz/1TTbQGZJUXZ3hSUB0PfYg08pFFjV9NcpUAvrrV86hycAbF7Yv1IOrTOMU58qDK9OOJQ9XhqHOBH1wsQouCPv64uqaY3g0H4ST9Fg2YuXBlaHGuSqAtaE9VOto6QvmQjlHZX1LjnRBMUQVjhG+4PRJ41YtTkR5Uo7AAgXhytDkcAfEHujR1UxkaQNN66HRFZxagMlUHxp9GWirxSmCn9PMTRa+4aQG5xsyo6vnnuXRwIqAK1qNwVekKAP7ehhBYKAyEHorvXalbm5fqAdXxXYFD65Mi5YUXBnaajK5XAgtUpqyIisa2nqb0pTFpGw9pa0mpUXZvGM5ia4uJ5Orjhm99RhbTbCX0WQ6mgz0DcQS85LkKEvfVORV1TzTwZLj/fUsUGIW0FV5Mak4XNvWT1czDqyvy8klJe3MW6q8ICXXrF8f2hJSWlqUGVCbup1LW5OleTQhjzLpm0pyQZIWkgr8jVdWcBUuVIeS5U2rRFvFkrlw3dvfdQofUlOXFlwdQiV1ZcwPZ+EbxHT30rF2dQjFeSI9C3gWKHULuO7t7zqFD8kDyh6uDH1dik0lMh3S7MHZIZnVE+tZwLNAyVrAdW9/1yl8SE1f/nB1SIbzxHoW8CzgUgu47u3vOoUPyTE8uDokw3piPQt4FihRC7ju7e86hQ+p4T24OiTDemI9C3gWKFELeGzCJdowu6nlwdVuFvLuexbwLOBZwLNACVjAg6sSaITjVsHrbB53C3jlH6kFPIc/UnMXrzAPropnS9dKct3MuOsUdq1rlKfirvMf1yl8SH7jwdUhGdZNYl0XDK5T2E3ecAJ0dZ3/uE7hQ3IiD64OybBuEuu6YHCdwm7yhhOgq+v8x3UKH5ITeXB1SIZ1k1jXBYPrFHaTN5wAXV3nP65T+JCcqKTgSpPOsn7E4uFr9AXaueBY4h4OR9eXI3y3mFjX5MshvpMVRpAQXY0PcMIUkqcmxG4+sly6Z5odUmNvJ9YRDLo6G+Y7AkxXMAqZZB2flCqNmZzOEclkMtKS0QGOOc3yI4n0CY55Kfpq3GS5DU3fQ0s6Ss++dCicfaO8v6XUeH/ApLmx/2cgt8DBqr0phbq58KIG2YG7Wa7fpNjW5UmBG0Q03GUXLxn/yfdq25a7O3N+sOSn2OIOdJFR+EBiXJ+5pOBKjXcRAPdx/aI4EOTbIbcvPZg+6m+vlt6Swy0E3S9t/DDkw0l2MBioIpgJRZ0T6Fo2to7EpDSpnyZaw/IJo2HczoZ2MGiLIo1hvjMhsZ0EhGUumE2XRyHJLDcc4uoABk2nxjoJUM2KZwXfKUAPJfVUXspmgq8FRGsw1B/AK0hhNhv/ttNmD+m2wnt4toweSWnJyZA4KAodFGQn6AqKg2J4GhKN7vGTPtB9xtkQkEaHaA7JP5GEWpzuEYUmnOyGvAdcHZ1usrKLF9t/cr3aNuUenDk/WPJT9tguuz5mK7zrk+X9QOnBlc13lVKjbThoDiu6oS3FzE66OJlEfUldnY8InQzbzbOtfnYkabsZZLjHfaFlXZvhCYKJriRDTTjdFxFbSf/ZzGMwbnGqiC9QV3uJHQyQ6A/x0pqEsAGTFdMwjC051ATwzpiaghTMBOZ7NH4RUmWOKXpKg8xJtcLVtxF5piPlyrMcUUGLi7qxlRQbANGFuurFsJStcDGEuU8G9G3TsIZhbEpie4Dp4bn2Lz340JeY7gjshK3Hg+2MOKcZm3J8RGDbWeFsLHlnJdqFeEbqueiqFTFrMbYKUSmuRxmC5GcUqZ/Cm8VIn49sj9gj4jKLF9t/crw6ZM246JAVNsu985x5ChJUZgXLzW3D58AuZit8YEnuFlB6cGWyCc9LiSnRjwOqLwHHSRUAb2S5Djje8g0nNxZEugKQrSzbAsOP6E2k50MQ+TfWHJJ1w2STw2tJyOTd6Sfr+YSTjFuXQ00YdcbK6O5GPKj2djBE23GsBb2kNhNCDaAGLIDfTPDVaAhlGPqSSGPEfeEHqQqSn9MMQ1fGAlglcykuZqf82bcH/VglGqKhviqGeh4H1RXltxUuijTXCcmCK5O/rYIKdN3f/ze1oFaQNCNNP//sLTgCrgrwvSyNAfCHjz0/FMABoLrC6elcxFwKe3VrqEfSjAGCIioA2cb6qhHfo22a8ooX239yvJq3JgD0xd2c+feHvsVkB0vwtYvbhY9txnu9sBW+VwFlkq/04AqyfaQ/RHs4qenJIRoAItAbFAf4QBUADQ9NPkib/RpjSxYbMNKGK0jMiJE9cRO91IVoaEgMjYX5BsLfI7CNBMBpdgTN9ae0eDdRxBeoq93BDoZIK4afjiopizTd4vQz1DhLAN9ZOO9kTih1PnofWUEFF+C0ksnpPPLs/dkpn33kgU8DgourhoGsDexx84GNZSt8YEmuFJALV5WYfxT20KQBKheuOnBzdj10NhJbULSbIR9GcJnJQJgFqw+aE+76WiIyLIojkVAnRZ4WhHYaryB8PWi4Vl7xYvtPjldz0+kurTYv7OLMn/77Rz6THSzC8yPbhc+BvcxW+MCS3C2g9ODKfKltKYlBP04w0dUNqY8EACPraXN52d/52MW/JUEdirEcuNqSxUaMzBoz6coYQzZwwXaSaI8kJjnS7Eua47DivUBd7QV2MMS7IIRDUILDKcw3bK2LaJJQmx5s6QtBCiPv/+4jPoxAvVFdHvFjBPfCG/BV6EwZPxfAK5noumGk1Gg7jp+OQCAsxsdWuBjC3CcjH67grGw+XE2puipFBlhfFez/EZ3RlR/mwJUmnSGxBjHpWMTVF0O+ar/QFyBqudhsOECQEN7KK15s/8nxamE+vapn9sl2cuY/eXz8i9nB8uibL2wXPgd2MVvhA0tyt4BShSvDMBnr6aHkyiSDY7Q4rxm6Gu9jAmcuXftOAMP84WVdX4uxBMiMrlJKtA0nOuASS/qjxvk6ipuSoh0E1RtX5oM04Q+v6EZKjXUQeFs086SV4wT+tYNBGQ9guD+8rKmzPIlRwrymryWlRUXT1VgXAd9rm5o0SGNVXPzHEMDI3oSqyeFWBEUbuSkrN+DLkZ1UUDNhvmFravHAJrYVPrAkVwrYDq7kYR9smjVVGmMJgLMTb0Z6AsxAXNmC+ykAzlx6PeQ7lTW6ks/6MLQAkzaErkTbSbovLo34iQZRWo3zNQQzqZZZvNj+k+vV67q6LEkrqo76Z073znPm6yu5wbKRHz7Fci9b4WIJdKmcEoarFNooWCtIP5EjXRTsHlbhGOELTqu6mhDqAAAYhmYNHcMp2NPH6+D0PfroyWE/Cbex6coES1RgeAXAWkKwL6lJQh3uH7FGDy5tvSKpnQmGTUlswQCAdqV6YoquS/2UOaGnL0eYKgAqYDswY3DqSZniYatUAID7Q3BWMC8lpSb6fbCdIJtzMGvt8GCaZxQ+mByX5t4Grgx9Ca7yWh+MffY2RCkAQCUBl6x6Y+qdOAdHWnhm1mshSFfCrUmmKbQ5ga5ho2u6vhT24wDDYWvDfRnlFS+2/+R6NVyiA1hbVEntwZlzgwVte8kKn6L5l61w0SS6U1BJwZWhrSaTy+nf8MDd06qcXJTN7/qmIq+qOho2qTPBQGMgOJlITIcClZi5pmLaX1+LMlWkFY26upxM5zd0bSUpLcgqmvdQpzmyGq0wu7PZiqt1VjCkdG1VltctwFdleTltdkPXlBVZ0axNZYZhaKq8kpWQn6KrmYYrltpZChdLqIvkaAqMC3MGL5sdW1+XpXkpuSwnF5PKpmGkYAhI85JkNSKMqYVkhlx7Sw6hH36Yy736mpxctZp+XZYW0uFTZvGS5T9ZXo2cfy1tgd2dOTtYoAflpxTDr7IULoZAl8ooLbjaoxH1lXDgFAAERVUBUIl6f5mcaETVEtrpN1VbyVBL1r72TO4TeeW6YHCdwqXsVtpckK7JIcCHGAAAIABJREFUCaJsfcsuXlznP65TONuBivbNlXBlDrwSk5HwRFzedHT2TbNsyfHxqL1Vt4CpVCk6Ht8JzwrkKeck1wWD6xQuae9JacmpSGzJGlLk61p28eI6/3GdwvlOVJQUt8JVUSrvCTEt4LpgcJ3CnqeVlAVc5z+uU/iQmtuDq0MyrJvEui4YXKewm7zhBOjqOv9xncKH5EQeXB2SYd0k1iNXdVNreboe2AKewx/YhMcjwIOr47F7SZXqRW9JNYenzGFbwHP4w7bwIcn34OqQDOsmsa6banCdwm7yhhOgq+v8x3UKH5ITeXB1SIZ1k1jXBYPrFHaTN5wAXV3nP65T+JCcyIOrQzKsm8S6Lhhcp7CbvOEE6Oo6/3GdwofkRB5cHZJh3STWdcHgOoXd5A0nQFfX+Y/rFD4kJyopuNKks6y/0WcTe/tNrrkDVF2dCTJNGYG+Rj8/aXPOFZJr89plburKlMANxNVNBTLddfKhaRmeWAMpw/kIPGxNlyd4bjDh3tNyHcGwPXt3Pk14Hju4kZeir8ZNXs3Q9I5mz1h7T1cOhff0fNk8pK/G+Fbkz01+pkeMzCBX3K16+lKYbeMzlIzW8xlpVtAF+nek0NSVaC/D2WyoqQMELAwfLryoaYtRsZvl+iPSOgqlSYEbRDqoCTEdX5a6xfub8Z98r7ZL2d2Z84MlP8UWd6CLjMIHEuP6zCUFV+hMW9zH9YviIPo3lsgcILgHU5vH/jvofAx4RrLJlWUKHAxFFpwsjblC07x2U5ln4CGE1SQ3fUcZD+BVgeAAS1b6Q0sqPDz3NOLaMBAVZDXFz2Ry5cot7e92MGzP3q3n0oRv5VHd74EvvFhmsBUulkC3yIEeXgHIdiE4IHCQm5SwjsfcqQbaLE9gtLiUe/5LRlo6OsRQmq17G2k5fD3mIdT3ErDwhHiiOST/RBJqcbpHFJpwsjuursW4OjrN8Z3SpH6agOdTb6PMAZJt/8n1attCe3Dm/GDJTzmAjllZbYWzUk/el9KDq2wOKtgxbGW4Xo7pFKU7SmJUYNsYti+cWNUR7bef6RH4DpTybgFub3SkfyBiU33DBtaVCc7fygq9HNPOi2Z8prTkpMi1M2xXADIvZOBKTw7SOOSvg0R2eHM4uRyFDEBjYaaWDlrsOEZKjXeTeGsavVznRXYwbMvevQVPqsY7ITOLepklMN+j8Ys57OBX396VL3zHnvt+rGYrvJ9M5fBsukNmsgjaJGQpXZmLir0s0ymEppKwh5fS5OkQjIszodiiumHC1aKmXA4yLUzQGulmSbPMAyOuJcCd4dl2lj8bl+HZTLo6HxE6GaaL9eFOvh7Uv8wOWHju8VLMHFLbwWUqw3QFI/Oo/7kWY6twZkIx1qMMQfIzitRP4c1ipM9HtiMya6QMVA+n0uhlqVeUv7b/5Hi1fTK9vrqrM09dESiTJNbs4wYmbm4bPgdW2lb4wJLcLaD04MrurA2F4ys67BgCAKr8LP8PQx0EOEUz3RxTj4EqLvaDGHMK8ln42xn6FMD/69NXHs3l9s4dXQ1HEutachASX4C6AAv7p1RwYQN2sgDh72ADtZA+IwNXW0mxAaMGICGJOs0RAKNqIT0re5oiO6POkR+8W5mDi67xDDsYotuxd0O2RkAPQcIqfUmkMeK+8IPZVPfMpfhufOHN4WJNCNoKu8bERVLUMR4KCp00VkEJc5o2y8NxVjMn9DIUhjOTK8o4A920k4fPYL5Hxu4jKiiun6UAoPsynQaHNHM+IxRdhNJgxOE00+4jAPCPyBsLIl0ByFYWxQsgbPLunNEVCliTxARvZLkOHw6Ab/j6ClQGo9s4toUAACqsTrGEyZK6JYeaMUBQRAUg21hftU9E/NRpa0E6D4zKYlstjh1t/8nxasTHCIvQF3dz5t8f+haDYy0IXDcTQg2ggq9d3C58Dqy1rfCBJblbQOnBFcCpBnN2nhFRKBIVtLioG+sxljBJvg19Jew/hbNPP8NUYpCzKqXBfk198LqUQ5ZqTgYCoi7NROxr4SLLCK6q+cSmkZ76++6NcAtGoKGDmZKBq/UoU4kzkwpsZHgSaFgcCkXGgv5qmuvj/FUYVsuIs3AOUF8O+06ZXLrucwg7GCLbsXer8Rya8M5H78tmBw+MPHt/dspnH3ng0yZXloGo00FeN/yeLWUrfM8SXJoRAgzsvdF0A0UgtjffkLSxLkuzicRsLHqWR6OfKGRhN0lKN5PRkfDUM/dBBAIAb486ewwZaebaVVNAuKxAuKqgIWxsyaFGjOx54dpDtDmMMApOBmYF7EZyiAbm9PsAH6gC4P8Vvu4HAPVBg2cYCgDyzCuzQQqDMxawEfS1RGRYFEcioU6KPC0I7TReQfh6InAOELkNVrxejt3otv/keLU9s6rNC7s486f//pHPYPjpKCTI1qRgHaCE56HZnSl9Fu+eXfC9XtgK36uAMslXenCV/VKzp93R8BxNIBiGsYaG6o+fZyoxSPsNp7kpUBe8WhCu8JxBjw5HVzVCQjPl4MzYrNgIiO64lkoDmA1XuegFQUuNdVFUR5CrI/zDifgZCm8OQbLC1Ygf39NCQgk6jh0M8e3Yu+15J8PQF4IURt7/3UdyqO5feAP2FXbiCz8dgbFdjI+tcDGEuUkGBBjMcjM4BU2AWmF2LuTHAdHAcD0chKv7Ljzy6bQ/m3VLD5iwXLadLGmWGeyIM9Dghuiemr2fBHUIXQrCVVbAalIfCQBG1qc7iP6OB880wCkQ2uyDNvqYwZdm7ychM7VjUUpfDPmq/UJfgKjlYrNhON8+oxkpLdFLYlnyLS0P9tf2H6EWUANozgB5tWBN75uW2cmZ/+Tx8S8SWDOa/4dzD5jv0Tdf2C58DqatYRi2wgeW5G4BroErswtDdEKKW2WKJSqo4EsTBeAqi9sbja52hasLN2KdOEALVOqMQDnXrtQ4V5Ue0pntrM0H6WomMh/nawl2Uk6O+PGGYFKDswf0KSronMpwj2PYwZDP3q2vJaVFRdPVXJrwH+dS3SsbuSl5fOHwvVCUj61wUaS5SEgGYFK6uhDhagBoORf7OgXQbIGxHuerAcm/NMVBGEuokBSYO80+Fv4ruNViJi7UATxnccgGP8sKeXD1ws0nAxjmDy/r+lqMJXZZu1ImGRyjxXnN0NV4HxO4f2L8r0lQw8fXdWMzIXYEuPGlpbM+rAZOb6Q/uhJtJ+m+uDTiJxpEaTXO1xDMpAq7hh0E3hYt+p5b239yvXpdV5claUXVUf+M7E2omhxuxfHTkTxnvr4yHsBwf3hZU2d5EqOE+Y388LFqeNC/tsIHFeTy/O6BK8NQZ4K+Uyb/Oubrg/uILLhCHO11Qel2Lre3Mh5AsyCZ//COS689lD26mlC0BRGyhleg6RXn2lVKibYTRJc13a8rkTbSNyBpuhrvoUAFjgFAD0haCuIi7oxAV7lFJhhy+byRYQkurhq5NOH5VPf5KSk10Q/nrqBZG4KJ4m2czCjsKjsfXFkIVxlfBqAWTm5rCyF/JcCqKbISWproTWy8G+XqAKggCBwj20LXLps7AzV1micBnKIw+w250gAA1fxLz1nbCNOjq7i2nhDqYDOa4ZG7dpUz+tmSI11wbZiowjHCF5xWtbUY34ABgBMEhjfw0RVdWwjSlT57X4M2J9A1bHQNgqsfBxgOAIHoIjVJqMPhbP/BDZctwfafXK+GVQZYW1RJ6coUD6tRAQDuDy1oRr4z5wYL/HGL2AIXvwEAVE/MOe+aXf6+v9kK7ztneWUoKbgytNVkctm5g8EwnDzfaAEpw7/uoP3W11DGlJHD7a1vyskFCZJ/W/+Sq5q+LieXFD1lGLomLyZNgkdtDXGEL1ms4VYzqzM8WWVxreqavOQgHV+SJFMOXDEm6MGiTVVbhR/R36xgyGbv1lVZtnjTjSyacKSbpsoriuZ8neSl6Koir6rQ2sX7ZClcPLEukKSrsunPC0l5zWH4lKauKqqmqcvJZJq7XdfWZMUkL7WDKKUrS5Jkh5gtzYoOaUnRNpXkounkOpS2ipaYNAXG0aIsL0mWfGitAgGLjKhv5ja6ti4r8JdV6LMlh1oIuh/289DylZwuxTD0dVlaSMroHaBOc2Q1E11LZyrinyz/yfJqXVuV5bQBDWNXZ84OFqhhfkox9M5SuBgCXSqjtOCqFI2oK5F20g6tghqq0xxVx8XXC950QaLrgsF1CrvACY5WRW0uSNdYvcCCRW8lQy2k/2zRJpCdhbjOf1ynsNPaRbz24Gp3Y8LNS+OJ7Yf2ujwdie746+PdyzjWJ1wXDK5T+FibtyQLh/tsI7ElNHQrqKAqRcfjh/EbYTfuXPAc3vQRD64KxsrJSnRdMLhO4ZPlTyVfW9f5j+sUPiQX8ODqkAzrJrGuCwbXKewmbzgBurrOf1yn8CE5kQdXh2RYN4l1XTC4TmE3ecMJ0NV1/uM6hQ/JiTy4OiTDukmsxwXuptbydD2wBTyHP7AJj0eAB1fHY/eSKtWL3pJqDk+Zw7aA5/CHbeFDku/B1SEZ1k1iXTfV4DqF3eQNJ0BX1/mP6xQ+JCfy4OqQDOsmsa4LBtcp7CZvOAG6us5/XKfwITmRB1eHZFg3iXVdMLhOYTd5wwnQ1XX+4zqFD8mJSgquEJd2U5qSA53OEhNaff5uxCZgGNpyLHSGZVoDbG8wPCWpugGp5Jqd3PY+X2ua5LvgrYvT5wqygKeNe6yE3IfUwHsR6wiG7dm782nC89jBjbwUfTVuMvWFLErAveiz6zMOhXd9tqweMOnq7YgwTPr5JiaIWGwMXUmMBbn2QKCdE4Yj8WXN0CSxPTtAmgJBi/Z6F2nFtVxKjQ9ywoSsrUuRfo7tFqPoN8LaUpjvDkmbkDY11s8JU9v/HL94+mT8J9+r7VJ2d+b8YMlPscUd6CKj8IHEuD5zScEVIicFAO+CrLXQf8fQAbW1gqTp8hiDeBp9bA/PtdHwGMyu2J33EuEhURzg/TgA1YwwIIrDUQkdpaqvFbg1e8k6vrNAwx0zIXcBjY4qyQ6G7dm79Vya8C011kmAalY8K/hOIebGPfCFF6tCtsLFEugWOdahtHTIZLLXJKEGHj4LmXnVRBBSdWDUaY7vYf01AFT4xGs34yOiOBjkGgCooNi+oDgUss+S2EnabhaBeTEC0nzs7aPO8FQVE333TqyLwJsFsRuRdK/L8MxoRPtpIAZUshqedbs3kff+lO0/uV5tl7wHZ84PlvyUe1cxO6etcHbyiftWinCV5vTTlUgrOgO6Vkgftd4USqajQ4cscJVMzDymT5fDTSDNR5fTgtm3EPEP7u92EntbGY6bkNvS4xj+2sGwLXv3FjypGkcMlupllsB8j8YvBvA02VjiDAlqhatv78oXbh1sf+Aq2gofWJLLBFgAA3zD8DA9bU4g4QHtGDOxIo/4ACC4y9a595DOFNCD5pl7ujRgkYw4ary9NMXQVWkyJHQxbK8YnUcjnk05PiKw7axwNpa8sxLtgiVj9Vz03Y1sbntdmeADCDKZfqvFdUjDQXbHtS053IxTA5IyzREEEx7jsw7bhDyHuEla7VCz+Je2/+R4tX1IPGLXy3LvK89yaZ5YyDAOiK6pKwJlslaarHiBiZvbhs+Ba2ArfGBJ7hZQenCFEXgFwc2o+mqUqQQEAeCrcE6kzC5kQWtnY1LWI9m30jx1DmJvuzt17ITcWWof7Rc7GKLbsXdDAjo0hDIMfUmkMeK+8INUBcnPaeYgGKtkLsV34wsvHi2srfDR2un4S4MAUwGIKgxrDslbiJX0FIEDjLlwI9qOAzgPUVDJ7eGqoLSJleQgDTmAO3ihk4asTjfvwMF0VYDvZWkMgD987PmhAA4A1XXu+XM53PYbkP4UALyJ4YfScKWvIPLSGRXOXvZToIKkCADqWaaeDIw6+UHgXawxi7mxYH0OmGj7T45XIz5GKFtf3M2Zf3/oWwyOtUQgkm8mhBpABV+7uF34HFBdj57RMmDJwRXWwPNNONkTk8YZnAgInbDnPvtakALpmQfoSWnKHzLN/pmNSVbV0N/sWxCusoi9IYOw+Zw0cMyE3FlqH+0XO3oj27F3q/EcmvDOR+/LZgcPjDx7f3bKZx954NPpgTJiMQc5xEgHqKOt8AFkuDKrOQXHnGHJSn9oPhGsx+huwY/jzIVr0dMYaILE1kZKhdBlftIMztvDFUYUkDahaCtSYjaRmI6G+wIEwNnnbsU6cJPDPnQ2EltQtJtoMvDFm5GWXG77aw/ljuS0GZ445Qsvo87hlhwfFcXhcGQwQNaxQm+APIURLUJsFd5VJhjcnjU5tCay/SfHq7np9NhUmxd2ceZP//0jn8mmuheeH9kufA5cEVvhA0tyt4DSg6vmUPysHyf8TANOdEZi/RQcXf0g7MfSEyDGFqT8iY+yRMU9wRVGi0u6Rextw5UmnTlmQu5j9CM7GOLbsXcjclUnTfj9330kh+r+hTfg+2snvvD0q7MIFbUVLoIsV4kw4YqfjPG1GNUWIHFavBxhKnHmws1ELwkIzpwe11aT0lws2Ihhe4CrAtImVuRxhgA43cry3X4IV1OqrkqRAdZXBWGQ6Iyu/BDBVexGqDGH2/4VCFc1QsIxzoMTyLg/ggApbe/NhNBABvp4H0EHpxNiE5wh1A1DnWLxXPrv4reQ7T9CLXB6dbr7axhpO8/CyQN5xI8R3Pi5AF7JRNfTvQH8Tx4f/yKBNYdh/wDOPWC+R998YbvwOXANbIUPLMndAkoPrlrC8lLEXwGnE9gpWRqEcCVtQvJ1UEHx45KyqanLcbGNAKCIcKXLx03IfYx+ZAdDPnu3vpaUFhVNh/bHGsTkpiYN0lgVF/9xLtW9spGbkscXXjTuIlvhYzTasRQNX6OnCH5WgeuFkKNZTK5EIVxNKNoimic8LcaXVW1TkSZ4GgO7w1VBac9cCzdjeDtkndfmg3QFzk68GekJMANxZQvuSAI4c+l1qAl35U68J5fb/vpgLlxpC0HqFC0u2lPvEAOI5lBiVqQJf3hJjrYTZE9cS+nyqB+r5uKbh2td239yvXpdV5claUXVUf+M7E2oGlx1w09H8pz5+sp4AE6TLmvqLE9ilDC/kR8+xaqGrXCxBLpUTinClaIpkVYACDa2rsF5cHNGflMKd1qzgHCRFysqXBnHTsh9jA6UCYZc9m4drjQQXFw1cmnC86nu81Py+cKLVMmMwkUS6BYxabia08xNFr7hpLYeM+EKLiJeDsItstYHq9gbXBWQtgI34lZgRC1JwN1OOPvsbYhSAIBKAi5Z9cbUO3EOjrTwL0Weyea2RzGbPboy1DhXgzPjStrO6zGuluJnVH1TCjZgAMcBIPlp1UjBvcEEgslDbRHbf3K9WodbirC2qJLSlSkevm4qAMD9oQXNyHfm3GAxjPyUIlXDVrhI8twqpqTgCnFpr0Dia8hPjyi60QUiqkcW1jUV0m8vq7quKcuysmXa3cHSndsQ2bf+//a+N8aN5LqzP8yH/iDA/WHu0nAGiAgIuWl4cBAR4U7ECUFEQBeLOp0jJnNZtUHkFN4Aq+MJjkwoOS2jnE/LyGu6sYkVQrZleqIooLynmNrbcSjnFFNZrXDUrhVT65PD2cUsWosIB+5hPjQMIWgs5gMPr/43m/OXbLKL7MFi1WxWv3r16vfqV/W6WI9lAe9673e73XEn5O5VfISfPc7gzd7tdtrtpzR1vSdNONLPlx18+3zhw2iXR+FhCJRGhttpP27ZTre74bAL+3GrjZPco+TrnbV261HLdly3026tOnhFA370xKZvamlzt5b2omOvdZwXqMZ1SOveedpqPmw2KR5APlQE0sTc9rgul7wVxnXRX4lgh3VsrswLu/Wo2VoDKbC7ag5ojOoX1L8e/HhQ7Tpr7fYzGsf0wdvt2O016g59U9173WdYDfAoPCyhEsoJF12N14DjTcg9xrZL5wzSKTzGzg1L1c9r2QWD7WXooxVsGozHFtFeuz5fD/OWdPiRTuFh9pYgK6IrwRhjTcgt6DHqS+mcQTqFR92joayv86haWRG3rXu1dO3GcqUR/G+EuxLuC48Aj7ES0ZXXZ6byk3TOIJ3CUwmr8DZaOvxIp3BAfR/RVUCGlUmsdM4gncIyoWEKdJUOP9IpHBCIIroKyLAyiZXOGaRTWCY0TIGu0uFHOoUDAlFEVwEZViaxUXJVmXor0nVgC0SAH9iE4xEQ0dV47B6qWiPvDVV3RMoEbYGYbH8nTpwI2iZSyI/oSopuClZJ6UIN0ikcbP9F0ndpgVgs9umnNyT6LwI87uGIrnaJ9EksLp0zSKfwJKJG4jZFdCVp50V0JWnHDVNt6UZ/6RQeZm9Fsga2QERXA5twPAIiuhqP3UNVq3Sjv3QKh6q7I2UiupIUA6GiK6f5upk8ki7eI4eGuc9q+eOJ5FKljY4ac57WrPNm+njKPFco32523K77pGweTSQOC/8dz1VxnoINJI1+lVrMFq43UFbU3p4CIafoU71f7uqza9/OZy/VO+s25F3N5KyVNpzStt60lnIVSPbjtm/mspcbHc9xaruqIpDCwujvdu6Vc6dT6TOF6lN6chquc6PTvJ43T6XNC5Um7h+nVb2UTZ80c1cbcM4jnBzXe8ddqxfPplOLOWulr+332BxB4T1KkPQxd62WO07RfixlnkeZ7Dc69Qtps9TsPRJwvVlcTBf8R/C9aFeWUtnrmx8wsQPruE/K2UWSpGoHxcNVhNPVP33jwbXPv/SFX3npy7/74B/D+zZragHfg5tQ0RWcxwyHPJ+poQHdta+n4BBoOJHdhSOiFUWZS5hnc9lTcU1R9DO1jz9qlK8Ui5dycBD1/nT+UrFYqpLBFJ3ujBPKFS8VcosJTVHil/tkW4WcjTgJVo9thI+QNU5LV58Jt3yX7rNqen8su/KxvZzS5lKFSyiH3pNOq5SMnUR5cfAhnvtHcYinT7utbjBncB4X46qaOG8VF2PoRHz2lNu+llJnjGzJyi4o6vFy+0UH0svuN4uv5xP7UKLhDd+d9UZuXtGPF6yLKW0mlofsQcP5YwoPR5w8UuBE9hkltpgvXC4WLmRT84oym65+tAldwWHtKIN7TwNx9rILfXyhp+AWH53723vNFo+P9ytGVz+9+i/Vmc+e+epLZz6nqL+e+enPQ8pYUwv4HpyEka5IClrXrhyH7AVAVx+ibAVHrBYZ8dzWlbjCso56UwaTFmK6YhlsNzrVU5qC8q+7z5uVS9n0KTNXqrWdLtCVoiXOZM1TZu71OpzyvuHa96vFc2Y6k7dutzofN/KHQJHYYrm17rRXrNzpdPpMofKQLCpQjW7rclw7WGg6kLlVO1puPa2m9Fj2ejk9Hy88pCP1Rqe+FNOOE/bq6YxxfWTO0LxgKAdyjfWuu1ZJaVrqJs348AISK2gZmEZAqj018Vr9RkpDQ+GGA7mX5vNv/6Tac+cH38tC7ubHbvdFq3hI0c+QVOiDN5MpPLgouSTgtIHsoFjIIzWj5374IVldvei0blu5TDp7sVx/6nQJXbWdp9XcyaR5hS7r+9GV86SG18HFWy3nhV07D9mtYNboNK3TqezVltPjNZiu3ltFJalkSazJ6Opr/0bRvnjuH//pxj/ePvwL6oGvtb4Tzu2CUwv4HkCFj65UXZvRs3c7kE1gVtF1oKu37xcNRU2z0bOnEVvQ1YFs5V6z+bDZuF1MaopxoeF0mvkFRZlLmmfS8X2Kdqry/l/nYN02mzAzKWNGMS40P/5hLqYo+tFs/lzaULV05QeVDNxIX3nzwbfTmqLGT2XNY7qiGPn7lIdgRFaNSzBj7axkdUU15iFZuHnSiGWqIq3Bt7MpT2bVnuaM/CNzhuqiph5DR2KvN/IHSKJVUAfypaIlVLfrPinGVf3l8h8aM7EcNB8Wweps+o160XvnC9+4nFRnTchvixZeKporDKVxTOGhSJNICFpdqckrtcbDZvN+vbxkKFqq8rPV8lFVz7zx3rdgBZw+l0vDqsus/RhWV4mz+fScoh4tNlnOQx9duU9g0aYdNrOnIQiRKL37bimBpoOucy8XU/TcGz/o9Zq/Qasryenq5V9SDr7633/+6Y2f//g3D6qfefnutYiuwuwOoaMr9VAud0SLna01l9OanspnYOZ+728LkCXwLnCD+7hIszRumU0Yr65gUUT+9MVyy+nivHYGhFMK2aOaMpO8euNlfcYoPnK7eKFwsPjuR+3mvUbjXq36ei6hKbHzjfdxMPADu3JMwQHGwvm0ocBX5IXBc5TU9RZajsDJ7uXiFatyvZDcH89eyCbnVHWevJNzn5ZRQljKcyFABxv9K8dV7WTVRnPqwgIwN9GyUzd1JfE6vO3AE/zMay/HZozCI/geRUpTV7/3Je+dz7/6B/+aLJQ3nPqSrrCV7sBNZgoPLEkyAWB8imf4dyaeX7Fd16Z0lVQVPXW2UCyVK3dbnY9q6X2o9P5c/bnQ0l66QrEKRU+dKxQv5VJzkKT43Z+Uk/s081YLkgXP5++t5GOK4vGav3x52xC6UGW4Ltnq6qVfUA5//QrQVeulw+pnztz5RkRX4eoqrzbho6ujVv31pKYn04c0PVOpXYRswm//uJxUlUQJZU9/0Wk/atavmfrMDugKD5Ev7MblpKanq2tuZyWrKYo2HycbNI5lv/Nd5ngoee58/t59K6kp+qF09mwW6Opc4/0/R++u/qFtHVYURY8fIq+705cJXeHomXlbyCy30amdMYzTheyCniw16ucN7ajVdiHOltR0Fs/xdsd4PrHRv35GV4+iQCUsp9REib6NxwPcJbC/+6hgqLEv/cWrCVXPwesoSGSu6tk3/87qubP8JyltNl1Fq6vqImQQByIcxh9TeBjCZJIhBANd50k1e0CNX2o6LzBd1Tov7Ma1fPoQBAuU+Vz9x4iuZiDvtgdvvXTlNC/EFEWNHSROkcyUW5/YlZOadsRM6fDG92OvB+5WAAAgAElEQVS/19xgXiOTAbGujK5+718o86+g1dU7J+fVf/Z796PVVah7M3x0dazcflJJzqCU27fbzctAV831Tu2MrswYueWmve50ntaLp3RF2TFddbuQfnsOwlnO03JSVZNXW+4G7NNLLRbfeiMHzHevAwmFj6raqW/+4I8MZT+8wuk+r+f2M7pKVT9yYLJ5IFd/7nbXG8XTqewyHdBBvpq8Rj92u87DQnx/uvKwnpvXzVvt1tWkdqjQcmB1GN9H1iUhgQYb/e3llKoly0+dzr1cTDXyDx33Wav52HZcsL96qNhad5qX4+pctv4Pzfw8WKbjtMvHERV90ntn9T0gMPOW7T6rwfsuPNsYRpuZwsMQJpMMga4g0NAqJWBHzEeYrm7+7Z+aqYzV7LiduyiCd+smbLW42qie0ZX9Wb7A6qWrrn0rranx4kOn68KujdT5mu3CTfTqOGE9cV2/13wfb7VwOk9bLGexLKZkdPU/fucz6q/85nv/99qD//ZL6i/+6lt2tNUi1H0YRrqyHbtyXEE705wWpisHtoOXMzQKqCiKCnPGPN7CsMW7KxaAwrFBYD6n+TraZKjrmqqnrsCbKjQdVdQZRZlJFB85ziMrOauo+43YLDisfq7x8dsFqFtN3XhYyx1SFUXTdVU7lKuu4h3c3e6GXV3U+W4C166ciiUuNR23Uz9rKDOaqigwEd7owr5BtJ0hPLjgo/96s3hMVRRotXG2Zrtoualn652u+7SSnlMUmEboadgD7dq3c2CTGUXRkhZEBX13NjqNixC7AnGHCg1h5Tlg27nCAwqS7XEvXaHA7Iya+vYDFAys/fRNjGRd1xT1cKHRIjsDHfQaOHaWbnVBdCXEFGOF++9VzkBn6nOaqicKK+hl6/OaOasox9G7TPhZiNdr/ha/u3piHVFUHECWx5iMrn7e+t3f+EWM6s/8xjWICkbBwDB3Y6joquustVqr4Cru83brKbuwXRpEcp1O+0kTvnId+2kbdvHBnwtTvLXet0EgDQmhhdqtx22y6+FFx161HfJrIbv1qNV6AjsyWiyZ6YbTWbM7Dpo8PgPJzlqr+biNH3Get+3nlKiw9G4XprRzEG9EGjntJ+0OVm/DsZ80m09QK2ABp/fdT0/FjOFfz+i/4Tpr7fZzYky3024/7RD7u4692qZWQ3o6nTYzI1bcd8ft2O01KmFIjfMoPCSZcohxO+3HLZshHUGrtfYJw7/zrN182GxinG849uMWRryIXtj4itAOJR82m49a2I/c9Z6ecjurrbaIc9FrXnTaT+2Oi1xvlXiSHDbsdhldATn9/NqH/+fKh/8vpHsCMX1OL+C9kAoXXXl1k+2Ta1cWY/GLvl9rCu3orGSNBSEsI3w1xkvpnEE6hcfYuVHVfgt46CqsKypxnRcBHndiRFd+MO/9jvusUVnuf3YGEuq2VyrVR8MLiu1dU8+T0jmDdAp7zB19GLcFIroadw/ssf6IrvZouEl6TLrRXzqFJwktE9CWiK4k7cSIriTtuGGqLd3oL53Cw+ytSNbAFojoamATjkdARFfjsXuoao2yCYeqOyJlgrbAiRMnpMN80DaRQn5EV1J0U7BKSue60eoqWEBMunQZAb8rnSe1AyO6mtSe3UW7pBv9pVN4F50RFQ3eApONnwluXURXwTtH6GuQDt/SKRx6CEyXgpONnwluXURX0+WofVsrHb6lU7iv2aOb47LAZONnglsnCV296NjPnS4cuEB+pd8L9A2389yBoy5WbTGnqvPcJkdL9D6APm+4jmS/x+/bjEFvSodv6RQetIe2fX7D6TyDo0PcTtt/vMu2T++ygOusbelWuxQ3+uKTjZ8Jbp0MdOW0ikdjxnw8e9VKz8fJOYFejMMZnTOx9HkzcdJqk5OZIO+isU/VjhRb9I73oa772EovVUeQit5drZOEkFeqTXbOU4824/soHb6lUzjYvoXEN/HYfCxxoVI8HksO7yhhj9obncbVbOpIPH7QiM3Bubeeb0f3wbUfVotnzfRitnAdJVPdfdWTjZ8Jbp0MdLXRqZ/Dh9vqqVLfI47c9tUUOow2hc5aJfh1HhcTmqIvojM6+2F6RHS13sgdUJR507pezh1W1WPhSiXc7Xalw7d0CvdD3xDvufYtEx/THMtU2uxEwSHW0O06cMq7oi/E4/sVRYkXx0RXzuNiXFH0k4XKtUJyFh0bvftmTjZ+Jrh1IaMrp127kjNP5/LnsubF5e9+JWuer7Qc13lcyWWyxRXbddr11/PZU2nzfLGwlEqX3n7vZt48U6itut31ZjFjWm+9ZS2ZuavNzkbXfVLOnoaDwJ1HlXwmbZ6zICP4htO6BQnC02fyxYtm6kwFVmNOu3rBNC9W2coMzrR9ApO41EkzX6o2xYM+u93uhtO8ljOXinVxqYSyDZmnIPV47QkfM9zVau6kic8sb5fiyhwccE7+Oo3CYip/m+aYp7dH/K90+JZO4eF1qNu5D2DOnsvnMtmrN/8E/OKu7b6w65eJs3TY4uNyPn08V/tgtXE1Z55K5y5TGDP0frBaw0+tu527xeyZQu1nn7TvVqsrLcexG8uV+o/fLp5G0H3eYG6FUueY1v9+nzz7rFVeMgv/8z3yESVPAE9EqTtpw117BZwutZgrLjfoydT0S6aP4E3u8yYKSGR7vK9zJ59eRKf7b9g8myiS5Dy2zJPZytPtl32TjZ8Jbl2o6MptXo7j3CCQe/fmN3/7gKbNxouPOu1rqZiuG2fffK9ixo9mi1dycVhMadlb71hHNG1WT9+03ec1U9czf/yyMatp85Ctyrmfi82mqq1G4VgiW6pYZwztYOHefSt1MJW7UjTnIYUCJMzdgJSJqTlN05NllhAE5cdSDmbLNyv5Y5p2rCwyWfdFq3hE1zTdvEWZx+3UluKJpWL5etk6G1dRKkjqjvTfTiN/UFFxRgZ8L6Iraptd/TvBDrmNHZ7V0rOKMqMqM3ri3Ddv/VFCn9X001X7eSN3SNfnkuV3flg4Gk9fsAqQEE5RDr9275tm/FiufKtSPKlrx9HKnqG3/F0TuVj+Zjl9QFMVNflq6QvzsZhupE4n9bl09eEbaR1SiTr388ytus9raV3/j5XvpJHLWPfr+Xkt9TXqrY/dLvJEMSGk8wjy78ROF6vLxfR+lFJSbCfTh3lTp5E/EjcvlyvXrfxRDfKa+uL5kOVHhQx2jJ2cRxFdgVkn2DvCRVftlWr1Tq1ayhqqbn7v49b1tD5jFO63G6WUpijG+YbTaeQPaep8unCtmJ7TUn9277XDinbSajy1HcgBqGe//151KYaTKxK6ekY8A9Lez6YqH3xcWzJULW5eKReOanqmBu+uNpxmKampyTKfmjnNKwlF0bN37M7drK6na2L6cEgXUoirWhpnu8fpHw8lc+eSMT2WOp9Pzuq5u3yBBRp0GoVDkMSLp8gSPXas19LhWzqFh9W97vNm9WatfrtSOA7ZMt/9oJ4/pGqL1faTam5BUfalKqtOezmtq3piySqfi6vz+cZHjfwRI3W53rxp6nMmXtkT9P7lKriYosUPG4lzxdyClvzTd354xUweTiQXC9WnDmYmIB7XZm5Fbv75d1L7FONc3X7eALr61uq72Fsf9aGr7ot2+aSqaKnKaqd50dCOlW1GMsg0Pd7kPMzHj2Tzpwx9LpG7kNZ1lJNaMKLz2EruU9TjVsvrZEKRrS4nGz8T3LpQ0RVF2ItW8bCGM/8mVDU2r8eOF6wzMfVI+cnflxOzsfTZdPxIKqFjulK1Q0ljRtGPJA0VZoL2zbQO+Q8hz72uJSs4AVW3S+jqJ28XDmpGJps6lEwd1H7h3/9n8/Op7JV6617BmBXoagMSB2unqvYGbNmI6ekqpj2nZWWSqbPlxpNadr/O6QolsjIOGbqmGZlcctaT3t5drWYXFGU+W+V0SBsbgn+lw7d0Cg+9kzt3gHtqz536kq7MGjE9nr1SANT94OP6Ukw7ks0eiyePGep87ofvlBOanjgWNxZ05Z8f/53f8qDXfVqGBJozyfKjRuGglrzadtZtu+N2NyCRlf0PsJDC6yTqVl1CV3/1oHhI0Y4Wm2uIrq7bztNyYjZeeOS4z6rpWd28QwMPEFhvFg5qidchq2frclw7YpGs25t4k7tWSR+IxRd0TYulz6X12RTxPrCja6/kE6qiL5b3xlWTvf6Y7NaFj642nMblpK6QRPXgS0ctSAF8ydCArqzEjKIdNnPHIdaR/LN7rx1CMb3T2aSGwoOIrjQtkT6VMPDbZxpJ4HS1oChzyexSErICZ2od12leNROHDXUfoyvXvgXxRm0R9g1SunI7T5tNyB7pdu4V00cSMbS6IunhN1z7ekpTNf1Qrvawipz8Y1J+vZFfUNQjxabgv2T8cp02TaA39BFt5wKlG/2lU3jnfbGTkmT2M0vpSollb9vOM4Q6oCtdmYmllsz4jKLsz/3wHXAZdS6GwudmreNFL6Ir/Wy9sw6Mkrz8jd/er6p6qrxSTs8nrL95I60p6sFsdc3tpas//05qNpa773Qdga40PXk6FT8ArqhoNFXpRqd+MaEpSvKqQFeO037URLkfRX1WictsdGoZXdF0I1NprqCQ/jPifZ88thKqYpyvkzyror0cyLPa+2JMLECvJxs/E9y6ENJVp7YUU1XdvGXD1G+fnr3b6XbdFqKr9kc184Cq7jer9yrpWRWCgYcU5YjVctzO7ayuaHh1pSpa+nqr89iCV2ELhSaKGBC6+tlq5aSuakbuTsM6orJgYOOCocwkaDAQthrqqhq/0HAYXX3QhjzfaL3V7XZtqE5N31ptXjQUnB5+tZLUYFKJ36Jlv/8OLv/eX5nIfcGF4U8VIhvPqql9Cpp1Uk8ax7/S4Vs6hYfbq+4TKzGraocKzXVYXal4sfIc0dXdT1pXEpqqJS7X6xcM5UCu8VPkMnOpXMZQZs0amjNR9CIX0zDrILr66q2vHMVoVeMXgMMg9q4ny+89KZ+E+7GD8fiCru5Pf/N/fTOlKur+ePxgTJtNFh854K0zSmwJXqTlDyjcmzY61dMxdV8sC+sturr6wIN8os9f3GMu1rltalqqsuaSkD72vt/4TvVLMeJH+J8jfJ+tczerK0bBs8Wjv+EnGz8T3Lrw0RWEDuzWE/RrX0j1TVLIu8/bOJM9pLRfg58M209a7Q4kp4f03huO/ffv3Xuz9uBD111HJTcgbgDfsk19L+wWSgrOChBRGNJuB9LVs5C6K2Svd+BB+BHyWrv9jAbLN1z7acted3l6eLRUgsTkkJK8ZTukPPxy8xHKMo5zjT9u8x8yR6ur/uPJNncn2CG3aTn5mqel5xjegJU6wI8iGYCH/AiXcdepW8HWVoJeKIxdDEX/kCvhfPbEFcDvVjsufEsx/Ai5JEAX3XmEKkXexjzIfYaeYo1x7NZT8vt94sgbjv20ba9TfyP6ONzF2CDg9T5nrdXEfoT//5S7LIwb0eoq2mrBUDfsC0UUOBBzPq+Zc6q+P5a+OeZN4WKLZLmWbvSXTmFZkDAlek42fia4dQNxxMDgHh5ddd32nbJ1rR7QbyQHbmmoBUiHb+kUDnX3T59yk42fCW7dxNDV9Pnc8FosHb6lU3h4fRVJGoIFJhs/E9y6iK6GgH7ZRUiHb+kUlh0hE6b/ZONnglsX0dWEeeJemrOrRKUhKbyXdkbPRBZAFggJhoNTY1L7OaKrSe3ZXbQrOLcJTvIumhcVjSzgtUBwsAxOsrcFU/opoqsp7Xix2dJFD6RTWLR2dD12C0iHH+kUDqiLI7oKyLAyiZXOGaRTePRoqGcUs2SZpa1+17GTMt2ubZXqO9bfthYMq2SaKzt+AgrWzQULFF2zDMXceWW7qkMsLB1+pFNYtPYQr+WlKxeOaT8QN47kG+ubG2SjU7+UK+8wN49rVzNGbCEeX0Ln3m4udcK+kc4ZpFM4GMDUrU3ZyLYWFGWboX8nZXareN2Ec2QQ9+zmUbtkWmvdemZbnXcjdPOy0uFHOoU3t/1A34SUrpxn7faq8KN3fxudD7//R7+V/LUv/JertSfCD9t7C244976W/+5P6I/ne7/2fHY/uvda5tcS/+4/vfZX73V8CQs8RSfrg+gMdglnwlSUTO80F40mcPSNQUZJNDahG9baSC0iKjzSisNVWX+6ot1kGJnNaQPWMbiL6+b2rLazFc8KUBVgY80y/Iy1TY2AJaNkbafMcDpAxA81F0M1q8IHb9wEAPzODMIkDXwhKjywMIkFhI2uXPtu0TwWj82q2mwsvdyTZ4Aa2mkVj8aM+Xj2qpWej+cf0oOR6PfsX+deztinakeKre3ox10tp+YNY8G0rmaNeSGDIpM1uRfcGXg0BkV1RBJaMemsmQxw9Qz18BXTz22BWosrHGg1YRfeh674bGObVY5vLN6ssSuWtdanoj7FtxnNd1JjP+7sS359qt/FLY4fH6qZFB+8YTGKg5x2yaAzNlY82AuucLD1hF16yOgKUg8oyhwco6koypFLDz6Bo/98fxud+jm8CNBTJcivuNmf87iY0BR9sbIJ7wnPrTeLh9GpmfsSBThUd4r+uDMIxNPjk+JHeOexIvJZv1EmSPtxhYOsJZKNLGBbCyNbTPQDUpB05UM163M/vAXdAlCJVdz3IgI8Nkuo6Mq171r5C/ncUqH6qFVbisVOV1d/1ihfzKYhdXelsQa5OxrX8tkz+fJdu/MYctu/9ddlkv+7C1k/0udrttt112rFs/niVSt/Jlu4Y7sbTvtWMbuYzl2pttbhCNr2ipU7nTbPFip30YGzG53mzUJ20cydz5lnrOZ6t+u0qxdM82K1/XGT5P9eb8DFY1jJuWt165xpLuXzS2b+1urH98v5M+nUqWwBnwIVjhzBfXHf9yZzBtF7uwJ1wdtwoCjyNCq2LMRtRN/uW8OQbzKFPXIhGGWQsCQdUEioB2JT6FUNu2AlPSJk+IBibmhihVmErFrQfB+/joKYHNgBLR2W4YUQ/sPGoWUydRK1E+zGAYBvliC+x5YUSAqulArhkeEuX9jRSKBdMuBZvurir7VYCM67LqeUIKjUP7Q4WEcx/PhQzXamUE2gIgTvH4kRTvHbwVTZ2dNMYbE4MjidSRBvFcGAriGkj2/SkqII2a5DRVfVtKYoqpFcgNQ8kMn3ez+tnY3HT+Wt6yh1/cKXqlfTsblY/GjSmI3nrpix2c//8QWS/7vjuq0rce2w1f6kZR2LJU6lE/Px1KmEpqdvrLyWOpwuXi/nDmuxpTff+VY6fjRbvFatlkxDjUFu73s5SEugqspsPHu12dnoumuVFMrtXf47kv/bRTm/s3edrtsuHwP91Bk1djz/xsqfJFVFP16o3LSyC2psqd553igspvK3GfTDDgrmDHy06qLBTnh95XPs0NGVXbLqa5aFORXR1QM8XCKiMlcgolUvmeaCYa2Nml+HhgBKwzCIlgxl4ZVX8NIHR3FXTFj1lurdFdMo2TychatH7PUANjXUrVId1kzEStxuFAB4qx4SRSXj8BeWKYABhkLCSQJaUIXY4GzLH5AlsFSmTmvBTEBDyvAMoQF/Vw7XlxjghYaAPYUQn0hIIaWresmyIVSLjA10tUzWwbjLwBds2KUJb9rE5mA0SPn/UNFVMbE/FtNjhq4aZ8uFw6pxsek6reKxmD5vlm8V4rOJ/1p+OaYo2n5d1ZLFq9nYbOrGI5L/G+jqMqKrD2rmQTEPfYzmoUd89q9eefXfauqspunx/J2GdVQzLjU/eVyr3qrVlovpA2rsHOS46m44zVJSU5PlH/npym7cqtbuVMvnEpqWLL//ce1MTJmJFx912leT2kGSXksiODDv9XislKsrugQUhnW6NMQLArbCwBcS9RJSdc2ySrBLAgZWTxvJeFTPGNYauuZvZVDDySwbUZQCe825BLRcY0soNGTjl1WYtDwjHUZIvWRZdBcfGfGREGH5RagIv+/krIBABWxEF7v1viQhqORt5nD6iwGeK4boXy66QqsrCmOPt+IuExdVnk4cjhHHISVUdNVpLlvW1UJS07O3m0AkF5uwptEUZS6N6CpefOxChjdYRRUbd1Ca0Y+c+lJMX6xCUuCLhnqo2PqkbR2LxY/GfXno0YP/+g9vfAm995qN5+80y8c04wJO3wgU1ThvfOZXf+c//Hoqe6XeulcwZvvRFe0nWIHNxvKN98tHkZAN176W0hbyVBwtF/p/mfeKAUAPdXmdGTm5uEAZtTNwhb225aOPZyinkUx+U1TeKyLsn+rmgkE29fHm8HUJUp90B7VG3YQFjSVOsUnnUgm4JI3modVnxqqT1aqnc/GDdsk0YKM8WTBhqoOqUdzP+INXeggVhf5QMAqPqrAKRGuvFXGlhVtBtqRS5ZFMGl0cVucw/Igg5zVCNSJCsAUEO1C7DUufbeUwhb0lBSX70JUYIBGU94qQ61Oo6AqZDsfcRLrSIaGwAxlUN6UrdSGdPmroKIgYv/T2+99K6Zou5KHHWycIz737oBhXlPiVluvaFYGuOit5yNF9rGK/cJpXzcRhQ92H6Arn/75XgUTgh3K1NbQt3mmVF2OKEsv/DaKri00X6CoJdPVJKFLa7xyI3BlwGAGeFDwBC+KzdQJ9HmvyuMrOq917Sa6wVwYfcbwDCrnPb/pa55UT5k8oBkgjbHwcF8cj3kGISMR3GOQFRh+6ysB6C9234OdcK6axYKC1kSiZRcxoDND7UrMrbCMEURkT72jnYSsCFbC/gTbaiYTR7fL44WZdOZSu4fjxoZrJ98EbFqneNSgrG/gFV9hTlQBjjw/SLuM36R3P4/J9CBtdue3rsJpS5mIa5KfvdF+0rOO6tt+IH9C0g/l6p9tdbxYOKoqixeY07VixhfJ/K2rSethpX0/BK6+l+ic/8+ahX/HQVfuTVvGQiulKWF259nJaV1XjbB0HAxsXDEjg3Xwb5/+27tfzB1Ei8KeYrprk49+vwuqK0BVaXf3Uk9g7/KAQnYFOsenvrvgQj3/FCfEeGjPB0Qb6Yn+E7RQV5tWiqT2KR6H/Ca9SJomueHBM6Br21gcmGuyXc3Q7iW9fA+s4vpQhWx54FI4NcOwCLM3YhdEJu4Cv8eqK/njZw6y4O+gAyuSwC9SPNG65eVfy7h7gSsQPMw5GtaAPsxINuHGtRr1tQVSYt5sHYEWvFJba1NoiPPjjEl6Fja667vM2JLd+hFLaY4PixNuPbQf/2HfDsXHWbZTYu9vt8vzfkLEe5/+micBJHnrSMyTxdhfSe7efQ1yxs9pqPaM/IobCbUgfjv9YEnGc/7sLukEicPY9+cikQSbx1lPbfSHt6oo2LeT/9vfekCsdqRcaC0iHH+kUDqirQ0dXAbUzEruFBaRzBukU3sL40Vejt4B0+JFO4YD6NKKrgAwrk1jpnEE6hWVCwxToKh1+pFM4IBBFdBWQYWUSK50zSKewTGiYAl2lw490CgcEooiuAjKsTGKlcwbpFJYJDVOgq3T4kU7hgEAU0VVAhpVJrHTOIJ3CMqFhCnSVDj/SKRwQiCK6CsiwMokNLmN3cJJlsm+ka8gsEBwsg5McMhOOR52IrsZj91DVGpyPBSc5VAaMlJHLAsHBMjjJclk4IG0nha7gB3GWtUU+OrDfjtJ4wy/wAzJ2WMVKF2qQTuHx9zz6TbGV2e73rezI1C00ZucIb1Em3F9Jhx/pFA6o/yeErvAv+fnZZXuwFvuJuHAawh7EyPiIdM4gncLjRwWCNz2OZG/q4DOCBzzEZEdTxr3pt/OnpMOPdArvvC92VXIC6Ap7EUwbPefB9DHDVonm0BmgJEXQNK+u+BE+PtruOa6G5tEZcPzq00/b3oq8d1sTiQVQx8FJQsIJQ+L3wjXKPCJ8Fi/xMe386Dzxux1fh46ufKhmTdn+ECa/s/jvMHGDXESAx9abALryn2W3CTCE8zf7lGCrqwXL9pzG1qfshN3izgCnouF4kXB6Jm6t7zBQ3xmgo7MKV3h0dUpc047HUOASMm/r01y2uoKTXrebGvZ5Ht0KGV35UM309sGb8zRhfb+z+O8wcYNdRIDH9psEutoxErZaXXmETC1d8TMxe2fi4sQcDVUin3lOQfVYMpgPkfcGY1eILuwwYLhXugpK8V3JZfjxoZqJ8cNbADkeH/zO4r/D5A12wRQeTIz0T4eMrsgSR8ijQ09BhvdS6Jpc8Czm6FRpQjCwfif+xikH37QgjzcKcNHJJlpGsOkVVC0cvQzy+0hDz9L31RidooY4zzTUgiMJtGS4ccKcQfReMfcVzXBImoGKhS6bcLhtPCzt6BKHpa4nSCOwh9AWyipC6MTnUCKAGeXgmxYc5Y5dAKMXy2SrClQ1DRHTKQs9uR/UoA4l+BFK7iw+SIvh9Ixwkjh6qte1h2Wu/nIY4JkFxMPm0TNMT7RFa8GwfmThZCjs22UxsSQaCrZwn/567PguU3jHT0xmwVDRFc0jR1N3mys4nyl9pcSieYiK/Gm8bZLvuQ59RekK5VftsgSm5h+S+SNZ7FO6ggJsyxN+tq+03oTTXzFxziEshzwiWcJp5gxb+JvPsSO6GsOIYPemrn/llQU23JuQopdG81B/+R2qy1NPsXe9a5aBJlg4zZWy4JNJ8jzxZFR0+iLeIeO74EcQzDBhL2LfYqaQtb3OE2VRtw3UuAzwPlSz19YRXQXaA3sUHiq6Qm+hMpaFPFBEEuEeNFXkqyuYkXnTePPFjUBXaGM6Ji1RJhmaKV3BYkLpSZ2O5ph4Okm9CM1D6SJMWPtTdhQXVSLi99g9o3mMeW9EV6Mx+N5r6YN5LAyDDa1jhNUVLLa8DiUCmLgDnqVh0qI4R0K5TLTnlgundCXeoWhnfgQC8bytXzFmAuxE4lN4/scKBHDBAN9nQCDV0ebARxQYjFZXAXTEbkWGi66Q9gQoIpIoGQDuOV2h0mSEZW7mDdChBKmmtWJZKzDxFGVyuqIsxb/dXJonzW4fute6xD8AABlhSURBVJIy4TTzXjEA6KEuIS+fMFRR2maBoN2ib6/lucJ7lSD1c72Yh8bQ4ZVOvziY6Vf0DnkrQ3fEwerHzNTJqmulN+QFK7YFEmCkbojqy4ieSIKHONgOFZWwHKoVcShPMdQFbEbYx7WD6yOGHxHk1D642ujdVXDm37tkqeiK0QOjEzaMsjtQxoQAHbpjwdKqbi4YsA5b82xnYnRlIiajozAy5VbSBBwzfYTYozDiU1/de++M6EnmvTAeRTsDR2T1vVezOV1xcAqDb8/8D8qYGYPs7itZ1graVrNgANkw5IN2+EEbfn2Pfz4sfEvkwx3ThHAIFLZKFv49CX5/RiXgUEdvMaiBxduZKwlV7N1A2z3JAU/ZnatKn412BlJLhOjf0NEVClbgDOZs8k4jeyhigL8jubrBSegfjtpBGbzBgU3cOEsJPkx3vonveKkk+HczaaIObFvHxNCVmDrdGwXFdI4tRDePMeMLPTUSbPPhZiTVhawSZnaKUtCPUssCAzHpFJ9DwToG9yAPDDKSYBdcJgrR0wAjk042ZeDg5BqOmHl3eQgS0DQI6yOs1UgBpIzoVhh48G1QfyJ+6CqT22RTeKOxAlkAjzAwhhCDUJ39d4bSBlHhoQiUVEjo6EpSO0qttnTOIJ3CUsNj8pSXDj/SKRwQZiK6CsiwMomVzhmkU1gmNEyBrtLhRzqFAwJRRFcBGVYmsdI5g3QKy4SGKdBVOvxIp3BAIIroKiDDyiRWOmeQTmGZ0DAFukqHH+kUDghEEV0FZFiZxErnDNIpLBMapkBX6fAjncIBgSiiq4AMK5NY6ZxBOoVlQsMU6CodfqRTOCAQRXQVkGFlEhtcCtTgJMtk30jXkFkgOFgGJzlkJhyPOhFdjcfuoao1OB8LTnKoDBgpI5cFgoNlcJLlsnBA2kZ0FZBhZRIrXahBOoVlQsMU6CodfqRTOCAQRXS1e8OiX/5bcNT0ln/43Joti4TkS+mcQTqFQ9LRI1UjxG4iHX6kUzggpMlMV+PiA3RgDD2pJaB+GalY6ZxBOoVH1p2b5wIemQq0ohC7iXT42ZPCkLeFdsaE/BvRFe1IdiDYgoFyytH73n/RCWNw+pl4lrO3CPmEU5b0/SpsN0Vn2OLQs57T1dA5dfjItOjMwLB0afB0hQ79g243jNKm8YWdu8nO8xcP0cQi4H2oZvWwsxkpvNkQQU4lDfmZgRFdsa4czoUiitk1cw5zdcWgCY6IsvuIqvHrLUZzXkg8atpzN6QfuPeCQ+IgJz/bmyjtO7vad2T16FrHFR5dnXLUFDRdscEd/ISe6+o3zU7dRMgn6RcS3B2OHx+qWaU+eNMUJ2IWiB5n2cJ9mNw9XXCFd/F4RFe7MNZOig5GVzupYXxlpFxdsTwOzCepAcXVJDrYXuQzkqKClg383z15b+BaRRXsxQIodfheHhzgGYYfH6qZUD+8BZDjc+v9zuK/w+QNdsEUHkyM9E/vekkz1Bb30hWalNEtDKTvWfCB3OfzO5bhAkWkyJKIZyKgckDjOkpRz+ZHSCadG0JiOijjqYhPD+lii9QLmRSEZA1ECIMylmzxjHY0xUmY33UxZxC9V0jchSyI0/Gh7kfFlk0aEvGkrEQFgv4fU9hTEXS9ELcRc17ANeoadsFKekSE/wOEASiWIOMowW1fHKJIAQrYMcDTUZjHtajFoOnYTVCMCwn0+qOF0tV73ARlBkHuxxZbxAFBLJ3WsHVYWNyE4adPRiECAaZqeLMJ9+sdAR48FwwNHSGPQGnTUacL5Bp+3GMNw0VXJKUppM8haXntkomchLiQMJ6C2xilZcRDqDBNyYhfL0Jf4u6BhYJVx4ngcDLiLiyTCUutmJCiu2T3VMT7Dy/wV0ycxRGtmTCUBSGEwEBJYE0UpUTBhAcWZK5D+br44M5lh+SKea9gXjEtMqjpc+zQ0RXtZWRU5KsPcHcgojJXcH+Z5oJhrdFROyQdsHM1WD5DtPw1MyZtF55ykUGWgZnOORhWccOFsRjYhUzsmAHBdxBdCf5YNxdMM2M98PqjoDj4o7kCiYlBDlozIcywqllSrvG7CQO8D9Vsb4JgIsCPYf2oN8/ycsmg8wY2WPXeEewz0CVTWJTi7x1bgAfLtFmne5ixd7NeptgQRYb9Olx0heYLdLpHyJ/OF9BHu2RZkBINynjGVjyVWLOskgVfl2zWW9ADaMYHfEPoCs0QEZnVM5BZFcHOUxEeoBHhMQ9HKb3BjTGUuRB6B/EiHkdwhla+M0dEf+gwwZzBY1Lv5Mvn2KGjK9rLyLx8agkfkfKov8iiSlq6wot1AKFtAX8oGNV0ZuaDmeBEiIEImK2SBXlNOZiR0YibkKkhLCuor8GGiIxpgMv0ugkyO/dHCEJkLDxL42YnE0eiHoyYY3UTBngfqmWiq816h7xT9LoA7k0D5uVk/IzoarcDcW8wkAX6gD+wp5GohWGVTOiGFdNYgAyeZg8fkL7Bee6RH6I7yxkoixNyexwbfWuhABcZo3sq6rKc38LQxp2frpmoA5M3z7AII9PJujj5osuv3RpoNOWZ94oI9lAXGlzYXJIOQ3RiMfLWcYW9BuKjj9dXyX1+U+hTrwQJPgEILZjvk2gbzbWNmYwF5aAlKAqE1kkwSBGSQ4vLjAFeRNBrfsXjJgJL4YUFdj1svV436aKVHGBeAAyhJa/ZkTJYvXG7CcOPoLMnfuCNb+PmCFMBbAoyGoChiRz/nSHhiSnslYdgLPYODUqxIC3zWXyHzsuR5wraesWG91OoVld1q1THfgjdv4AcDC9vM6a5gCeDMEfGfSBCja2lwC3xVI6PTYAzMg/NWDbeT4i8Dr/uInL6VSSsrlAXkg6mwIUqTBPCfXDHgjkjAMhAaziPeiMf0HeFOO4MYBYcGvIN6L49VL6tU7uqc6DCXGGvmGmhK/riTeCDHhwiu/DQEEUspp81HG/AHc2+ggvkJpyBPC/GKF1ZK7bF/ZFzmwB4InNz9cbsJhw/PlQzQPngDSNPz4jR6yxbuA+Tu6cLrrDncRQwQNMRNgCiGacJr0hQf1nkxTx+Q+GdVUR05THm9h96Vlc4XIO9CCY7NFgB/ESnh3Qiw2Y0uBZGTv4LKAAzO3MFyewlMyaQRDnEishLZPwIuDp9q8yE8OASnqsyafwCKcgGhe2NMvoSojNA8/FfjxugkBr+hk7Z6HyZjp4j01xUmFdKJv60j7D+6Gth3GTbatjSkAuQ40oYZXi7fDjE7ab7MlhPkWADC18LF9xNYMjjAqmhiGf1ugmbyNNHAPm0D9Cz0C9YCPIg5DuM29gFVZi4f6B9IeLHE9HxjCrMaIIFSMOIkrylFGz+O0NpiKiwIFCYU7Jxj7+MRPpTxXA34aAU7R22Z0cQGe7LUK2uuKlgR0PJJJv9+O3oKhALbOIMgdQ1FKHSKTyUVkdChmUB6fAjncLD6qkeOSGlKzS/2+rnuj3NiD4OYgHpnEE6hQfpnejZoVtAOvxIp/DQuwwLDCtdBdTcSGw/C0jnDNIp3M/q0b2xWUA6/EincEBdG9FVQIaVSax0ziCdwjKhYQp0lQ4/0ikcEIgiugrIsDKJlc4ZpFNYJjRMga7S4Uc6hQMCUURXARlWJrHBpUANTrJM9o10DZkFgoNlcJJDZsLxqBPR1XjsHqpaY7L9nThxIlQGjJSRywKy4T0WAR4DLKIruRwtEG1jsdinn96Q6L8oNhIIDqZGaAR4Sbs6rHQFv4W0rAz+UecAtkXHoLEfMA4gaJIfjbx3knt3522jv7Oe+N87RoDfOShCVTKkdIV/HD6w20CGhXrJqtMTpkNl+vAoE3lvePpijJogT4HD1OmBuWPUJdiqI8AHa9/ApIePrsh6SDEWSOqQAdoO6Qzg/Hzh3JoBpE3soz7v/fJLyme/1kbhwfZL8+zMFnYTRw75V4ffIrHEL79ECtPHg4kxRsHAALAIZzrXS6a1ImbKCKCeEIjsBTwgmWK4D6ppnNz31Ydf/SzB+xe/HGgsPQI8Rk3I6IqGIxAI6FFdg+Abzn7uTd00iLyJfFbw3q9/7XPYASnftF+a/9xLH/ZhHSj50h3wZHBa5K5vfVGZ/+rXwW/vHMZ3AvLhyHsDweGaZfZk3gmkmvELFQDPJliYrvqgmmLY8xXgnJPc17/2OeovfTyFst0AX0WAx6AJGV0FhORodbWlYQXvxa4luN9OiOfOYQUoTXjq0y+/xKarA3gpHSl6HT7y3i37c7Av2WGpg4kJ89M+wPeDK0E1w55QBs/hBNf48KufJRO1AND+6ac3IsBjOIWLrth5xiwvyyt/wE53JkcIshOUFZoFnD6FjklG6zNYUYleR+hKOG+fZfTgkXp24Hrvccv4FRqpl5zOHmZn3LVuPu8ViOfOYRLuUOjKybfeor4q+LOHupjDD+1iir2XojRTpwgnB4fjY/IBpQii5LB2GlqHTiTQFcszj9jsbG8S4aDnpkN58kaZSibH83s/elxy13gM/AEf4EXoEpRSVN9464soiuCBPZS/LlKUQF2bzbEGuT/FgPeAIVR0RTNnd+uQr4UTCdIYeAgTCfgM4zPr2yZzVLiAdFaQ1oU6M3qW0BVJnIgyhtKMHrSW3nzhODBC89Yve9Koeyw4AR983uulKxIMFF5o8SkkjqXgQIro84IEXjiiq0HBQnMh1iFdL0zIXnkF0q2hyRl4B+wtwrl6CV2hjBiMwIzSA5znF6WTgDxtVsmGHOosDxYWRXJ8WHXImAU6++gKXBU1BvMc+1g3FaPXJQdt9PCf9wFehO6NTyE2oCg94YGIrobfD7uWGCq6gpdMRslGnoZwvwbtoRNGOgEUlk3MJ7lHoVneVqsrPsdEfk7piluORg5pvZTYUAmxRv6I5Fc+7+Vk82EbvYtClMPmm73zRBLEF32eS+gtPAz2mt7JJkzaILcOzMwER6Bpq9BqSVxdiTxEgY2BbAK9sZRI1LkEuhKzIvjoiiGePIiWU4gvUZpj/DV9ihUOy4UP8CJ06aSKv5pCdyK6CkHvhYyukEUIJbAIHkkBjB2DOyRmMhKa8E8ARWfu5TASD4H0j+wr0hmiA8MUyyhZyLHp1xkaDAlB5w1LBZ/39iebTemKhP7Ep/r5/zCICpPf9NIV6nJCAyLCfcFt7ESIReiWpT50hVIpwjrJS1c0zC4IAVew1jzeh+eI+EeNJFSesXA2cIxMuemqN6AtQBpTlxAA3Nw1KPkNBv4pBzwb6GSgqwUcdscexcIX0ARxrUN8g/mk6MyeCKE3TThsHYQQCrEIzxeO4yqmmTEUEoTsrZEZUfaLLeiKb/aDCIm4/Un4SOehvLDgydHqaujw2JyuOOtg14BAH4AfqcBcAz7hmAGLHPAHu9wFkH9lYCWHarSs0gP45T4T2O0y+ejCNDMsDTHUISFd9UE1BXC0M3DoQN61wPDRlbCXHb+Uoq9tGWkpsCpCf/3piu0NoMVQpB6tinAsBbyXzhNRdWyJhtyY5IQmwUAoQDZf9BDkro0d1ge2oKtPYY5JDIq3rcP+Xfw2C1gK/zEaY9uC2Z3hzC7pkEGkTfdkk8YGFO4IlH4QqkmnwKKKxugQ8vrTFSktzMlAPnsfTHyNBiFohJxAmcmnFzyGLydd3UDb0z2oJlstPhW/Ij/Sin53NeIhLXx0NWIDRNV1uz66CoRjeihnkI/TTVcRZAe1QAT4QS04pucjuhqT4cNUbeS9YeqNSJfALRABPnATB1NBRFfB2FUqqZH3StVdkbKDWiAC/KAWHNPzEV2NyfBhqjby3jD1RqRL4BaIAB+4iYOpIKKrYOwqldTIe6XqrkjZQS0QAX5QC47p+YiuxmT4MFV74sSJ4JJ2ByQ5TPaLdJHMAhHgJeswqm5EV9QSU/xvlAt8ijt/Gpse0BQqULHT2E++Nkd05TPJ9N2IYiPT1+dT3WLpfgghncIBwSuiq4AMu71Ycm4NOcNw+/LBlYjoKjjbRpK9FuC/cca/RPZ+O6JP0o3+0ikcUEdOB10Jx8YEZMddi4WjbupWqc4zMuxaxNAeiOhqaKaMBG1pgXqGHmC4ZbGgv5Ru9JdO4YB6MHx0hY578R043dt8sjSBYzd7v+rzeSh0hRSDkz4XzB1V2kcP4RacVQhpF8RzpISvR3rpoyvh5LRPId8P/gs0Ad2uDrnY1HvxCV5w+BY7DW+klhxFZbiNY1iUsxOeDIOdsdmnwbgYnFvmwzaTwE816yOA5EPBR0zhftzxg/3F9d4V8UNHEnLulFCULQTpIIMtD86wnf6ClKFcigoPRaCkQsJHVzvABD9FkCed29L+g9MV1wofTb1ldTv7sp7p69I7e3iopQS6YicE0kP/eE5V4UTqwY6X3hUz9S28uff6hpihGioEwlAquC6k2uGn+Y2EutiwDsM1O42zn0VYyU3CfcA9wimd/UTgzCZQE1AFE7ht1X1l+W9y/PD8Qb3zm3qGEhgxNVd79Ef3coX9jZmmO+Gjq2myfkjOzBXoCp8WyFOBiJkR+Fmf4aWrKUCPZ3VF2UuqdvtWXaPWno3+IvF4tRKOqO89vd6bqXwkujOFR1JbeCsJHV3xldOC9aAkJO/Acxw+G0I2RekcyfHqZMbHZ0l8Uoa/oiskNLOj4QWeRJxO4mh2O5aD1VOeHlZNj6AGNSjQqUyYBJL5I9EBz38hnIgCC2xq3POsrwmjAc4WdCVSlEhdfRc9I7u5ifcy++NYDT9Z3JvJcDRGHUUtPAU2ro0inEWrPPDDmYUROAHbJLhNli8Acvo4uyYXHL344U3Nyz2ORumxm1jgyDSktjXmmY8IiSL7ChnEvgw/1HNBmEhd3mAyoq4fWQZfxfJBZhA1dv4sU3jnj0xkyZDR1ZplCHEGlk0HTN+HrliqbzEJFkGSAD4YxYzSssm8DojQtNbwTgecRByokdESzoAlJhEXYA2DoLnCM/0IdAWX+Fvk+eayR2YXBOJs4n3oqk8TRga4yaArPnZj8wp5myaTrrzOIo6wML6j2Z4AacRG3LngvSkAUszfLTgISmoFmCSmE7LHYeH21ubF00qiIZIjTDSpN/XBPPcRRlebCBnEO9joTzUBYcKIgR2ZvaCK6GoQYw/z2ZDRFd3OgKeHaFZFJ2V96Aqvh3DKbZwNi+PMLllsTucBInY8mEj2TSKOl0pono68FwO6XrKsDHnFiu+IunHQcx4Sgwlk+cUf4cW8KzMyfRv13G0y6Iq7BTEveo/FFtbEtryU5Fe2tcDGU9oU5D6eJRH6huDT61ywEoLkvyCEA5iRRI+oNcsqWbBEYgSGXy/1mhc5DtxEGMaTM8w3AuHR6riXca5l9TJNNhFC27yXfyO62ovVQvBMyOgKWwQFJdB7WmHQZ3QFixs2EtGRnTgDuo9fBa+YxoKBg3J96ApVRO4LjsSXSnQyiF3LLpnGAn/xSyetJJCCg3910YHFbOJ8OKDJ67x0RUI3/iaMCh9b0JUYABQDgyOL+/WtiA03/SzEsEFX5DTGtcmb/34ywn+PhMFRG+neB47zvpDGjeLOxed2lD9QCfIscInAfHVzwQB3EoLnJODhMS9dtGG66qK9rzij8QoPpqGYIeJaH+bRlA75E6+ov5BBuojhh1uMOykWLIw8rC1sQ6DXvINossNnmcI7LD+pxUJJV7CRDwUQxEGf0hXPVQ93TBNjCADkzWqP8gXjEUoEpRgX2pyuOFipJ8MgiFiKTUWhjJmBECKUKVnWty1rBeKTCCtcAqNAroZIVyw9eZ8mjAh1W9DVp5LtDISQF+8FjJAFy0bji1Wy7BFZNOBq6FyKgRlDiwPMO55SDCOtuHNtSVcMolQUEAleodI7iK5MiLFz87K5ghCTXzA8JNcVAunwoOi2r2RL9Kcd0EYDvy6CdvmEDGJiPvozSxJO4lKjnYHcFqG5CiVdsQkgD1/AhIsEIihtgA2hAJ2mkXe5PMLAvJddwCPM2fBiCL885jF9zEZICP6KviJmPk8voAyjQ/QmGXyVTuH70xURyYsJ6cmh1TjyyZswGpxsRVdy/e4K7CX0AoMH7muhl0dj2FHUgn0ENY3jnIMcWSRDZlrwgTmXuPOCgpwU4BsxEGCx3ZhMdtHPvHy3xWZPoXXMZm67DCF3Ev/vQ5Cs6sEsy+mKKAPNZL5MXRhRL/qG/M6SriOJ8oPpsKunRYV39eCEFQ4lXU2YjUPfHB9d4e3s4f1/5L2hx1SoFZQOP9IpHFD3R3QVkGFlEhvRlUy9Fek6sAWkG/2lU3jgLuovIKKr/naZqrsRXU1Vd0eNlW70l07hgDAW0VVAhpVJbERXMvVWpOvAFpBu9JdO4YG7qL+AiK7622Wq7kZ0NVXdHTVWutFfOoUDwlhEVwEZViaxEV3J1FuRrgNbQLrRXzqFB+6i/gIiuupvl6m6e+LEiUDzdgchfKo6KGrscC0QBCCDljlcC0gqLVx0pSjd6L/IApEFIgtEFogs0NcCYyRaZYx1R1VHFmAWePPNN4OeHfvlv/nmm0yBzS7GophfVfHOTtTerDnR/cgC8logoit5+26iNP/93/99Z+R/O3khMRbFtrbETtSeKHBEjYksgCwQ0VUEhFBYYCyssJNxfyyKRXQVClBGSoTMAhFdhaxDplWdrVjhJ6/+Mjvq8bdvbz2U7+rbYdDV+6/CMen475df/cmu6t+88Pd+SzFefX+T73ei9rTiKGr3JFvg/wMf7U0ybPi4hwAAAABJRU5ErkJggg==;clipPath=inset(0.88% 6.67% 1.75% 0%);" vertex="1" parent="WIyWlLk6GJQsqaUBKTNV-1">
          <mxGeometry x="-490.93000000000006" y="-1710.49" width="631.86" height="500.9700396442731" as="geometry" />
        </mxCell>
        <mxCell id="WDdC_8Nd04Wn6b3jCk4Q-134" value="Send Approve" style="rounded=1;whiteSpace=wrap;html=1;" vertex="1" parent="WIyWlLk6GJQsqaUBKTNV-1">
          <mxGeometry x="-312.5" y="-1177" width="89" height="30" as="geometry" />
        </mxCell>
        <mxCell id="WDdC_8Nd04Wn6b3jCk4Q-136" value="Cancel" style="rounded=1;whiteSpace=wrap;html=1;" vertex="1" parent="WIyWlLk6GJQsqaUBKTNV-1">
          <mxGeometry x="-121.5" y="-1177" width="89" height="30" as="geometry" />
        </mxCell>
        <mxCell id="WDdC_8Nd04Wn6b3jCk4Q-137" value="" style="shape=image;verticalLabelPosition=bottom;labelBackgroundColor=default;verticalAlign=top;aspect=fixed;imageAspect=0;image=data:image/png,iVBORw0KGgoAAAANSUhEUgAAAg0AAAGqCAIAAAAHi+AIAAAgAElEQVR4Aey9b1gk133ne17wol7wPKkXPDf15OF5LrVirylfnnupu6yX3uXe6+mExLQyiakYS1RMYlJhI1zhKpNe5J20RpZxmWjHrVGM24yEW3iC03gWqWckpEZr5B7NCKeZMVYzE6RCc5ELrrBVZElcOMSp2L1R3eec+tPVf2ga6G7+9KlnnqG76tQ5p371+53vOaeqzwcYeMMWwBbAFsAWwBbY3QIAAGN7e1uW/wEAAwDjV37lX7a3t+fmdsyvH/vY/9je3r5y5Wfm109+8hfb29sjI7r59XOf++ft7e3Pfe6fza8jI/r29vYnP/kL8+uVKz/b3t7+2Mf+h/l1bm5ne3v7V37lX8yvsvwP29vb5udjUgfTSp/Cm8sCH/3oR3d3HnwEWwBboCosALbxhiwAgHW/P/WpT2GTOBaA/Qi8YQtgC1S3BbBObJub0x5inbAsgv5gnTDwhi1Q9RbAOrHtbKYzYJ1wDIImBvF4wvQL/D+2QPVaIEMnph8G7u0jw/e297lNPwy6r+Y/x8x8t6P5z9l173Q3+IiU3PVwgQPTD4PdrstAWx6dSEofcdsFdE8XKCDvoaT0EUbKb00z892O5s2twM6r3WDfWd2TGOvyci2DxxMG3rAFqt4C2Trhasenu/dqEHNVIXfPtrXtnZudstDf3fMvdJZ57N6w1drntobms3oDbfl1wtX43hv+SN4cXDW4JzGZMra7ThSRmyvj3T7unv9uZzj7XcKZR32xThh4wxaoegsU0Imcxm47e8tttXP32OccvU6YNdmtXS70fCKrFb7aDR4uPKLIMV1WDrZRtre3d6uPK0kRH3fPv4iT00lybx/WCQNv2AJVb4HddQLOh6AJlvSsC/oKZzY+Anvm/2e7OVvhGoJs2w0N7Jl2P2z23z8iJae7rYkNmIPTrzdbW9hQPtxtJR2+Z819wf57ej4EADSdddXKpvtquufrzJWhPj48pfthJ9l27rZbu1y8Tjgd8Myi0XUhy/yrX/9X6HJdQwq7HYfX/nC3Vb+Hpx1ToMo7VjJPhMrabc0Edk/bdwFa27YDLMVtKEa658w72emBeRPh/u5uc37JNTbKtE+OvMEXl/HziapvJLABqt4C2TphtefoDxKAdIsMmyezJbLno2xVSLc29h7Y5FmTM1bv2x5POA3ZNhSVjwzfg22l2XKhpg0VmtNg2e2sK3/YmKJm1+zaI4W4iqTF7Ozbp6Qrhz7tphOf/OQvTGfIP+/ktguqbU7Rpk6YDyF2rT8SBvPxhpXGro9Zf1RFaIfu6W1oQ1ODoSCZJsoZylgGcS7WMm/eu2bplm3DLMO4jZk+hHXC9Ar8P7ZANVsgWyfMhmnb2VzN+jZsubqnXXtyWxx7T2Y7BRtuSyeczjgsAbV6dkO5ve00dkhCYE3SnWKroczM39W2WhM4s3A8YT5Id+XmXE3heR4Dbfl1IrsPnls0EjxrPqqgTmSmsS7f0gazpubptrI61thOm8gZylgjLedizbvjukfF3DXTLJYUuY2FxxOmT+D/sQWq2wLHWSdcYmO3g1gnPsJIs3DyynpAYhnEtk96zJcWtr3VPT2k287e8HiiutsHfPXYAtACe+kEHAfY8+w5fVW71d52NntP5lmu8YTVkKETnHkna4bKaeysHnS6Q+2clZV/zuSPq5vvys2pXoHxxB7zTulm18osp2j3vM3+xxPoYUx6JGTNO5kzVM5TH2s8MZt+4cq+XudirZFEpv3dzy3coxPzUjIGH25Twc9YJwy8YQtUvQX21An35I/zHNv6KQCabbefQ2zDLasdh7uynk/kfY5t/lDDaezsfMz8rUcDqKW2Sww56uXMwKSfYx9o3sl5XlvcvJN1sWbdTJ1zKQe0gzUjhMziTKm50mQ9n4DGs5/2p59jm6MG26rOvJOT0inF3OOaFUxP2WXftXRusG5Qadxb1sQj1gkDb9gCVW+BDJ3YruKtkE5UtVnw+05V30hgA1S9BbBOWCJw5crPTGfIM56wklTjHzyeML0C/48tUM0WwDqx7WymH2CdcAyCn0+YLoH/xxaocgtgndh2NtMVsE44BsE6YboE/h9boMotgHVi29zw8wnLEJl/8LyTgTdsgaq3ANaJbXPDOmEZIvMP1gkDb9gCVW8B2A5g7qmJXzWd4aMf/aj7PVH8uepjBBsAW6DaLQB1Av/DFsAWwBbAFsAWyLWAqZD47fgj6CnQeDsiCzz44INHcL+rvsgjutunttiKubEzG4914giCmKbpn//8Cv5XeQs89thjR3C/q75I7PCldfWKuTHWiaOMXRw2pQ2b4nOrWIAdpXsdv7KxwxfvosWkrJgbY504ymDCYVNMMJQjTcUC7Cjd6/iVjR2+tM5cMTdO64S3zeNp83g6fPygFL6h6Pt3Mn0jHr4gcGd93EAgNJ1QC2ehK5FBThhNFk61/1qcpDNw2JQ2bIrPbb8Bpq9GxU4UIG0eX7fgvxRNbu3b07SVePg8z1IU2x0IzchaytCXQnyXGFk9YBCoswGuUwgvWaerM36uN5jQ9l2xip2AHb54Fy0m5X7d+MA3Oq0TgPQI56XAOcHbCCmagflC7qZMciTJRdbS5WrzkqcGAILx9YtCF0sCQA/E1FQ6QfanHVlqJejBuFYgTfY5p+07DptigqEcafYbYPpy0FMD6G5/4EJA7IbuTXZHCnWmtESgGTDnE2kF2IgJ9QA0ePkBUeikASB8Y/LmnEgRrGQ39Hv4d06eyoQPvq7dLiVhsOrymJeoF2LqHtkc4WHs8KV15v268YFvvUsn2oLyDspnI8qRwHNR1neU+Jif7+L4oVB8VTe2ElK3jxsQhbOdv4p+WkB3h5CDGoauRLoIUMdZPaOUlhhiQL0Q2zL0jQQcZHTx4sWojLxZnQ/7ezmuj/eQAOqErskzQbGH4/oC4Xk4CNEWg/xZIbycDrEDX94xPxGHTWnDpvjc9htgUCcISpgx22A9OcwAio+phrYYkQY4X7coTSW1lK5Mir6zgjjwUMdv/Pv/CQBAevzWKYa+EGBqaPEG6n7pSvScj7sQv/+aSAHS2y/y3bx4KQYDJJUVDoXytHQCAM8ILN3RCV1NRkcDQjcnXAjbkeuFHTi4JxK/EZH6eRjUGzDEtKWo6xIMQ40Hun3+aaUcsYMdvngXLSblft34wPc0Ryd2lPgljgIk96170T4K1LJcv8C1EKBeiH4/ytUCUMP4frf39882AEBxIzGrS7UVFxsA1R/LHhxsxf3NADT5hH7eUwfIrvDdWxJbA+hOnu+gAQDU4Gt3wxwJCLZL4DsoABj/DU1bwDqBX4IqrwX2G2AundC1pai/FYAW6fabQQ8BqA5e7PVSAHgu3r49DCEeZDvX99mHWgkA2sTwoj0u34qLcKROse0+4Xwotgz3a3MiBU9guW4PBYB3dGllgiMB6ekRhE4GhcMm1KRd8lQmfWSth++iQY0nuKjKo2g8sS6HOuDInhvwC2dIoiWQeAdFLqC8XbAUAAi208fUAKovtv4DOE4i23ihx0PCS0jqWCdOziuI+3XjUuhE+gfHhOdcVHkvylOEd0zWDUNfCXlrSf4bz3N11p7seSc1JlCAueAaZaMaaTf8NMFKi7Dbok7zJPnxJ/7kfweNYnzLMMx5p89FRn8NdrvQlBfHAECfq6KZKNy9KqbTVI40+w0wqBPpAAGggQstbCZHWMJ05pQWH6RB65NTjzOgAbl3zhwRnBhai4eGeG8ziXKy551qWGlBM3bkYBtB/8eJ0U8QZE8UTtjuJKVWQJ977daTu+YJdaKOiyzG/E0AtAfCwx4477ShKYvx+Fw8Nh2WemhA+MLzV63IRXnC/pyuxvoo4swz0WEWAMo3GJAuiL56AFqlpDmpcOAWpeCJ2OFL68z7deOCN6fQQdd4olEIzyUSi7KKHEVfjfhIkptEw8+1iI8kfE9f5uoI3zgcQmTrhJYMtACyKz1jq94IB0ejb04LFOEJohkkbVagiH87+JkG0ByAj9pMnXjkm1/6d6iT1Wo9JOSGsU6UtytdWk89obntN8DQ8wnCOxKNLyTkNU2HD9XQ5KrpzIaeOM+Apkev/BkDGv1xDR7Mej6hTPu5PnuedisZ6iJBc2Dumv18QpeD7QT12We/9O/scTncA6i+q68/uXueE1Anohu6OueHg44aACghtqFGB2hAMN4eUeyiAeENvQF1Akau81BQV2P9FNH+palz8EkJ3cLCd1jaPN5eu4aFGo2DH8M6Udp42a8bH/jOuXTCeT5hZoYcneqNKrquTPNUDRN4eTJTJ3yu59haAnZMSN9wTN7S9Q3UwWmVbt8JeQjCNy7ruho/x4D6z04EfQThDS3r+lqUpwAtvjz9RzRoFGMburEVl3p8woSsa0pyIamUs19zYHuV9kQcNqUNm+Jz22+Auead0i4Ae0uEB44GtKTUBsiuK688sWubrs0HGILiJ2WoMZoc7iJBq3Tr5UydEKanBQo0+eOqoS+HfSTwXFqCc1m7aY+lE/CpBowv2OMSYskoHD2MynpKhzNRhXQiOPeXHEmw0rxm6GpsiPOdiyqaJi8m5T3eVkwbYV+fsMMX76LFpNyvG+/rZrkT764ThqHOBjzwgQSc0PQMxdQ16H/meAI6PdztkoodJTrkJZyxOeEJzKlGSkuM+OAwm4APNsQpRVfREwtAmCmpwfjme1ERTuWSFEWQrWJkRYcjD8AEFuyJXXd9T9dnHDbFBEM50uw3wPLqhKHJoR74mA06cwMXXkLPEsw23XyzAwBmyH5PNaUlLnLo8YAZJIw4o8LnE+b7TuZ4oj+2+W5EaLayJDulxBZ6Zr5LnoqjE3BiNw5nnyghtq5E+xlQQzFNFFEDQE2B8URQ3pLDfTCUqXqSoDyBGVVfi/hqgecSnHAu+YYdvrTOvF83PvANTetEcjlfFyKlKSuyoiGfSWmKq6OhrSYTi7J5JF38jqosJRJZo4EdVV6x8oAp4XABTnDJS4nkmiUG2oasoLcv7AR4PIFnn8pogX0HmK7Ki0klX9dFVxV5VUUzUYa+ISeXFPOzsaPKC4nkWmZ7q2vqSjKxkJS30H5NSVozvbq6nEyumgXo2posb1iFFchT35KTi4rz8oiZ0vyqq4qyoelbZv525KZQKSjotNVkcsUKeX0rfQmGjscTZXS8E68T6bYef6qUBXD3qrRhU3xu+9aJSrnE6S4HO3zxLlpMyoq5cXo8cbod9HheHQ6bYoKhHGkqFmDH0/GOqlbY4UvrzBVzY6wTRxUysFwcNqUNm+Jzq1iAHaV7Hb+yscMX76LFpKyYG2OdOMpgwmFTTDCUI03FAuwo3ev4lY0dvrTOXDE3xjpxlMGEw6a0YVN8bhULsKN0r+NXNnb44l20mJQVc2OsE0cZTA8++OBjeDsiCxzlja/WsrHDl9zZK+NKWCcqY+f8pZxaHuMRXVjFMJD5byfeu5cFjsgvcLH0IUMD68Rerl3O43gYXszguvg0FRuGl9MpTnPe2OGLd+bSpjxkaGCdOMqwxGFzrILhKF2hOsrGDl9ahy8+N6wTJzjCcNgU7+jFpDxkMJxgTzohVccOX4wblyPNIUMDjyeOMsJw2JQ2JA4ZDEfpCtVRNnb40jp88bkdMjTSOmHysb1nef/FSGJDN1Jq7DwnXEo4q8ccxJMhAo8LzJaGxKhCdhjv6+SEoWDkhr2Kzi7VgrCjbn9sY5fDx2M3DpviHb2YlIcMhl2dAsaCz1x52/mfG0loqhwb9fuaSKpdkCbicPWnHTnc74Vp2r2+HoTRzrdqGly1bzbAtVtr6cP0nWJ0X5TsjVigm5NMOt6OEhv1C90+X68ojcX2AHcfKZceO3wxblyONIcMjbROIFhQwD/AsXUAtAflLSV0hqB6ETJl1wDa68BGeonZvZIWPq4nR9G6s41eYUDg2ikAIBsjc4m1jBzUazxV6w2tFEiSkf5IvuCwKW1IHDIYdvWBlJacCkrDkr+HgWsn9wWkYSn04tzlLhIC4ftEsQfy7MieiLqZgIu2tvD+836TEg8ahWjWUoCoGGXCR5iAoGFJGpaki5HE1q7l5x7QV8MQDzOtGhsxEa4vS7LdgtjnYwgAWhHfJfccc4+DoDgKLj12+NI6fPG5HTI0XDph8Sd0ZdxH1HGR99I6kQkBzkH4ptTYkM/bLYp9HNcvRefj4fMC1xeILKgGQm1TnYLQzfFDYThMMbKJ2fpSiO/khEGB65US78nRiyLXzYv9nPesazSAeHmgI2QRvCH8C2KR1By2tqFZOQhdDCS0rOhGFuXbiZ9y8h2dQgp/wGFTvKMXk/KQwVD4ZsGVjmdFqsbiMxqI9cuOJFFPRJcnBF9vMLEOdcJZS1xbhGBUO01G9lAnSF/YPYZQ4/bgW5fHBW4gsnInxHf4hHMZ9OzklASjqc9HAZKfXpcveQCgRXvIrl4TICpmQdubS5/KJmNXgEuPHb4YNy5HmkOGhksnEHxUOg/xh+TZsKJZOgEJupkQ4GyE73+7GzoDl9RnOjkWIR3JNs7bCECTPw3m7eW99WiYsp6AxOx6L9/HsbWImP0qQgTXe3nxCyOfpkCdh+tD+dSkRwP6osQAwoLrpcNNV7Jgwq/fj/Zm5vD2eqyfgkzvPsHXBCDl25mJwjpxcjjARUbOIYMh7Vm7fMrQiZQKnQ0AusXD9UvhORnO0GoZOmHocqgdEJ1hJafznjWeCM8p+lqEI0nfhIKgQzRoQRSjTHr20hgchXh7eF8TAQDBf/tepBty8WzGhV3vvbn08c0cMvZm+bn0WCeK9OSSJztkaLh0ApBMK8s2opa+no++u4Lmna6+LmVCgP8P/xO/nonwHYx85eME2Q179/FzNPJa3SSoRL5vo7UMQ73Gk7Xer1x5lAaA6fYHhgPCGRLUeEevPGL10TYQkRtxVbNmjbSFAAMoYTZz+X9dCXdm1qT/yU9RhNedwxtX+ToAWnn/sOTvhcQ9/lppHpbYEXmovzhsShsPhwyGPe9lhk7A8YUcuyRy7XCyB6J+eiMKmndyxhMGclFwJpQ7Q4p0AlDNJnDUy48m8+tEJj37K79mTQWb8078t+9EzhJwljhzenVvLv3ga7ekipKxTdtihy+twxef2yFDw6UTNvfURAH7nruFdGLyFT9jd1gQBPh/6RtszUT4/t7lkY8j9zV1okVKaroF0F5IP59AfGz2C3/xWRIAssni8Xo6hG88/4iJ9LKmXBGRO0sn9JWQl3AxttB8cXAimgUT/uXf+dyv2kxvK4fvXvERAFAMi/C/nnafH+vEqRtGONFyyGDYl07oy2GhC+IX4Vm6mhjxgBpPMHHTPe9kDi+ovjwP+fLMO+UdT7hpd5999nGbnm3rxP34AAXqhZjd+dFXY6GLoRfCn92DSz/48py/omRsrBOOlx7Jh0OGRo5OaHLsgpcAlPjqXfM59p1vZkKAP/mNiT/IRPhenHvGfOKdVydI4BlJaCktcYEF9cL1N0KQ2DuahPDeSdHXLb181UY/bsX9jYAeiKm6BqPOfLpg+pcuhzoAqPH4p5KqrmsLkqcG0I++nA0T/tI3H83K4fs3Ay2A6okouqEthoSzfHDRHpSUk9u1Z4uDw6Yc0XLIYNjzrmWMJ9SY0ACYwSgEuUO+r4eo9YbfSuuEribDA7DPLszYrbirgDw6AR/CEZ5LSXUlFmgnrHknt04IfzX5GRK0BBKars76Gfh8QtVmRRoAqjsYX9X0HSXSR4Ea7+XYM3tw6Qfjd7+VQ8beLDuXHo8nyuH2xeR5yNBw6YRJ7YX/k94LMdV+PqFuZUGANX01E+H7I/uJd16dqEX5wpE54RuT9ZSWuIQowRRFEpRvJLH+mq0Thi6PcxZMG0Cur/spn74Rl8666MLNYnRNz67JVnYOoRVdnZO8JAC1FFVLMD2hpC0TRjk5wK4GodBHHDbFuHjxaQ4ZDIVuFTqWoROGrs4GvHXpsPEMx7Ut9L5Teh/F7fJmeR6dSKmxQYiqtjbz+YRbJ/pj69+DPSRQY050Efw0RNAnJ0UWQuzNjfRdSmiwp7UHl17TssnYm+Xn0mOHL96ZS5vykKGR1onEfAL+W1LUHTNedG1Vlm1+tRsCjA67Eb5ptK++loSc7ZRhkXt1TVlMJJeSMGc3f3tHVRxitoMI3pHDfR5Pfyh2Ix4ZYOBoOudNQQjyXYSVdP2qw10TNAWwDC8kuZyE5GFz3jalq6uy6iiEfX2yC/dt7qvw/zhsjlUw7H33HV91kqag+yUXEhbaOqVDPrwZSo77GYauadqW65+maaqczMXLwxksObmYlJdRHFl0a9OrLXq2toaiaQkmU5wASZnY7YTsQOYNAwK6nSjbhUufQcaG4Prycumxw5fW4YvPrWQ64Xj+kX1IafFz8P10upkhAWDPH+4nfkd2GfsoGIdN8Y5eTMpDBsM+7ty+km7ExFaKrCPT/+o9fvtN1n3ldNITY4cvxo3LkeaQoZEeTxwLF0zpykIsPBaOzu/xc+tjUdtDVwKHTWlD4pDBcOj7iTPYwwLY4Uvr8MXndsjQOGY6sYebnbbDOGyKd/RiUh4yGE6bex2/68EOX4wblyPNIUMD68RRBhMOm9KGxCGD4ShdoTrKxg5fWocvPrdDhgbWiaMMUIyBPKEYyKN0mpNcNnb4kjt88RkexnGwThzGeoc9F/MYsQWwBbAFsixwSEbpYVulfOdjnchnlUrtw8Pw4gfOOCW2QJVY4JBzROVovbBOlMOqxeaJdaJKIh9fJrZA8RbAOlFsA1ol6bBOFB88OCW2QJVYAOtElbT/xV4m1okqiXx8mdgCxVvgWOuEyT31dPj4QSl8I3ch5EJtH2QNnXFBHBHH8crMM3yXGHGTWLLz0JVJ0ddv04dMGGSnEF6yVklWZ/xcbzB7bf3sTE7wd6wTxQcPToktUCUWONY6gbinUuCcABFDgAnMZy2HlNEcW8uGr1k79bV4aESSLohwxb0Gzn8BchznnIVgM051f8nWCWXCBxcza5fQan26POYlXGsmu888HZ+xTlRJ5OPLxBYo3gLHWyds/oQJK/VclPUsYuhWQur2cQOicLbzVz8K23O627X8KlysDNK7yB5rtX1tTqQA6e13URt1NTEV9Pdx/KAUmVd0YxedAMAzktRSaZ3Q1WR0NCB0c8KFcHxVN2BNvL5+Ee2JxG9EpH6eHwrF0SJo2lJUGuB83aI0ldRSRgVojgcWLawTxQcPToktUCUWOAk6saPE4brfJPete9E+CtSyXL/AtRCQGPr9KFcLIEP0d3t//2wDABQ3EsuYn8qjExDwznV7KAC8o0u3hyFRztMj+ntZgvSGlrXkMAMa/XF76KJM+shaD99FQ+TLoiqPovHEOoJPEAw34BfOkERLII1T7YI5A0CwnT6mBlB9MUhprQFkGy/0eEgAPBeTFaA5Yp2okgDGl4ktUAELHG+dMJevR82u51xUeQ9RSMcgURHi5GpJ/hvPc3WEF+3JmneyGspcnXBTGwdi628n4nPx+EwkNIQo8NfW8+hEHRdZjPmbAGgPhIc9cN5pQ1MW4/G5eGw6LPXQgPCF569aNdlJSiZcT1djfRRx5pkolCLKNxiQLkDQN2iVktYy6QduzMt4Ih5PVCDqcBHYAifLAsdbJxqF8FwisSib/Al9NeKzGaIQ6UMSvqcvc3WED9Gni9WJDMrK9TthOFJhO3mx30tBGleOTkz4yDouuqGrc35IbKmBNLDYhhodoAHBeHtEsYuGnLs3oE7AmuzIUitBD8Y1XY31U0T7l6bOHQHN8cBKgnXiZAUwri22QAUscLx1wnk+YTZ7WiLQDKjeqKLryjRP1TCBlyczdcIXsZ9jWw1l7njCrRN/MPGVjxNkd0RNGdp8gK0poBMQJIlYFEgnkhCy7R2VISp1FFJTd9eJ4NxfHgHNEetEBYIHF4EtUCUWOFE6gd5S9cAHEvABgGcopq7B9tocT2jzAdjfJzKlorBO9F+/8yxH1RBUE01BbmNBnTAMQ43D2SdKiK0r0X4G1FBME0VA6GMhnZC3joDmiHWiSgIYXya2QAUscKx1AvJKcxu8lKasyIqGjqQ0xQUK1VaTiWxwYxqACnNKQyJd+3dUZVXVdlQZURv1DTm5lEYSWbTUlFUP86iJONVVRdnQdIsEadckhXJGcFZtNZlcsS6hwjTHXLMVuQfPO1Ug6nAR2AInywLHWieKbNpwshJaAOvEyQpgXFtsgQpYAOtECdvY05AV1okKRB0uAlvgZFkA68RpaNxLeA1YJ05WAOPaYgtUwAJYJ0rYxp6GrLBOVCDqcBHYAifLAlgnTkPjXsJrwBjI4qmNOCW2QPVYoISNTEmywpyikpjxgJlk8Q7xV2wBbAFsAcw9PWB7elpPw/NOJ2tCANcWW6ACFsDzTqe1wT/gdWGdqEDU4SKwBU6WBbBOHLA9Pa2nYZ04WQGMa4stUAELYJ04rQ3+Aa8L60QFog4XgS1wsixwrHXiMNxTI6UlLvFWDm0IgHqGD9n40kKN6FZC6uUDr9yLDXH8xYS5REc6PeQRcYFZNb3H/qSvRsWzPv+Uxb/QVyJilxBezrPyiH3GcfyLdeJkBTCuLbZABSxwrHXiMNxTIwXxD2YO0rAE/42E4mtFtNobaG3BZ+9cz6sT5lG0knlWM68vBz0AgFpfeAWWoi9KLMH4C7Jas3I4Dl+xTlQg6nAR2AInywLHWyecdcU3ohwJ9sc9NXXCycFsg1NqbMjn7Rb9/RzXHwgvoEX6NDl6UeS6ebGf8571x76fqRM7anI6KPZywvlQbFkzCazUWVHo4SDW1CU8lk4AQJwNy3paJw5DSDXUeKDb559WKiYhWCdOVgDj2mILVMACJ0EnDsY9zR1PjMUUTQmdQRjtDt7XBEC9GFPVaC8F6jxcH8eSrhXCv37rmTME1Xv1zrM+oobhBkWuCYA63iKtAsrbzbG1wGRXmI041AmC9Pb5SEBy491CmW8AACAASURBVLK6gMYT8TuhDgAOSkjVsU78/EoFwgAXgS2ALVDAAsdbJw7DPTV1ApBMK3o40ebx9gaTm0rojAUmUmcEqhZyI3iK8KJ5JPUab+6BTIu0TngJQPkGAtLFUHg2qb7nEIq0xBADWgJJm6QNdaKWEmeTETjf5QtO+BmC8d9cP1mEVDyeKBAt+BC2QHVa4HjrxGG4p3nnnXSoE1RvVE0ZUCcIz1Oxyw5LNZ9ORNUdJT7m51opqFlNojUrNa7oKS1xngHNgYRbJwhKvKHpa1G+3oQp0f6b908WIRXrRHU2BPiqsQUKWOB460TW04V9cU+L04ngm6/5GwE9EFN1LTHiSZOurfHE5Ot/wft6gwlVV2dFGlDilE1azasTtVAnDMNQpgUkLLT/Gkx/cEKqpskuEFMFnlJgnSgQLfgQtkB1WuBE6cS+uKfWvFN66goA4P2q+dQBjSdmBarWE1rW5HGOhMBUlLLGG56/6pp3it67LqIWn6JIQLQF4oiMDUmrKT3PeMLWCUNXo30UALQ/fvcwhFR9LeKrBZ5LchHvaZVGRLBOVGdDgK8aW6CABY61ThySewoxqPOJ9L+FpKxq6nIyuYqmikwGKoRXezz9odiNeGSAAfVCTNWUZVnZSqfU1mSYyaIM345ykVb1tSSsoY1ENXRETrWnoRBjNanswOb74IRUHY8n8HNsbAFsgSO2wLHWidL0kAvnktLi5xgACLqZIQFgz+f8sK7w6afuKB5PFOhV4UPYAtVpgarXCcMwUrqyEAuPhaPzSnpwcOoEoMgLwjpRnQ0BvmpsgQIWwDpRZPtZLcmwThSIFnwIW6A6LYB1oloEoMjrxDpRnQ0BvmpsgQIWwDpRZPtZLcmwThSIFnwIW6A6LYB1oloEoMjrxHzs6iEe4yvFFijeAkU2IBVLhvnYFTN1noKK95sTmjLPNeNdVWyBE+rGxVf7tN5brBP7u7PqDcnXQJAtfGjB+e3G/nJwpz6GA0x39Q75+XRf3SGNU52nn26XOMVXd3CdgD9n29LhT+GWZRX9wK0Y11fnw6GpZDaPqJgzj0Oarbi/maQaGboWmOtWHbJSp9ixDMM4rVenr8XCY1G5BP2EQ7oPfMtc0yq2esCha5vjErFeAHpjTr6xXsDPoG+rQca1toO104jxwE4AU8V4wMcMQ7noTgsAYIKrTpYV/XBaHd4wjAPqhL4S8jUxTDMfHBWYJiGWhziX9w7pyWGWbA9WbmWMvLU48M4dOXSWJus9vjaSPBtRnB+HHzTDDMfakcP9Xs9Zf9TGbKhzEtfu5S8lNt+N+rv4oD2C0ZfDwlnh8gvP8Ges1Xk9JkOwU7zy3au5KS3MX0qLj3DebimxhaqLEITcYMQiAh70Egqcl3F1BdKdtEPanEhTXGTt6OutLwa5/oiazw8LAR8zPQG62VkxsmrrDTrqG4iUI0izXALqhKtZt3Uixrt2Ij0wm36oE6A5aPNh0jrBXLT3Hek9ybq6I61LiQs/oE4YWwmpDSl+rScvl3SXap5wnTCvKqXFB2nybLjEOqEl/E3QpL4J1HSn1GgvXAqL6out3w16CEqYsdRYm/fTNfSjL7wcGpGkC6KXBKCB81+QpIuRm2/kSWlh/jaiPFpai5tCQZV36cZdblvW7qefflpVM7oGqqo+88wzWclOa9icDJ0oAHzM8oS1CFcH2JGkJRQbUZ4C7LD9NeumHu5rlktAYbgYZOwhhaUTM7x7kAEX+rzIoD1QGIIXGdfwwhpPlFsnqtzhM8YTwXM8d5YTh8PxVd3YUWKQOicEJhJonSU1MRkQunnxnMj3BRPvJMJDPDw6HodLKqU0eSYo9nD8QCA8K8M5pZQ7/VNTX/fzfYEoBJRaOrF0JyT0BOKqoS+FePRBWwiJvYI0C5tItFN6+dXsPXFVV2+E/H2cr0sIjMXgwF+TY5f8QhfHD0oRk5dnGPpqVOrj/RO373zTLFfTV6KBPkGaVTfTpejKlMidi6Ly1Pion+/ycf2B0Kys6Zo8JQndnDgSSW4ZxkY8OMCLo3FlOSL2oG6XoxM7SnRY4M+FIRUDgb5hl38/sKOMsLF1gjgbhrXaiPF1UDZ20wmr9dflUDsge+Bii3BtK4hvylYUlFJXJnzWUL4jBLuKB9WJsbExAEBjY+MHH3xgNhoffPBBY2MjAGB8fNzdjGRcnfvACfzs9k9bJ3T1RtjfywmDfrFXCP/1SnwqHF1QtY1EZDy69Kbl4YahKzMQ0ejrFqUJGC/prLRk+BwvjiY0XUtMBIRuH9fnD16Ds7LaAsyZHwxCqiN06VhwkOf7/f5+3v+tu7enYIZcn186z/v6wvIODITIEM+fj8DPaNsN+Ajrk+MJcBlNe9F+ZZIjCU8wjZrX5QnB1xt00C+HuXtZLmEKgz2MMLK+pgtaDTJwGGEOIKxhhHveqaw6UZ0OnzY++pQeT4AGTpoIS9000fL5F0O8p9MfGg94KYqbVGBgwEVeCVDHCn/xyvOix9MXjEwG+SaSHb65NM6xHWJwLBwa4RmCFmbUjPRPv/j0JyiSpLxjkE9qzjvdeVWk63yRNR2mRB+SIx6qjqR64CAaxeFvf3koaw935TshiDHqDIQng0IzQfdffzPMs228/1I4PMzRdZ7gIuwSqdcEuo4kP+Z/4tdQuSMRqZMiagDZc/V1yc5T15MjLAmXUtflS14AKN+FcOSiwNTSj4S+4GvjpPGQ2EbS/bF71wWaJKnWQGxO8tR5pCX4SMYaT6xF+UaSrGOlRd2AvTDUQB9SJygK1HGRNR0SO2pIigBUf/7xxP50QpchC6QvmpwWKAJV+KA6oapqQ0ODKRUq2kyRaGxszBpkZDUKWZ53or7qOf7JReajXB0ANQSooTyD4ddfEJlGmmrw8p002RG887Lp2Ia2EGAAoHukyITENRDshZu3TFfvDkWGPGQtAA1i5DmOBIRnMBQZEz0kyX09EujwCBfDwT6GbAkkNmVIaQSAqCHoTv/kC0/5WnziiMSj0SczBBdJ01fDvnoYZCGEi7d7DDnAx3nNyPUEA0VcDe2/gY52EEQn6qlYd6jsOmFYMlCkTsDhBRKG9LyT1QEy/6QnpkrjYlXp8NmmS+sECQjfmKwuBNg6b8jsTehKuINkhhLri9HIVDQ6IXGNBD0Y19aiYgtBtomBHpr8jaee+i2WOyd46immOyC2ksyFxGZm+vWbQS+JsBC76oShb8T8rRb8DukEd2Uhe0/kXTXaR4MaVlpQ5VEvDKEtLT7koShWHI+ITSRcgdyAfatwNwVaAnOvBb0koNpYpiMg9dBUd2R9zc5TR4qFkBsW6ag9mFTlYDtpj7gtIbkTFShA8ZOyupijE7qeHOeoGiaw4NKJbAsX+p7RkqLxBNPr91EUN5GI9tNkuyi2EruMJ5iA+bhi7/EETKkvSWwN4R2Oxq9J3lpAn4truhrro0AWdKRQZdPHNjY2HnjgAQAAjTYAwAMPPOAML5x0GVfn7D2ZH/L5ZyIyGY1NhwOdFNEqJdcToX6vp83jGwwntlDLCztAhgGfaRGA9IVX1MR5huwIrbwX87cC0Ohhmznpgo9qFGPvxP3NADSK8Q0l0k3RAzHzRQ/thp+u84XfXolPRaLXIqFBD0l6Q2+vR/sZgmT5kVDgDGm9T5HSEhdhkFmRa44sc4GP8/k8IWUYJmymP6YsQpywNTNZhjuV5RJ5RxLOznT5GeMJ5wl2WifKOp4wDKMKHT5tfPQprROE2WguSmydJ7iE5ip1JdxJMufi1psdaLVXsjO88naEqycAyXIdFPmJ0ReHWKqZpesIsk0QWgnYwTELsdMrm4lACwnxQbvrhJHSYv2wKbfHE1zkvZw97yqhM1C3tJSujPnIZn8ColUBqGEEpBMfH/jDT3Twgalk4qIHqsh6IgD7XCQ/lYyamet2njoE5MHw3jH05ZC3DjW7EMBHMucT5sWjAYd0+62QlyTYczFlIUcnUvBcTx0LG2I4yUvx1zJm7bNsnfs1I2xMnTgfDfdQZBvnpUjfaCwIBwGx9bdDXoLkJq2HdeqsQNWwcGQD+42Z804reVNuQnqHe6OE6NrBdcIwjPfff5+m4SDTFImNjY09ri738Mnak+uf9nNsSGas56OqoW0o8MU/XZWX5HVrxIya4BYSQU3sh3M7WqwfYlbowVhygqMahdi9KGcORuFDKYrqs2YRLZ2wnzDDQUMd7X9tLtBCMr2Cr9XrayF/+bc+x3/CJ4zEknMBxunh2TOQ2cDH+fU8ngBvHRwwgTqfv89c7b9c9ybD4Q1rAAELQ0oQNN93Kvh8wnw7Cg0pgs77TuXWiWp0+EwXSOuE+RqSvrtOqDN+DwlAR1jRdWWap2oZqBOd4ZW/ljy1BNngCcwmQmj8YepEOn0+nYBcoZ5QHKHomJ6wrNktuDXvtLtOnE/oUCe8tk7All3bSvjN8YQmRwa8nhYSODrRHEhsqbEBJEJIJ4hmjjvDUIiVxA6NP/6bFABoTJBPJ16fFiiKj24Y+lKGTgBA82NJbTnkISlvj49thM+IAclF3t4sHoqXETZQJwh2OCFPm8+bfeFlc7IopqpxsQGANn90SVWXY1InCepgleCWqRPGVr6U9+JiI4B6bz7DWIRjCy585/pBxxOmC21sbNTX1zc0NOQVidP2XuwuOqGvRIRmAOr4yasiU0uQ7VJsUmBa/XPXIHGLfnjkWRQ07k6SbOpEDcR2KVMunZjVjJQa7dlFJ7RkqJuGMK6ZuUAzAPVeod9LAED2RiEdcpT3tDFEbc54Igv4+OrLeTwBvTehr4S8NdCF4YRB5gtU+kYysaRk7cxsRor9luHwbp1An4H12mvu+6/O+07wwTXa0LtP9nuxFdAJc1RRRQ6feUuL1wldmeAogmDQoBh2bVDDCFsfLSm1EvCDPU+FdCKd/v4rftibrWPYVpauI9nz8c0fBL11BGlN+hNkW+DmPYS5BhTTyrINJNURvJ2zJwlHD6i/74wntrT4BQ9J0mwLTdZ5JHMqRksG2wF8LreeCDQT8EWOlObSCQoQ3uC8Ko/D57pU78gffoQg6rnwqm7k04k3pwQSAKqFZRtJstWP3gCGjzRIgmQvJDaXQ54aQPdHlI24vxGAGk/oO1eKh+JlhI2lE0ltI8rXAThHrCHAeF9MTenylGD13mEsU/y4/dZilk4YeVKuw0cdTGDeGuYZOzK0z3/4wrOfQfBAmCHcDgDyUxTl/fffz/So9LeMq0vvPpGfrMlJl3+az3X1paAHefLNN0NcPbIjwQjTiraEPPzfPPrk79BELS3AgaZ7PEGTHSFFN5BOiNZ4wtSJ3cYTWsLfQhKUN/SDlfBZiiAZ8Vo82G7x5+EzsyEGup/9/Bk+x84BPj7yVG8eT2gPwqffuhLpIlCHyfYT60YhlCRV/Lvvhe5vlktkTjG55GHX3084OmEYM/DXFPl+P+H+jUWhyhzgWPU4fJZx0jph8ex2VNlkycGEurqSTNqv88Of1C3Jiu1F+loysSijX/no6nJS3oBvKrnS6+rbt+auvzr3lqZvyckFC3Vn4e1QSucU+EFXZTtNYgmhKXL3GE5BMHly2SJYQJTeQtKpGKz3lgwvR0fp4QtbhvbWK1Pfua8bhrZqI/Z0TV6CZ+lrcrpW1oWgi99AmWiKVflFJf2TJjS34EwyoBJQPiuqvh8oXkbYpHRlyTajY08HCIjmM2BNICgQzThZdxJeo11/ZxcyuJ0S9gcXM/qD5r1bfzsDQYhuh5VDSf5kXF1JcjzCTPJ4o1kb6POW6RBj0TajvV9TksuW8XXTo1xOCB11SYGv2CFXhI7q+KdhGDtKMh2MBjx9Bd57y71TmYlNn3RcIx/wceXd/J5gOjbMP9+4oXzjiSO8n+Uo+lQ5fKaB0jqRuf/Q39CzDaKeZvpjeX8HdOgC9peBOs3TLX77ycn+zi1f6lPsWKdt3ql8TlBNOWOHP6F3u2w6YRjaUiR4Cf0a4zjYZkeOTcczOuLHoFbFry92QlMeAxvjKhwjC5xQNy6+2sfI1iWtShl1oqT1xJlhC2ALYAtgCxyNBbBOHI3dcanYAtgC2AInxQJYJ07KncL1xBbAFsAWOBoLVEQn1JjYSjMtDGf+XvoQV1pa/MMhKoJPxRYoqQVSauyCGDJ/O1nSjHFm2AKHt0AldEJfi/p/899+nPvCzTw/2t3PJewb/6BrW+l3WQuXdCRQge9973uXL19+NmcbGxv74Q9/WLjC+OipskBqc07yP/+W81rrqbo452KwwzumOFkfyqwTW8nwOc7TyrLNNNXitxcAOaiJ9ot/2Ir7u/xxE7ewV5nmolIVhgpcvnw5b71++tOfTkxM5D2Ed54qC6TU+Kjga2fZFoaut9fLOVVXmHEx2OEzzHFyvpRVJ7TEMAsAybSydC0AjYfWCdOsznKtmasL5LH5sdeJZ599Nk+10a4Ch3Y7Be8/cRbQZuFKzFQzy8IVeO01u07cZRRd4QJeXeBQ0dnjhOWyQFonMvgTKS1prnHfay2ID8t31rh/Nx7sh+vmqztqYlSEAIZ37D0pSI9AbAldnrSxEyk1NsQJ47Ke0uVrktgNF9aPLlpL5qlzQaFXDM2v2+kdXMT6Um4OBsRd2JigfEUYujoXFAel0KWA0OuPLGvZLI00oCK5/r004sIZT2Ss9T9x67V8UIE8CIEU/L2I1M9xvX5pWPR1BeLvxAPdPv90IdJWgdgocKhcvoDzLWCBVDYiQl+Nh84LXJeNbEHnWs4cv2OBSbZ0dVYSIHxFs91bh+QPMxw27Khx4kjLRE1M3LruwsA4XqfMBPj+EFxsI6UlxkS+X4q9t+mCpuSNC8NQE+ELAneWE4aC0SUNYmNcnJWszO/ccELDIbXo6nxEGkDgGZP+YmTzYLTFIH9WsPiJ+YxZwKsLHMqXE95XUQukdcLFnwjM3Qj6WrzChVB4zO+lKHO9bmeN+69ceZSpI8kmITwuMiQBatjHL5t7xPiWod1AK++/q4Q7beyEve7T5lLQ1+oLjEfCQ16yno+uoUb/HEvWkcznJkZNTIWDi/j05TS4ws4BLhri6MROviJWw1wT6+v2Mi1e7gxFnnlq7nIGSyMNqGh7cuoJG0fhLD74bsZa/88/90g+qIBNI3AhBF5+TfK2+MRhSWyD6wsSXRFlHetERV25rIUpU5mIiG/eiQ6wbJc/OI4oEc1oehMukIycuS/wqQcgmMQ/GeIaSQIQ3q/OXc4Jh/Ub/qw4kv56yYWaePTylx9yYWDuJoZQ5v3RxJiPbEKj852k1A6j7KE/d0FT/mAiT+DoSqSbBKTHPxYJDbIExV2JPeXirEy/4ndn/uhzTmg4pJb1eKCd9Q1IoQmEZumLrt/N4sHE7n8P60RZ3fDIMk/rRBZ/Qp0WGIryDEVCPVT2Gvc/WIn0M6CW8TSzwogfLqx9ayXST4MGl06sGdq8jZ3QFWsd2ZQa7WeZ7mD8RshbR5ukHX01KjQBaiCGMBUZuIj7DrjCycGtE6k8Razf8LNtgr+Loeo94nmOoriIta6qxdKASmMDKm6+Y+Mo0jqhZKz1n7iZFyqAaARuhMAjo1/wELUkSZJ0lyT10kRxDPACfagCh47MWaq5YDUHEbGVlDpoqokPTQVYE2CFhqrQmf/o+q1nOQqQbBvjGZTEZrio/mZuOOhKbhxluJ8JHbI6STfnzjOA9IUW4RKWlk4YhjobYNPECBuaMpcTeoahzsHlOJmhuLoa4ShanDNXajNPeWrKn5H5a05ouEktK2GukaI7pchFL9nkT2zm8GDsxd9285QCXl3g0G654f0Vs0BaJzL5E1oSPlog2KFIuIfKXeNemeRgt7lVis8HEbxBVyY5qlGMbyEQG+mFy69qNnYCLlBKQDbOViLQQtBnvGwzQ9b8z919Z71d/vB8MtyF2CxbObgImB6BK5wcIFTVmXeyFveHizbbCTbfDXNNjLeVJkmaG+QokxUDlwaELI3Gs90dbkDFVs5i5jZUwFrrf17LDxWAq0xnIAT+6q8E+J2gvCPx+LBJytv7JhaIjQKH9s4Xpyi5BTZyEBFrUY4EoJ5DOvG//cEf/bbbmTfvhjwAgBpvaCFu+XBuOKSM3DgyK+64H/xqY2DuT/NUDS1MyVAn/nXvIw95fQOh+FJUaKBsspDZ6EvJH+UJHLg2bQNa9tW8llm3TkivT7oyb/LHndBwkVq0ObhYOtkhRS76yCYx/qMcHgzWiZI73vHIMK0TmfwJqBNwj4bAKTlr3CP/JrgpRbMgP1AnSNLDdXkYc7HqM0EZOitBd/LeFhqtQU6J334FLp1P0oj9QPlvaPpq1N/pYesBZHiZOuHGRZi64s5hRjV1wsQ/6DD2Mou4fi/aR5MUxfSGEzMWe9IdbJobUOEEgzOeMHXCXuv/j7/yh3mgAj0hRMug0DLONkLgPlpXHME5LKLqlrYniKKAGBQ4dDw8p8pq4bStDiJiDSnHrKrBpcUhStbtzKZOUAMx1enr5PrqjJobR9CstvtBEGlaJ16eG4I4PEh/scYTujonce0eOns8YepERlw88rWnISe1Ho74DedaUO7IXR+/8mhm5ig0MkgtFxLrr4k0gvKiCtg64ebBrCvJhaRiM7pzXaSAVxc4lJsP3lNhC+ymE7o6IzIkybQwVC3FQbQ16sjba9xDVTDpPVAn2MAC1AkCkNx4Ul0MssDBPwDQ6o+tKdFeEgCCe/4WWjof9fQB4vEahr4S5kg47wR1IgsXAfdk5gCZbmn8g4Z4jRlFTCrqNE+SvvCqbj0pMZt+u1MGI88GVORCLyxYvL3W/zMvPJMHKtAKeaux/kyEgIpGOaZOmOOJdyJ7gijGxsZ++tOf5t7y99577+rVq7n78Z4js4DTtjrIOS0Z7KTIBgaCSVpMMEnamaFOkLR4Q0uPqvP5am4cwQu03S+NH4ZYyZfnhuC7UUwry1AE3RdBjF9DgaQv2GNDlrHGE7CLlhk4Z5/wsyRBngkmd/LrxNSjmZmbMCU3qaU/tvluhG8gqGa7ApCPksGDmXtBoCDya9dhBXb4I3PgwxWc1olc/oTJjbDX0zf9EDIdVR2tgG8uVa/de/Xq3P2t9Jr4EJRg4hNS6MMW+umQpphL26Ol8xUNUi7S/Q645v6aZpjp0ZquFi4iXw6wHg7+IW8CuyxDg8v32z+0c7Mx7Nru5EAvbGs6a/3DshZtwEAam5Fe+t9CCKQMfS1p4QFMzEARIIof/vCHExMTOT+ze/bq1av/+I//aNcF/z0GFkjlQ0RA90tAtofr53GWM0O3kSGhJKXf/0701aTt3rnhYMaRkx5da9r94FfLdSE1ZB5yXEw3s4yS0pXlpGJmayBGxbKq54mLNIsFgWTSvBZY1rKq5WSeJmG48BgoHJwK2JFuwlGWFX1rj/EEdvhj4MoHqUJaJw5yNhoN+BpK//ug44mLOJiJ8FlVbQFEiadt5HVVmwJf/Im1wGF1wkhpyWvRhPVbiNKZ4VjiIkp3eTinKrKAvhaPzNqc2iq6bnypp8cCh9aJ02MKfCXYAtgC2ALYAnksgHUij1HwLmwBbAFsAWwBxwJYJxxT4A/YAtgC2ALYAnksgHUij1Eqtos+aduDDz5YMePggk6fBSrs79hdS+VCWCdKZcmD5EPT9M9/fuUE/XvssccOcp34HGwBZIEKOzx211L5HdaJUlnyIPlUOGwOL0g48A5ym/E5tgUq7PDYXW3DH/bvoXRCmfaLk+bPQg9bj+o8v8Jhg3WiXG6GqaXFWbbCDo91orjbsneqQ+nE+tU/+7Or63sXcqAUuqo4vzI9UAYn4KQKhw3WicP7hK4qK8nr4bGo7F6coqzU0pSmrKj6nlSuw19b+XOosMNjnSjVLT2ATujKrMR3eNgWlqm30BSlqg1cG7OMmZeumiXKqcJhg3XioPctwy07/qS3geIgIres1NLSMoMPeuWlPa/CDo91olS3b/86sRbh6gCoZ9lmuDCsiTAqVW2MsmZeslqWLKMKhw3WiQPeuUy3dHSinNTS8jCDD3j9JTutwg6PdaJUdy6tE5BLakB4ZwDBO0MzsqbrymxQ7BMCEwllIy718sFbd3OAjnrGKSnD2FHiY36+ixPOhyBeUVeyT3l7U56NRGaSmqbEJ8Kx79+UevjggmY4GMiUYWzF4c7FTYsWuazEL/L8xZt3vpnDUs2BLxqaHLvkF7o4flCKLKBlBdOs09t2DoXpqro8Ifh6g9bysaUydk4+FQ4brBM5d6DYHQ4WFMbInEhT3Deu2WRQLRk+BzHA2o4SHxV5SEKNJDbg0oD6BkKNdgn+i3BPOhPnFE2Jp8G6V+eeFblzUUV3gUsNXZmEO9X34sEBXhyNK8sRsUeMzL9msYfTpGEI4IqOiPxZn+35uaRSuOqzhUp9dyU7MO/aezTD2ErAeF/QDHVvLGOxRjSMCjs81onib03hlGmdYIYScGXvDpYbDkdGRbaOeST0JW89Rbd6PQ2U97zkoyhh4nm+MRPoeHHq865TxJfuR/tZT78UGg8FByBeMTJ/NfuUL1387Saaphhfj5eqhwk4ihJmVM3CQLqWyI/eCbaTZB3FjScivRTF5yGhbi5nwRevvxnm2TbefykcHuboOk9wEUasek2g60jyY/4nfg3RWPegq2KdyP+2brUGnk267YmoFqrkt788hKC5afbtI5FRnu0QQ1Nh6SxFdobk9bi/neWHQ+HxoP8MSZ55Kvpk1iniC1dFF1j3qejjJvTFBfQ1dJME8+aLAk2SVGsgNid56jyPj+eQht/TYgM0qGGES5HweR9FeoNvvpZFKlVhN85CpfKhnFge+epDKLqlRd3YiPIoKrFOFG5Aq+Ropk4YujzOMa1C+EZcaiU9Q199iAKgjqZqKO5iELbm19eT4zlAxxsBTx3B9AaEFtJz/tnPtnrFQS9N0b5zfm8dJb6ymX3KX7z52gjvbfN4uwORZc2ipsyoBsRAWvBUr0D6qwAAIABJREFUa+dLd4LtALQFEhsWLikPCVXPgS9uafEhD0Wx4nhEbCKtmTGbdTr3WtBLFkFXrcj9r3D3Co8nDnxXEemWILsdneCuLMT8rW72rRj7kRLuoQnK6x/yUfX89Mt+tt1G8A5BBO+V7+eccj/hAutakiDrLqCvrRN3XhIoQPGTsroIdUK6k480vBj01ACqN6psxMRGCLmDcBc3qRQ9e7dQqd9ayQnMpdvjHFXDBBZcOnFgk+U7scIOX63dmnymP9y+TJ2AOE+aaPZ6Wxi6FrAjSTjKvgGpcOEbEbPXry9nAx3XZwS6FhBNPl8jwT4ZfeoMxbQyFEkyvaK3Dg4Uck/RthRF1U3ghPKOTZQ0IAYSwVNtlMor6/FBGlBcaEmJ9iJMt0MHs0Gn2k4OfHFTCZ0BsGOFdOLjA3/4CTfrdL04uurhzFrk2RUOG6wTRd6XPMlQaFAunYi8l82+ja3LwTMkUUN6ujwkxV9NhLlGmm2m0gje3FO2DBdYd+nWE2g8AaPOBpfaOrF0N+QlCfZcTFlAOrGUhzQMJ8TqIKHL2IrDHtKEkkEq/deffuTTGajUPIG5HIK4+wVNh49kKP5aiReCrrDDY53I48kH2pXWCUB6/K/cR9hnikbs0gI6kQF0TKnxcwzRiHRi5PbKuI8kSKpVjM5nSEv6lOGvPtRAEJQvNBPimjzB/3aVIwHRIkRWHde3dQKOJ0hYDRMi1htFFMkMoKP44h0XVMtLNvsTUCcgZkvbSvjN8YSbdWrqxF50VX0jmTABMgcya5EnVThssE4UeV/yJNtNJ2o8oWWbfbtl6MthX52lE1E0CAakC8Fr6oTrlOkXRBdY99Erf8YAQPlG0AywSYa3deLNFwXKJEgupXUiizR852WRglxS+HjP0YkMUulWBirV1Il0YI7K2nLIQ1LeHh/biFDFJBd5e3NPfG8ec+2yq8IOj3Vil/uw791pnSAIiptcSY54SIJke0UvicYTKTXaTwMAyAaKqOfCKzr0rSygI5r9R8pC8dOqvhL2krAnottTnNmn/PnUk2eQFwKCHYIAYX8rSVDe0J2l0Fm4n26BL1MRDVz4raVgKwAkw8IBCsKv5sIjn7/l0gkf1IktLX7BQ5I020KTdR7JpDDarNPEejF01ZXEeQZQCDq/b5Pu44QKhw3WiX3cm8yk+lqUrwcmdpRtIKmOYDKXfbtlzv4DuLVJyR0jG8ELdSIDl3v9jZAbrLsywVEEwQzE7r/iZwAAdQzbytJ1JHs+fv8FgQSAamEhZrUVYlZzScNz10TKfGHX1gl9NZNUirh7Dio1OzBNnagBdH9E2UC89xpP6DtX9sT3Zpqq0LcKOzzWiUI3Yz/H0johO/zFJVndcYiGkLkIaYsLCOJoMkdtoCPkm9rvE6nLSUhOTRkG4n0qGnyzQllCeEWH6WjiGO0ZJwffaFEeTYokIjvaxSGuJNpj4Vd3Azqar5eocnJZMX+RpK0mEwtpuCOs+BbkO+p6GgBZgK6KxxN5RaV6A0/Pg8h1yKAO+xaGnobYn+av8HIQvHlOcYN1YcjIioZ8dQEiTiHldBXlBbNFe2zMquXP8Pd3drQ6oF8UerIJQ4X5O6RS1DY4qNR0YGr3rkfn7usWURjJib4mwwgtAt9bfIODdaJ4Wx2rlGmdOFbVqkxljpyuWuGwydv072tn9epEZTzyqEpBL0H5Jsq+Bk+FHR67a6kcqqp1wjhqumqFw2ZfkpA3MQ68UgXecctHnY/CXzuVeauww2N3LdX9rG6dKJUVD5pPhcMmb9O/r5048A56q/F50AIVdnjsrqVyO6wTpbLkQfKpcNjsSxLyJsaBd5DbjM+xLVBhh8fuahv+sH+xThzWgoc5/8EHH3zspG2HuV58bpVboPIOX+UGL9XlY50olSVxPtgC2AJ7WOCkdYr2Xd+8o/CTsrPAzcM6UcA4+BC2ALZAKS1wuieCHnvssZMiCXnrWeBOY50oYJyyH9p3d+WknVB2C+ICTpQFsE7kbaCPyc4CroR1ooBxyn7o1IdN2S14XAvASOC8d+bUO/wxafEPVo28t8zciXWigHHKfujUh03ZLVjhAnZUZUMzUrq26qxEkL8G6stfGPrm/fzHDr335CKBT73DOw108u6lkYuPPvyZru/MfeW/BB/t6f3k1NWRLwwPfJr/7ddf//MvjfzxC9EvOomPyYcCjol1ooBxyn4oN2y05WjwHM91+rj+QPhG2X8fW9YrzL26shZX9sy1pHSGZppYYTTINbH++Ty/StNXooFur6eVZZsoui8KeQ8l2zLYqyXmSJaskntkdNpcIvNy3c8nvvnS7anZd2cX/vvT33zj8gv3rn73x+ef+c6Xw7efe2nt9//z1T8N3giM3Tkm8uBUI/NqMr5hncgwR4W/ZIaNLk/wcDlFysP3C74WAgDAno+XtK0pzfU9/fTTqpqx4rSqqs8880xW7plXl3XwBH5NqbFBuDofXNL1YkLL1QBdDnUQgKDZVoYEgOwtqU5kslexThxDB3LrxLOxnyyvp+6t/SL5w18srv78mVd+dmFq5z9Pao89r/3J+PYfP/eT/+tP7zkN9DH5UMCkaZ2QBniuWwgM+7lOMfreZmIiIHT7uD5/8FpSSxnaQtjfy/GDwRgkC8VzmYvaUiwyFZe3NHkmHL6h6qsx2C8+y4nD4fiqXpBFmlz/XjZCMr3H0JUpGwZZERZpAWOV/FBGS6rGhHoA2iULtqqr0X4K1HiCd9djQz5vlyj2cVx/ILIIu7E2UJMXL0ZlzdCXQnyHTzgn8t28eCkm5+nplqzuY2NjAIDGxsYPPvjAzPSDDz5obGwEAIyPj7uLybg694GT+FnPYJqmCaaOf2o5fN+VHCRwSpNngmIPxw8EwrOytpNzylEigYsMQ/vm6Ur0nI+7sL9+zKlyCdsSzl+3TnztJfX57/zkqavq1176++G/2nzyW3/7+YnNPxr90SOhDz75pbWH/8uP/8PAjWMiD041nAvJ/ZDWCW4oGOhCq4O3BecmIBLCMxiKjIkekuS+Hgl0eISL4WAfQ7YE5mb8TB1JNkFAqUkxirwrBztouoFiu3m2jha//UqgBYAGTpoIS9000fL5qdDuLNK2J6eeyOJBPvJcAO3piai6nhxhybagvFMhFmmujcq3xx02+qLEAIKbVJzitIUAA0juL+9A7BIATCfPt5OA9IW/f9PfDEC9l+/j2FpAdoXvvirCO0eyXLeHAsA7ClHnZdpUVW1oaDClQkWbKRKNjY1Zgwz31ZWpMpXKVlcm3EzTZ6LDOf75bjSb75uFBJ7dlMc5tkMMjoVDIzxD0HkowkeIBC42DG2TY52wLeH8devE7Pw7H3744dev3f3www/fSL7/tz/52d/+5GfxH7yv//xfRl+8q/7dz7r+8HGngT4mH5wLyf2Q1gmKoDz9wdAgSzT54/fjsCVqFOMbSqSbogdi5ihbu+GHwKy3c5mLunItwJ3xeDp4aUbRET+VBIRvTFYXAmydN3R3swCL9OY72TzI6/di/laEmdQRDBLqRG7lT/wed0uKVIESZtNjAYgHIAjfc7dCZyzipr4a9pHk2ccfoQFguv2B4YBwhgQ13tErj1A1LCRt7MjBNsK5X2Uy0MbGxgMPPABJIWgDADzwwAPO8MIp1H11zs6T/kG9xlP1/PVkjn9qejZGdFTedCOBh+cud7HcOcFTTzHdAbGVZAI3IWcUkGwb4xmUxGbSe6RI4AqE4al0Ccel3ToxNfvWROztz39t7rmX3/5i+ObXoveufPuNnz73xD890b34e2e++kLS+9B/Oiby4FTDuZDcD2mdINsFoYP1djBEkxi/Z7NITZCc/UTO0ok0eE5XZwSK9ELU4o6qrGmQ2Lgmy2tacpglUOOuL0psnSd4Z6UQixQiX2CHmB6MJSc4qlGIqZDoAjGTupY4zxCtkPpy+jZ32EANIIDnImTNmhu0LaDEV++GzhCUOdm9FuFI4lf/n0//EgBkE+tp88B/HcI3nn+EIlhpCQp0sJ2g+i1dt3Mq/d/333+fpiHAyhSJjY2N3DLcV5d79ITugToBuXJ5/BPqOgCgxhtaiAcQjS4DCSzdunmepZpZuo4g2wShlWCGEps5pxwlErj8YXgqXcLxZLdOzLxx78MPP3z25bc//PDDW3d/rP79z/75x+u/+O7Vn+n/cr+7+a0VtfMzx+5Hec6F5H5I6wSooX39PFsDQAPSCRIQrWJkBYGp8+lEBnPx/x56/NdJgqD5iZjUQXMTK7cvMGR7UNYNl07sziI1HdTFgzR1gmjmuDMMBR/oAvZCYnOtEizSXBuVb09G2KTUaB8FahhxIqFsqfKM5KPQ4wqE+yY6Q/KOoc6IVA3z+b/8ipcgvKNJPaXLk6KvW3r5qlhhnTAMY2Njo76+vqGhIa9IGIaRcXXlM2IFc9ZXIkIzAHWWTmT7512oE26MqJ6BBE5qi5KnliAbPIHZRKiDdHQifcrRIoGLC0P7AT6EIyVXYNew+O30uYT72t068e3XFr/3Nz/+Yvjmrbs/fvbaD2b+Wrn1SnzL/5vK15787m80Rb6z8qsPn9DxBEF6hmOxIQZON72X8LcgFunSrjpBAJIbT6qLQRYA8L8++vTnWNSeA7JDSmh6MksnfrBZiEUKHTSDB4l0ggKENzivyuM++IpJ//W5z1eCReq+8eX+nB02W4lQr/lGDZRGot0fXdENXTGfT4AaaGCqN6LsaIlLHHoziiIJiFNef+0IdMIwDEVR3n///d2slH11u6U7Ofv1paCnjiBbAwmzSc3wz9jm3T2QwMZOUmolmHNxTVfCjk64KcJHiwQuKgztoSocuQLibETJfe9r9xt6+lzCfa1unXjhO9/f0v7p69fvqX//T6/89drS6k/eeufHr7/0xurivcvfeG124f/7dX7ImfA5Jh/c15L1OT2ekJcgw1RX5SQCoCIWqaanDIfUCM/cUZKLKJnJEHUzF+GMU9I8F72QgyCj8BRVRqdAIuRuLFJXKfqP3oy+cGt9x1WursmIn1oZFmmWgcr6NW/Y6JoqL8uKBZQ1kE4Q5NlgbD6RWJTT/bcdVVlRrK8IeKnCqTnUyzNJmWWtehGZ5726Is47zkkgBthE8KbjwvZPGDyFkcAOoNSA+STXULxlnYLIvkeDBHaH4XtzU9fvbLr2QJ6xiTG27g8eT2Q7qlsn/uvs7b/b/qenp27/raa/9Ob/e3f17+7Ifzv13ft/s/YP/+Wvbs/efv/X+ZM575R90Uf0XV8J+xo8waV9DWePqK6HLraolhSOJ+znE4cusZIZFHV1lawQLqtoC5QJCXy6XcKtE89cmf2D889x4tPiFyf4P/3qf7zwDf5Pv9b7n0K9Q1//nT++9JmhsbbfEo/JMMKpRgHvSI8nCiSq6KGUlrwWTWT8iqui5VeysJO2rN++61tJY+KySmmB8iCBq0cnfrw5ubI6trI69i763/yc9b/TQB+TDwX85/jpRIHK4kPYAtgCJ9kC1aMTx6Tp31c1CngW1okCxsGHsAWwBUppAawT+2q4K5y4wJ3GOlHAOPgQtgC2QCktsO+Jy5N2QoVb9tIWV+BOY50oYJyyHzppUbDv+pbWj48wt7K7QnUUsG8HOmknnNbbiHXiKO8sHoYfYdO/r6KP0ktOUdmn3uFP0b3KuBSsExnmqPCXUx82+2qLj3PiCjvGaS3u1Dv8ab1xB9KJlBq7IIaq4ycOZb3xpz5sjnPTv6+67dcNMPc0r8VOvcPnvepTsNOtE7q2hn4FvKPKy4q9iku+a0xtzkn+59/K91O4HTk6Foqt5juUL6cq33fqw8Zpi08iBtKp/M9/fsVy1ANzT1O6uqYWiqmDRUJKS06FwjdOzK+NTr3DO7fxb95efip4saeX/278u1+5FOR/j786/V+/KH3xod996I033vjyU1++9tI1J/Hx/5DWCXWaZxoZplMKD3nornAe5GZKjY8KvnaWbWHoetdPpreS4XOct83j7fZHvnuVozIWxz7+JjjCGp76sHGa2pOIgXQqb+nEwbmnenLYQxJoZaf9rIaU3zOtMERr+L9465kzcHnNk9IvO/UO79yyb7501+aezu/GPXUSH/8PaZ3Ql0I+Eq0T3SJG8w0ItFmRBoBqZllIqUGrWMPr0xLDLAAk08rStQD8+9/v+GWsE8Xe91MfNk5TexIxkE7lLZ04OPdUl8c5sob0XkovGl+si+SkywjDX/qNz3p+CetEjpGOZoc7nItw+LePppYHKjWtE4F+juv1h2ZcOEbNMLYSUi8fXNDSoEctGT7Hi6MJTU1IPfCQG4NqbCBwxaxmgzkF/8VIYkOH+ZiJ4Ug5KPZyXJ9fOs/7+i6/Ou7n+wJwYdSUGhvihHFZd9L02tTV5ag0wIsjkeSGAtM8e2dpShK6Obhny4AVGODF0biyHBF7xIgjcmo80O3zT6cJcQcyURlPcjtWGYs5oqzdy92cRAxkhk4ciHuaTf/dUWIXRUgXnkioui5PWp6vmw58KX7fAQA7OFUdLr4ZH/PzXZxwPhRd0gzdpqVq5hqRaDyRRVRNGdlF58QUdApNjgzx/PmI/K5NMt5RE6Mify6cfMfek4JUXaEnEFcNbTHInxXCywcfvZx6h3dCrQiHv+UkPv4f0jrBDYcjoyJbx4iTkybBUVrUjY0oT1HCzHpyJAtNmmYZaTfSGFRLJyIv+9tZfjgUHg/6z5DkmaD8rgU+0haDvhafOCLxTXDswpx7cfQTFElS3jFZtxdbXodpvMKFUHjM76Uo31+8+GgrRTd5vK0U1SUF2smm3x/saOOk8ZDYRtL9sXvXBZokqdZAbE7y1HkgrsfcsE4cqQO6deIkYiBdOvGNg3BPn576fCb998UQ7+n0h8YDXorinr8V7rQ8X12QPPUU1fb5KyYA2I373VKj/aynXwqNh4IDLEFxkfmr6fCEa0SSzPmbS1lE1WzwcGDuRmZMjcN5ZYjGqofB95UrjyKSsRAeFxmSADXs45fNPS628ZqhLWCdKBRRbhUsxuEL5XXMjqV1AlZsJym1kax0G+IYa5jAgqMTqr6RjSaNOcw7XYn005BuBLv2UA96v/LHbLvg72Koeo84xFEUF/m+C5DXzxAky4+EAmdIqjd6/2bQSxIQ6awrJrxFMwx1WmAoyjMUCfVQFP/VkU8QAFB0HaD7Q9IZCHhBdFALnX0nCrlv/KSsLmbqxDGzdW513I6Ve/Sk73HrxEnEQLp0wn6ObRj74Z4uLY1Dznya/mv2xJ3+0Lzp+Ul5JuAhAGiTbkMAcCbu972Y0OoVB700RfvO+b11lPjKJgSsmuFp6sTQi9lE1QtQObKKzogpE4+Y0hIXYfCFfrAS6WdALeNpZoURv6eODdzKZRuXwB9PvcM7NirG4Z3Ex/9DPp0YSWrLIegrC5q+FuHqKP6aaqRy0KSOThiGMslRjWmd+Gx4lGuk2WaKJGlukKPqfJEFWye0RKCFZHoFX6vX1wJ1Qt2Ce6BO7EBmJ30urqUgExsAgh2KhHsoC/mJRjb8lAUCc+mEdPutkJck2HMxZQHrxDFyObdOnEQM5K46USz3dOl2Fv3XHOnqSriThLQiLRFoBmQjTTVx0ghH1XGRtRyc6qYcPEMxrQxFkkyv6K2jhBlVXw6i8DQZViTz+bkcourNW9lFQxSxE1O//Fuf4z/hE0ZiybkAU+cNLevKJAcxWK1SfD7orYN9RDuoXWzjQztX9ehEMQ5/aHNWLgOXTqS0+LCXAoA1dYKkvD0+thE92ia5yLubEGHtRpPei8IeS4sQSeOyrfGE8Mr9aC8FSIrpDSdmRNrUCTPxWzcDzQDUe4V+LwEAaekEQXfy3hYaFUaJM+vJYRZiUzU12ru3Trw+LSBksaEvZeqErsmLSYhVOq7bqQ8bp6k9iRhIp/LOe7H75J4uZdN/c3WiCYA6LrysqbMiHHYjncjEqd68+6yPJEiqVYzOR+DLhLk6cT6RQ1S9eSsLKLkEdSIjpnQtMcp72hii1tEJgptStOWQoxMZbOMzQflHSnIhqRyCVH/qHd5paYpxeCfx8f/g1gk12k8TBMVPKZAIXwPo/oiyEfc3AigPdzez0aTvJfytiI16Zyl0FrbwdAvLNlNEAxde0dVpniR94VVdu4F04p6d+Acr4bMUQTLitXiwHeF3tmCvCrT6Y2tKtJcEgOAmFXVGZEiSaWGoWoobg5htZYKDZVA0RdKC9WjanHeS3pwSSACoFpZtJMlWf8x5m3wt4qsFnkvysRWKUx82TlN7EjGQTuXTOrE/7mkROtFMMOfhJKo25+hEFu43tvl22EvCMb1uPSy8nxjxQCxuI8vCcQYjXlNziKq5OqHnxJRhpLT4EIM6f3D0QMJxkqFDnWDN8UQG27g5MPeCQAEmsIAG8wdq2069wztWKcbhncTH/4NLJ+D7D4oFLtVVE4MKQZprsklhdECP+pabjarqkNSYSMyjfwsyom+6skJITk03EEgV9u3h6ctqmqiKQI/yFmrMnQqYyRYSJmPSBKnCIhYyxgcwz2VV15TkAip90eaAmobH44kjdUD3vNNJxEDm6gTEyu6He2r5Zyb918wEQk9NzzfHu3aYOFGW5owiN1Y02KwriDwK+cFWuDnhACmkKFgsomreomHouWIKeocd6U5QG9q9V6/O3d9Kx6kJ04WZw0DD44ldg8qtgsU4/K4ZHb8DmTpx/Op3umvkdqzTd6VunTiJGMh8OnH67lL2FZUVPHzqHd6xZjEO7yQ+/h+wThzlPTr1YeM0tScRA+lU3pl3OkpfqVjZ5QQPn3qHd+7Sf//7n763/uP31n/8Q/S/+Tnrfyfx8f+AdeIo79H/394bBreR3Xli/YEf+oOq0h9Yl64tfhCq9IGdZSVCipUjEtbVCnfaPWGiu1NnmbV6D9lV9TIxD8tytIh8K8NyJlqc1ob75D0tTrI1sGaOe6CnNIZmhzY0Pq6heKwyODK94DjcA2eK46YSXtKqYsqdCuvSNUVfIfV/r9/r1wBIgiQawAObNTVqNF7/37//7/d/v/deN95v6NOG7Wq5Pu4nSoao7qEH/BC1le9WQp7whaPHH4Y+bbjmBtb5HgNjWKsbesAPa8OFPNHPlh36tGG7Wq6P+4mSIap76AE/RG3lu5WQJ3zh6PEH3lQdj+wv19zAOt9jYAxrdUcGEG8XDGvDhTzRz5blLQuO7G8/gxvWPXgRODKAeLtg8ELeHY9CnuhOHI9nJZyGHy9u4VWcRiAEPKcNdwKesKvGXLa6w+mND4TbYdoMRDN01wnHLCaVyEQ0OluyTq5K1F3f+m0tBHy/W+CY9bM80bHuKa5rt17MFWoH/IZ/z7G2bcexzY0DVVSP6fkwXBamDWet2Inu6W69MBuPXU4V1g7IDc7uu1vuhoDvViR7bMfjicN1T7FrrOziUht1VHoD5qIqjUTU61rsslHfd+8wx1xMqbP52o5dvavFp2KxqVjsYkKbzxaeEeNWrXgnpV1OJK6msgvVAd7Wj956pwenJ22GQS74UN3TjlOjE3yAOtBMqrjhWE8z6jTKi+k4qHstkhRwrOqjjD6TSFzR0rlSnQdWCgHPvT72obqnGNw+2UVJLW7tt8meU7+XgJ2K5QRo3u3759RuK6BdYVnla7IgxfSb2cx1PX4ORIwyz23QNUJ7DMaTKf1SBLY/u2hg9Yl9TfLzxelJm2GQCz5M97Tj1OgIoPazFBaZMB8lREFOzGeyN1PatCwIQvxu3bEqmSnIBuWyrl+FbZ4FWT2J0lxHPp24UAj4b/3l1u/98dt/ZDzL3H9x4nD2zoA3nzhY95RqH8KmYM8K6aSqz6dTSb3wg/eNWZBBhaXYnQqIm66+spaN1Hw2fzejJ9PFdZ8wKmMH36SfJ6bIzGMbNi2PfXX5rRlROJMobGA2cuqPVBFtKNu7CAVZ0+lJG+7lgg/VPXUc63kxO6eBrOnttHoptfDkG6mknn1qwm7Hiyn1eslsKVPacuy1YhYkh1PZhQq7ZbePJ9DWy4BEECYSxEsPlv8sLgiy/tidc9urRmxEkGfL9mA/EQkB/8Vv2//jw//nD7/1y7/zR3zqYx+oe2rZy2h78K1GY6ukjgrCiCiMyLH5wgdLzaKnIFI0Hk3MxJXzcfWCLF0wXpS9Mu4241u0923HE7tm5a4qC5L6rXdSZwX5Wtl7HmiV9TFBnqsMeD7Q2zv44PSkDedywc7huqcvK5kLUfWGkbkCg3th6qul15FUMCti2lzGePEsG59UM3fzhXsZdUyM3qxSYLfhCRDBzsYlIZJ6543floTxtDex3jOLV0ThfOag54UHY7En34aA/3z+//pHf7L1ua/9n//VHJ/62ICT/XVPKU8429XiQqn8uJC5JIuT2dpOi+jpV/8wOkVET28i0dNPvTKH8ARkGP4TY9dL5ssybHh/s+qtbSEJMB9z9ATfAVVyetJmaOSC99U93YXJrizKsVkjPx8Vx9Pvt4qYNpf5wrf+l3j0alo7L8uTeiapSBfyVCyF5QmSFPCvdDFb2bKAFaYNWhjkJudkH3MEBNmTmQ0B73z2H+599yPr//73V/7gyyeLZU+v9tadoFrME+10TylPUO9wwpS27eqdmDiayD+37C0QN0XzCSU+GfFET7eoMGqrhqJ/PnFOLyxXq6tExGK3np0UxMsF8kQbKb9LgnK75jEHdYjDg9OTNkMjFwywb6t7aoNkqTSt6xej8YuKOJ6qWC0ipi1l3vnXunI2Gj0riWPxVFKR6Lpro8HyhDgSTS9Wqis1032Lw65cjwiyXtomoAfNYEFgaIZ8MVj/hoD//74ys/rfXfgX79Tiv/M/DVbbHOgNwxMH6p6+8dbnZUGIXM3jN5eoAOSD+1oEnlYriauJ+IWYPCKD6Om1iCQzoqeIJ5o1FN03oPw8weQJctupIzn42I1ibdu21krpaVGQ6OOKA++Mhy9PT9oMh1wwhX30DdaBAAAgAElEQVRpGzjAJ1CaWX6sy8JIJDGrRUcE9GpGB2U+qaTHRVGOJHKVyu3ovjxBn08QVOMHEtKlbHndsreqhbkoPK54QqUcSbkB+zcE/L93/sMnMxN/vWFd+sdfHLDGOcgdlicO0j39xjtfjY+K0mQGL4k6RADyuwUNlmOnsjUb9+my/tRuFj1FPNGkoUiWVg/mCXhqXrmTQCu+aPItJ7JPh+fN2NOTNsMhF0xhX92xQS5ejBvPrfrDBLxtNPvuB9mYJEqx2+XyDUU4h+cTh5epzEfEqWxtF4v4kvc4muYTLTwBT7SfZOJIUB4lRkS75z3bOCjj+/pdCHjzz1//4W+NF//Nxt/9HKfziUN0Tz3FR4Q08hFpMdZx1010GT39VKLmSLVOPQ1FglfHqtc3iAzq+j4cAD/Wq9e3bGewX+cg99Tpv6cnbYZFLpjAvtFoJ1DqqgU7lisMfFCZT5YX333xaq/hbNWwrrCnVIrhs2vV1yGxIHdW63bbldY9x9qE9Gn/bacw7F25EPCbqz9/8Mb7T1f+99/UbvQu7ieuiZlPnNhWaOCoETg9aTNkcsFHbejW8tZjLXKeeWGptcQwngkB/79t/b9f+9cfPv3w//hNjdN1p2HE5YDf0+lJmyGTC+4Crnbr5ceVfabPXTA/mCZCwCdv/Mv/5g/v/uMb96f+QWow26itV+F8om1YenTy9KTNkMkF9wgfQ1dNCHhWIpuj5g15op+NdXrSpp9RDusemAiEgB+YpjiaIyFPHC1e3S0dpk134xlaG/AIhIAf8Abaz72QJ/aLTC/O86bWdWR/exHEsA5+InBkAPF2AT9NcTRPQ544WrzC0mEEwgiEEThtEQh54rS1eHi/YQT6FgHepgfgb9+CNUgVhzwxSK0R+hJGYKgjwF23y53DAcEn5ImAAnsEsy9evHjw4ME3v/nNBw8evPnmm5988skRLvYX7aIpv+HwUxiBLkSAu26XO4e70EjtTIQ80S4qPTxXKpWWl5d/9atf4Tp/+ctfLi4u/uQnP6EulJPMrtIThom+MHMKcxb2YTQ2G4eaaixp3lXJMljaNJoN5XANtP7wIIxA1yLAXbfLncNdayq/oZAn/PHo7acXL14sLy+31vno0SPLgr0/gQ9wh44K0Y9mTlH8HfqhphBJaIgcwJZratNQCPe0uhGeCSPQ3Qhw1+1y53B324ta83giPoW02i8mtPls4RlVfKAlDzpw1vLaBXQ5NjIVi11KFTfbbl12kJ3T9t2DBw/oTIK991/84hff//73Gw3TmICJAvNX1tDUoZUnjm4KWQ15ggnuAYfOZil1yUV4YkZP3y3Vdg4o3uYrbCE+W8A78zf27OpdLT6tZpZfmgupxKy7Y3+bK/GpPat8Q9VyHGwKu+8tNBrcdbvcOXxA8E/ylccTghTTb2Yz1/X4OVjHyDy3D7BrLqiSpBaJfKmzVcnfyWZvpWCj47Nq+lY2mytWB30z/APur0dfffOb32xb069+9as33ngDFoVaBvvlpKAtwWygaT5xuCnBm0x4lbarwvs2PCIRcNZBgDoyk87cyqRmopIgSDPFgwZTSHiRlWIEC7DqFzXW0PjJrqYh0UR1YSPkCRLmgfs35AncJAxPUI2g7ZIqCbFc3dk1K/fT2hVVu5GvbDqNnWp2JqHOpfTLl/7ufwKQj8zkfXq8Tj0/LUhXSyBn7Zil66p6C0lb21UjmdDvLb5+JZ64ltJnVO1GoboN2WKvlbJzamImlV2sUWXggQNLYA49ePCgrW3Hcd58882DecJ70iAIwoRx/+imoOrm5xNN05e23p3Gk9DLi7K+hMc+SDRF1spWw14tMgB2oMe/rKfmfufib/2XfwtESmNp95IG4QkhlgM1RvtZOgJNyPDEjlV7bKSSqn4zX163IYWeF7NzmjaXKSzXbcebT7RUqscvael5XR34POKu2+XO4YCSs4Unds3KXVUWJPUvfl66Jgtnouqsrp4XhTG99NOSekYQRpTE7yZ/7/JZQZDVO2XfkIrliYZTvxsTR9XStgOaqSNK5skCXC7I8aQWHxOEaWPtJzBGk6Y0/WpMEtz8Ceg+B9Psm2+++ctf/rLVt7W1tWfPnh3ME03zicNNhfOJ1kB3fIbhCcdeK6UnBeF89sMfGzFRkC9qqWRcBgB/+OFteC1Amlav/f7vTIqCMJUqrLrzcrAwIshjonjBqO/a1ZuKcEaWEE/UbivCuS8U/ywhjijqfEodF4RR7e0fGNERMZpM6RdBSTL9/Y/yF0Q5WXr5s/aVChMJ7WIEVgJWDloJ6PiOAynIXbfLncOBNFujwfCEN0AVY9dL5qclTRbj90Gq3dnIx89I2hvfVkfdM03rTq5zPp5AV0mStlgrz0XEyWzt4xJcfg8MWk806cxv/PH1/0wQ5MR8JnsrlRgThMlszRVDDehmB87sJ598sri42OTW7u7u/fv3Hcc50vOJo5tC1YbrTk3R3+cjnQ24WXJWza+8qt2JiudSlZ1GY8+uzEeEydcXv6yA4ulOo9F23UmU1etaZDRuPK9kzovR2XRcktSFDcITcVGQE3OZbC5feFp7+ZNsVBAiV9LZO0Z+sVJ/uYF44u2/yu5bqbNZSEiSuji4C77cdbvcObwPfk96muGJc3phuVpdrVuos3Y2i4C5BfSW5FYxIYmJf/5AHRUTD2EK0QlPNByzeEWSprWELMbu1p1t4Al8uf1Ul8X/dP73zgqCGDkfjaGn3/GkfxXrpLfGx/U/+clPHj169Itf/OJXv/qV4zhra2v379//xS9+gb2Ht5KYRxQHvO/UaDQONhW+73QSQKDZgBi/U6qsVImuol29oQgTWAnYgfnB+Bfe+pIinEtX7H15IrVYSo2LypVERIpmnxTUUcoT6corWOZVJ5HI73iqvOXUl4zUZQW0TUdi2QqeTyx8L71/pZCnJGdPcreBXctdt8udwwE1HcMT9PkErgoNiORkyXQc87EmjyiZ9xZoR494IkGfY7vO+ecTjUYDhLIB5fHChtPAjz3uVO09u3orKozpj+6rkhjNPrcbaO01cb3kW8UK6I4Hz6xlWd///vffeOONR48ePXv2DM0kPC87+/0EPNyGgB9oqpPfT7Cv4XpOnPojZt3JiwVkgRjLrtgNu5adEqQrb33vKwfyxBk5tWxWrqMHE5PZ2kaR4Yk//NbXtETSqFqO9TQVEeRrX/+yekkvrNrOZlEdFaJf+d430LrTizf3rzTkCa9xunMU8gSO4/480WhYTzMxeCABT9tiN8rWFjMheJ6BhVjRTxUtPNGwyvqYIF5Bb4Zso8cbcBW68n7d2a0XroEZeUwS5Vhm6bSpe3UHyqGVHkSgLU807Hr+KnT6gOizamHtFVpBQvMJmEzDaeVGFT8uAAtn5NQzGz/BjuVqNsywvfnEO99JoamEDE8tpjLvV4sqDLJEWRaF0YTxE/f5hLWzf6UhT3QbCiFP4Ih6PFFbb9dN79nmRt3EMu17trlaA2V39Gdv1qrN8u6OtV6rbTKP0bZL2llZe4IWTNG6U+xWqfK8WmXqcnbM+qbl7HW7hUN7YQS6GAHHqq/WTAba1LZjeQB2tuu1NdMF865VX6nWtsiviKiFPds1hRNqx6FX2Vv16nO09osucnbM2kq1ulIz4bcavuRqX6kDlus7pEbq4sAccNftcudwQE3t8US3K3DMh3F46DeZdQdUzPOJbtcV2gsjEEaAgwhw1+1y53BAIAiOJxrOdrX0uOINwfzTkYDuJzQbRiCMwMBGgLtulzuHA2r6AHkiII9Ds2EEwghwGgHuul3uHA4IGCFPBBTY0GwYgTACzRHgrtvlzuHmiHfpc8gTXQpkaCaMQBiBwyIQ6tkdFqEB/T7kiQFtmNCtMAJhBMIIDEgEQp7oZ0OEw6t+Rj+su+cRCAHf85B3p8KQJ7oTx+NZ4W71kzuHj9cu4VUBRYA7/HDncEANF/JEQIHtyCx3KOTO4Y6aISzUqwhwhx/uHA6oJUOeCCiwHZnlDoXcOdxRM4SFehUB7vDDncMBtWTIEwEFtiOz3KGQO4c7aoawUK8iwB1+uHM4oJb0eMLVx56KJWb0zMPKMbZuddYLqdlsZduuPzFSSS19DxlxrPItPf0Y2bMq2dlUYX1w958JKMr7meUOhdw5vF/kj3Z+zyrfTODd7+n/Vdj5+GhmmkvvVI1ZPb9qgz7drKbfxCKPTn0xrd9GQpBDly/c4Yc7h5sx1qXPHk9gfewsyP+Culz0trstU6cV7dbzF+XozeqrnxkxKaLdziTGZHXBtJ6lo+NaaRuZ2bOrN6PypcMk4zutkvty3KGQO4e7A5E9u7ZoZG9n01cV2Dv5WiZ7O5tfAsWtDv/c7WafsvsIwu768gWj/u+q6XEpOpdNT0uRWdiVWZ+IppdRyaHLF+7ww53DHQLyqMUYnqD6E3tW8YokXMibTqt+tWM9L6STqjab0i7FtXug9Iv/QNxUihnrjv00JctqcaNmTEvRG4XspUj8rlcMEkZS3DQg157af7lDIXcOdxdagO2RaHYVoZ7Kxc/8/pdf/311tlDfbTS2y5kZNfvMbuzUy/fS2oyWvluqvdwoXkPbj5/Xi5skY7ZK2hjSFNouqnIk9dSs3lSkC9nCjVhkpkBn80OWL9zhhzuHuwt4ao3hCaxn97xaeZyNS4JyowIzA79+9auVbHREiFzSkBKvIM9X3Kk30n0E4V+ngWVVpPEIiDgm45HzqQqrw+jUjWlRuU4upI6cygPuUMidw92FlY8nsJ7KiJK49oWb/8O4MJ6u2g1XefQ7Py8lZWEskZrXoqIg/L2vf/dOQhIE5Vq+SnLBeqzBcGqr0ditGxdEQVbkESFyRYudRcJH1O/hyhfu8MOdwxQ43T1geMLTxxbkmXzNdmp3on796tcXvxwVsCDwbj07KUYoT4BCkRiZK2PasFaKxp2s8TCfmpTjc2ltShakqHYPrefu2eVZWUSTle7eCY/WuEMhdw53FxXNPOHKxTvVW0ozT1yV8EKucbdQWjHtj4yYKOveuhNcIp7HmqkNZ6tSyGWz9wpGUolcTqdnotKIHJtDE5Thyhfu8MOdw90FPLXG8ARed9o1K7fjkqwWN19Vb0T8+tVff+ufRFxB4Cae2K1np8SIb5bgmA/VyKSemYnIM4XKoh7Boyc886BrXNSRU3nAHQq5c7i7sGrlCaT33sITjy3HqhZuabExGHzJyeLGz5p4wq5ej4iT2RrSosdOOqtG7Gw8fSMhj+ul5XxCjgCvDFe+cIcf7hzuLuCptRaeAJFlECuN3qltLDbpV7/9wb9MiGI8v+44WyVNFrz5xJ5ZvCLJV0sWfQPEKqcmFP1xtXhVVubL5vNMVI7nN5zGnlW6KktXil5J6svpO+AOhdw53F1M7ccT9VxMHNPLW1b1oSYLkrbw48JcQr1VNneRFLykvv1DED1l5xP1uzERT82xi45ZnIlEb5Sr9+LyZLa6WU6dk9VFa8jyhTv8cOdwdwFPrbXjiT2rfE2GefS/a9GvtirpCdDsBeVfQWAmEE79XlyagCVa9OfUcvEIvNfkmAuaPCJKI4J40YDRk11NT0jxe0d4V4T6OnwH3KGQO4e7i5l9eKLhrMGTPPInat/5pHorCh9HZXgsMV+yXsLYSxAkfcl9QGGvZKKj8N4H9tB+lo6e04pbjrOWj0uCKAkCzOmdIcsX7vDDncPdBTy15vEEq4/tWPXaqquEzepXW08zialEZrFSWTISo2LsrtfdO1tFdSxC0gC0fImStmNv1KordQtNsa0lPXIWPb6jLpziA+5QyJ3DXQaXbUJe4MUivz6jsw3S1rX1em0VyVnvQQqA2PW6q/0OObXCKGzv1g30Hjl+pOds1amwPJhacdNnyPKFO/xw53CXAU/MeTxBzhz0r7ORT5wRBFlRxgRhFI13vOJoDnHRgLcD9/vbrRkXfa/J7lfwlJznDoXcOTzIQLKfZaLnmpLI7+/Q5Qt3+OHOYT+AuvbpaDzRaDQcq15ZLOQXyvUd8iY4dWa3Xn5UpG/+0dPegVUtPiofRCRe0VNxxB0KuXN4oGG0Z9ceF0pr7I/v/P4OXb5whx/uHPYDqGufjswTXas5NNRocIdC7hwOUTZQEeAOP9w5HFBzhzwRUGA7MssdCrlzuKNmCAv1KgLc4Yc7hwNqyZAnAgpsR2ZDea+OwhQWGpYIhIDntCVDnuhnw4Vp08/oh3X3PAIh4Hse8u5UGPJEd+J4PCvczWq5c/h47RJeFVAEuMMPdw4H1HAhTwQU2I7McodC7hzuqBnCQr2KAHf44c7hgFoy5ImAAtuRWe5QyJ3DHTVDWKhXEeAOP9w5HFBLhjwRUGA7MssdCrlzuKNmCAv1KgLc4Yc7hwNqSY8nqO5pbCoWx6IrJ6jTeppRp2NUJDI2FU8tUvGVdnapwIv3pWM+Tuu3ytaOCZIvyZSxVIdNDkAtEounOvWFlH67wu+WgtyhkDuHPTSd7MjZLKUuITxPx9W5bOEpguJhNp21vHYl5WkTkfKetSk3RxI3kdApKdD8r2MW51WdyoLt2dW72jETtq9iq9zhhzuHm5HTpc8eT7i6p7ez2dvZ7MOK1fJr6wNqbJV1NB8lQKdoHhQi0X9GYYVItLQz5Aq8PPbKwIZRZyP60kvzUUIaS2RuaZHRuLFmwQ6Dl/N4YynQRDqrpJ56V7WzPbjnuEMhdw53q+0B4SNCZCaduZXWL0YEQSZbmR1Ug72cksVodq05lzxrbnZkjcWaK/nV1l7TNv54p04ppt/EydV5wvZZbJU7/HDncFv4nPwkwxN+TQgYCl1S9XldTWarL83K/bR2RdVu5CubTgMUH+PqXDp1FZ35uI2sI/CElChQlUfw1DEX9PglLT2vqzOpLE4MUB7O6jOqdi0BGzJ7POHUbkclEHKBzf2lC/naehF25H+YV8ejmedkq4M9qzwbkS65tHHycPTYAnco5M7hbjWoOxLCu73a1fS4oNyqOXuO+ayYndfUZNp4XIOh1Z5dXzIgL64bpVXrFeaJVdt8klEvqpkld0rts0ZchIy7mNCvp7QZLXW3XAeMuzLD6jUtJrHb+KMdnf0J22i0qBQTZ9RrmcJzNPDrt9gqd/jhzmGCpi7/y/AEHZ7cyZc3HBgKCYIwFtdS//Odq7JwJqrO6up5URjTSz8tqWdAfyU+o0bPCNJvv/G9rzbLOjbPJ3KFyrZdu63AZssTCSSbqmRWXtXvw7QjflVLjIuCIHo8sVvLTorKLdin3FrSZUFUxkEgTLusRJJFdq4D3442EVKXYxScOe5QyJ3D3Wo7ZgaQSSej4oiSfmaDJrwgyBf09LyqiJK6uGE+UgGmyRSUEWN/8vDz8oii39QUQYje8FaWGGvubLu4CtYg46SoOhOTBSF+r76/zDDiCX/C4r3NpSlNvxqTBCGW+3ADnBGjV3TtoiwI4HDfxVa5ww93DncL8E12GJ4QJGUSr8CCEDygFkvGb5c0WYzfh5UeZyMfPyNpb3xbHRVBQ2LPrt5QhPOZD6tNcl0NxBOCPBF1H1Fc1AvriCfOpio7REb4X73IXxTlJKgb4XUnjye2i+qopC6a4C5sl5bP3jEKDzPxs1H9hh4fE8VxNbsMy03Oej52Rk4tkxlG0/0N9kfuUMidw91qf+jZYdgUjU4qMlJfid2pvtquV5crleVS8W4KjfeL9y6JElbr2qkV7+Uff/vz0PULgjRTZJ/Oedbw84npRPqJ6Wbcig2K2VNiZO7dD17fR2YYrzv5EvZVs0rxf57+SlzAi8mZ66oCajHvL2f6LLbKHX64c7hbgG+yw/CEfxoLqEVLq85mMSFJ6gLqsreKCUlM/PMH6qgIio97dvWmIkxkftSWJ1rWnWA+cS5dsRsNsCOpD5ezU4I8C6raTTzR9BGc3rNK1xTlakafkOO5Svm6Il0w6g5cGJc6WixuuvNB+MgdCrlzuFutDD27SGAGq50g5LX8zIhLgjyp6nM68MTn3/yTv+3iGdfrThHE5k34fdaIizTjGk7dmBbl2cfLX9hHZhjzhC9h7WaV4qtfvj4Jk/4oHvxNxdTb7y1/oc9iq9zhhzuHCZq6/O/hPNGwq5kJQU6WTMcxH2vyiJJ5b6ENT/hkHdF84lCeePNFKSkJ6CGE9TStsM8nQHvVncS4Kfc8Ez2rFp6XU+Oytliv3YtLk5ma3XBWs9EzSmYlnE90GRltzZ3atPF69j3HWino5wTh4jdKX1EEND9ubJdTZ4VI6r3HOvBHxQJZOv2y9vX8H8Bg62k5PSFIMwU6pfCsMVFu4Yl3P/rmfjLDbZ5PmE0qxV9YePTfR4RzqfK209ipZK8m9Edra/0WW+UOP9w5zACqm4cd8ESjYT3NxM4IAig7irEbZWurRHjCwfOJ6ifNso7mowSacHv/k66+/Vev++cTC6a9kgXByBGso8o8n9gzizOyfI0s6Tpm4UokdqtqO1Z5ThFGJFEQoreq9h4QksTqDHczOIHb4g6F3DncrSaEnt3DsiCMwzqqvWLERwXxrBIZBQDL85VXHxf1CUEYkWVJjFwxPniCJ+W2tZSKCDApx28+NVsTBOFs6r13yMtR7nyibG/7ZIbl+Yr7TlSb+USjsdusUmxvlVKToiBIsixKk6nihtN3sVXu8MOdw90CfJMdjydY3VMoxEo8oocE5kbdtBHOGcVHZ6sGF+6BfhEr6+js1GsrVdB9JP/VNm1nu15bM529RsOx66s1rHRkbyF5yDUiGEkctJ6mImNE7cux62uM3uRatYrt7NaNC3L0NpHlJtfy8i93KOTO4a4hwbHqGM8rtfoWTgNke8+2Nk3Ltq31Wm0LT2ode6tuYhUvmkR7jrmGNFCxQ9QayY7qmmnvUFFV0Ex1ZVBtE/JotV5fqxL7YMLeRHnXcnusSjH+0t6um9vkxdx+i61yhx/uHG5BRHdOeDzRHXtdtOKYhZlI9CZMGvb7s5Z0ZUIvb+/3/aCf5w6F3Dk86AjouX/9FVvlDj/cORwQoAaYJxoNZ6tSeFShq7otIXDqS4XigT/fa7lksE5wh0LuHB6s9h4Eb/oqtsodfrhzOCCIDTRPBHTPg2OWOxRy5/DgtHXoSSMU+uUWBCFP9LPpuOt2uXO4n60b1t0SAe7ww53DLSHvzomQJ7oTx+NZ4Q6F3Dl8vHYJrwooAtzhhzuHA2q4kCcCCmxHZkMZyI7CFBYalgiEgOe0JUOe6GfDhWnTz+iHdfc8AiHgex7y7lQY8kR34ng8K9zNarlz+HjtEl4VUAS4ww93DgfUcCFPBBTYjsxyh0LuHO6oGcJCvYoAd/jhzuGAWjLkiYAC25FZ7lDIncMdNUNYqFcR4A4/3DkcUEt6PBGfdnfqhs26t0rpS576qb1eMq5r6qWENp/JP65aTgM0VS6wsqax2CVX37HtV28tfaOtAKR7V33VYgwosp2Y5Q6F3DncSSt0UgYrlXp6wFh5dFrNoM3tG45ZeZjRZxKJGT2dK5TX7YZdzc74E2Q6kSHCi4dY68ShzsvsWeXbenqhbm9XCzd1bTZbXIP9Rey1fGrWqO6Afljppp5+vP/vWTuv67CS3OGHO4cPa4Fjfu/xBOySfw2kIAA4D9EufuPpqu3UH6pIsCimzaX0K1FJEORrpZefVvJ3stlbqbgkCGfV9K1sNlesIvlRZ6vNV8tvkz3O2vjZZy3GNh716hR3KOTO4W61JNm5L2pgEVO7mj4H22LCfvtWJQM7eIvKZT01p8XPCcJILPvBR+V72eztjD4pCCOKdiOTvWOUUAeNRFPwroLtrB3msbvX7NNON0i2nqaUMbX48cvSNVm6kM7OIpnI7TpsrHmnhjd+spb0yFmtuEW2gTrMh2N/zx1+uHP42E1z8IU+nhBkvWwBTRQuoQ1cx9PuRrDTRs2FpQNyKKNqCW+p5NTz04IrzNJUj/8rtBG/FJ9lNR3JBf3WYiR+9OFf7lDIncPdalTCE0IsB32r/Swdge1jRXVho34vBnLZT4hIO+h6CdHbuAsG1V5373HGlf2tmQ3Hqi4a6WuqNp8tPkdj/J16+V5am9HSd0u1l4zG8MevsMYqkTV1zIVUAnGVepNutFzPX5Iis2V7t56/ICm3quaSLstq/mHKtzEaaAdIUUIbjKddPuQOP9w53OUGI+YYnhBlaUTWn1rOZlEdFWRZEMbTP3qWVfCgiVzg+9dPBgd85Qq2MJqOdOjSdy1Gn9u9/cAdCrlzuFvtCT37iCCPieIFo76L5LnOyJIgqm++KM5IAsy821a1P0+0tbawUbsdBRW6q0g5VYrnP3pZSsrCWCI1r0VFQfh7X//uHawx/I3vfqNJ1vQV1hWWptXUHZcnnA2k4vXUamBJsZGIIgvCeU09H0kghUriNNyROJWt7ZITwfzLHX64cziYdmt4PCFOplLTUmSuVH2kSnIinYyAYtdfZRRB1tEk11nNInlrQRAi6ecoLY7EEyPRrKfpCBp26A8SSQSpIvgEG//lstl7BSOpRC6n0zNRaUSOzRXqu6B+Wp6VxQv5XiyjBhTsFrPcoZA7h1tCfswTeLVHva5FRuPG80rmvBidTcclSX3zg+JlUZgGacXGngWcgf8uF0y0hLvvfEKU21hbMO2NamW5Ulkq5m8kZEHS3vl56SpIbus3s8bdQmnFtD9Cynp/+VHhYrOs6QevN89d7Kcp+Uwsv45GZbv18v1sNpcv3E5EJrT0fCJyRpQvpkub8K25oEp0neCYQTr8Mu7ww53Dh7fBsUowPHHBKN+NS3JcnZTkZKF0U4H5xE/zcdGdazd2YQv+8n1NHjkWTyAVVaLpSHnCrl7vsxbjseLWnYu4QyF3DnennUCGHXrn1GIpNS4qVxIRKZp9UgAJ9zc/qsxHBFnHK7H2Zq36rJSZEsUOeKKNtYWN+iNVFqToJS01GweeeGw5VrVwS4uNAf/IyeLGzxBPlF4YU02ypu8DT2BdYXGlNkwAACAASURBVHLb1hNNluIFxATuuZ1KejKSuJGKydHMUiU7DYtRTqNhPdakZgFKYqV7/3KHH+4c7l5b+SwxPHExX18rxEG0TtIe16u3gSeqO1bpmiyMKKlHVXPHttbL2SvyMecT7XnCqfdbi9EXj95+4A6F3DncrfYEnjgjp5bNynX0YGIyW9soAk8smPYqWpK6nC2vW/aOWV1IRUXhcJ5oa+3bH+QviNJM0dpr2M8z0RFJW/hxYS6h3iqbu/C6hyCpb/8QPNG/97I81yxr+iHVnye3ba9klDPR7Cpd5XXq9+LyBaOynI3K8fxavTgjR+bK9p5Tvx8Xz+rlHXJlMP9yhx/uHA6m3dh1p4t50zYLlwRB1krbNqx14lXXnWo+SRac4NGd2FWeaPRdizGgyHZiljsUcudwJ63QSRmXJ57Z+Al2LFezt0uYJ+DFjycZePGP/IkjnfFEG2sb8HrhiCiPR2R4lUTSvvMJ0IMgCKOyJAjKfMl66WoM/37h235ZU5Sz/vlEwyrr5yT1kene43ZJH1dSTy1np5qZFAVJEoRIaslqICFVGfFTJ9E4dhnu8MOdw8dumoMv9OYTtQ3LaTRAmnSdHiCNUmTAsS1QXly3HMc21+um+7yLEWhsrsf/FRWAbPjPN0DX17goU906Z6vuKj4iZ6ortTq400Cv7qnFreZquP7MHQq5c7hr8HCs+mrNtOE5GT0wiXYv1LLnWJtY+tcBDeANVxsVa/2Sp3HEnYOt7VrmpmXvohp3kOV1pA2MBIbhMR6jMczKmnq6wqSeRoO8dI4T1jZra6brzC4oquJcg1dXxoA/vOuCOeIOP9w5HEy7MfOJgCroxGx/tRg78TCgMtyhkDuHA2o4nsxul/QJRV/anwPgVahoZKbQgzdEuMMPdw4HhExvPhFQBR2Z7asWY0ceBlOIOxRy53Aw7caZVWulWFiCF7La/zlm5VGhEvyP7EI9u/bx5+HsYPAED5EKwkfuul3uHA6i1UKbx44Ad/jhzuFjN83BF4Y8cXB8gv2WOxRy53Cw7RdaP2IEuMMPdw4fsUE6LR7yRKeRCqIcdyjkzuEgWi20eewIcIcf7hw+dtMcfGHIEwfHJ9hvQ3mvYOMbWh+wCISAH7AG6dSdkCc6jVQQ5cK0CSKqoc2BjUCEt7/XXnttYIPZS8dCnuhltJvr4m5Wy53DzREPP/c1ApFI5LPP3uLovxDwGC8hT/Qzb7hDIXcO97N1w7pbIhDyREtI+DgR8kQ/24m7bpc7h/vZumHdLREIeaIlJHycCHmin+3EXbfLncP9bN2w7pYIhDzREhI+Tng80S19bFBEuavFp1xx4MSMnnlYabslAChpX3FVtU8WLcd8nNZvla0dE5S/kiljqQ6b2IDsdqoAm+879YWUfruCVF1PVlVXr+au2+XO4W41F1a0jmFUX0xo15GI6Z5VvqFquWrz9k071eyMStWwPR9264XZhP5w/59Ge0X3PXLW8vqMKxqxb6FB/SLkiUFtmUP88niiW/rYeO9JrKySvZVJzcQkQYjebqP3BSJ3eLPx/Z0E+RTpkO3/nK2iejaiL700HyWksUTmFhKTWbNquXjkch4nJex0drYXO53tfyttvuGu2+XO4TZBP9Yp2C92RIjMpDO3s5kbemJcEEbV4qf78ARsJSsmHraMjuxqelxQbrTJhc6dsp8dnjWdW+txyZAnehzwblXn44nu6GOjPYqFKQNE6GAfTat4RRKQDp2zXS3c0tUrWipXqtsNLJodu6ZrV7TU3TLsQbvnmM+K2XlNTaaNxzXrZSUNCvVCZCZf27H9asA0Ak7tNpKGt0EaT7qQr60XE3JEf5hXx6MZrLuH3CjPRqRLLm3Qi/t7wF23y53D3WpfrFNEd9MDXYcROfX+J+58YteqPTZSSVW/mS+v2w2XJ+r2ejF1Oa7dIRPZdjxhr5Wyc2piJpVdrNm7Zuk6qE3AxNeuGlcT+r2a3ZQ1mCdebKCSxHK37jNgOyFPBBzgoMwzPNEtfWzME+f0wnK1+rxaeZyNS4Jyo2Jb1fSEIIzFtWtq9IwgXSl89P2UDBvrx7RkQhmBcdbL91MRQZAv6Ol5VREltfC9QhJOqHfe/eBbTWrARI94t5adFJVbMEazlnRZEJVx0InULiuRZBFtSe7GDr4dTfi0vYKKaqd2uet2uXO405Y4rByaT4jxO6XK82r1WTk/qwhSovA3G/kLopx8+8U3E+KIos6nVJhnaKWfwnwiNpdWxwTxQrZKxX9aeMJZg2mKNKXpV2HaHct9+GEuJoD+qGMvpyKCnHr7e81Z8wM0nwh5oifv155awDclhMcTXdPHxjxBNFtAm3EmX7MbWOBFgZl7Rr8gCSPxe299Xh5RsitOY88GmbDz2Q8/rVeXK5XlUvFuKiYJkeuVj/C608dmixpwxV0U3kayYotIiQX2nc1n7xiFh5n42ah+Q4+PieK4ml2GTZWd9TySJCME0xSJfnzkDoXcOdytVgWeYCAtjETTS6bjmIQn4qIgJ+YyoD79tGZ9WlLPoNJnU+VtxoVmnnBqd6KCICfmM9lbqcSYIExmP/zrfPyMpC3WQK5uPL28lI4Igi9r/uLzh67WMlUO1mE4nxis9ujYG4YnuqWPza477ZqV23FJVoubjrWkS4IgjUfJw0D9jW9TxDtVJMe9/MyIS4I8qepzOvDEfOWjN9HziX9bb1EDdnnC2SwkJJAR9m55zypdU5SrGX1Cjucq5euKdAFk7p3NQlyS6dKBV75/R9x1u9w53K22ZdadHHutqJ8To7eq9i7miZK1a1bup9VJmB4L46nyTxFPjIDyow9vzTxhV29EBEGMnHeTIp7M116ZhcuSNK0lZHiq97I1a96iWdOtm+udnZAnehfrrtbE8ES39LFZngAhOpBpjN6p2ev5uCjG79WcPXj7KDGTfe/tlDwSSS9bIGl3QZSuPPjeVxThbKqy02hsl1NnKU8kip/aLWrA5KURsC/G75OPDSQsfFYtPC+nxmVtsV67F5cmMzW74axmo2eUzEo4nzg+gkKeQLFzarkYyAN/inli4a/+TEskjarlWE/RYtHiAjzHvlcpXpOFs7o3pWjmiYa5qEpiNPvcbjjwSDxxvWQ6cBI0T4WYseY4rVnzXfwc27bWa1Q17/gt2tsrQ57obby7VpuPJ7qjj93EE/jjeLq6Y1fvqjDikmVJlBN34GkEGoAJ4oggjMSyK7a9YsRHBfGsEhmFTJHnKy9/lAFtbjHx1vOSXw2YyK7smcUZWb6GHv3B6pJZuBKJ3arajlWeU4QRSRQEGPrtNeBtqHOIhLoWvZMa4q7b5c7hk7YQuZ6ZT8Ap/Lgi8a0P0LpT6efvYiTLsiSIU5lKzX3fyd4sqqNCZI6AE/EEs3wVyTx7UbgGAJfHJFGOZZbQA7XtkjYqCJeQwBy8Ze7Pmr/CzyfWjGlBvFw094iLPPwb8gQPrdTGR48nuqiPbW/WsMg2rhDkfFexynWjsWuZG6arHWybtZVabQ0ed9eonNaebW2alo2GS1sw9rc3a9XVOr6EVQOmdwODuDFY2oIzjl1fq1vuq1a2uVatriGVb5iyyG1fz6V2en/AXbfLncNda1OqaI0t7gG0apuvYFC/iVC6Va8+r1YxzvdskM5GfT6LXnidD6EdSj6vVldqWGfe2THrm5bj9fiOtVGrb5OREGjIM1mza9XXTctBOvNEhbtrtxmwoZAnAg5wUOY9ngiqhh7YdczCTCR6s+XnTkzV1pKuTDArAMxXfTzkrtvlzuE+Nm5YdWsEQp5ojQkXZ4aCJxoNZ6tSeNT+V9+oGZz6UqG4wjzrHozG4a7b5c7hwWjn0As3AiFPcAqFIeEJTqPPXbfLncOcAmNY3Q55gtOWDXminw3HXbfLncP9bN2w7pYIhDzREhI+ToQ80c92CvXs+hn9sO6eR+C1117jDvM9D9IgVhjyRD9bhbucCecT/YQL/3XzCPgj+cx/E7W/g5An2selN2e563a5c7g37RjW0mEEhhs/Q3x3IU90iPBAinEHLO4cDqTZQqPHjcBw42eI7y7kieNCvhvXcQcs7hzuRiuFNroWgeHGzxDf3WE8sWuZ23Zjz7E33d+XNkNmz7G2bcex4VfW3g9KG/a26f4ouvkC9HnPsd3fZLf9+rSc5A5Y3DkcOJL2bGsLfkoNmw6gH2YHWaNjbx6YVkHW3RXbw42fIb67A3nCrmUvRJTxqH7PUMejaar5w0AGNjIbiajXtdhlIkzUAAEi5YwoTWdreP8Mpjw+dFYNdbbYAxVSZ6PsKiPdKVbp1iAt/vTrBHfA4s7hYFsW9sOPRsYjsRuF7KVIPFdjttroXs17VuWenpiORs8rkTHYHLB7po9kyTGfF7NzmgpKxkhV7EhXo8LDjZ8hvrsDeWLPKs/DJmWwRX6rCDA0vFO/l0A79iUMZh9WezUbkwR5Bm1k1g5MPeKJnUrqnCCMa8bDfGpKFC8Olphdo9HgDljcOdwOfV0855iLGt7LMpIs1IPZidiGPWgFeSIaPSsIQjTbJ56wV7OglXE5U7ifiY+ivTWPHsjhxs8Q353HE6U7Ke1qKj2vazcffft1XbteqNmOvVpIJfXskunY9fLdtH5F1a5nM7MJNfejFwtp7VqmtOE0dqrZpGa8954xq6XuVa29Bki9X81UrIa9UkgnVW3eADHIPbu2CNqQ6rV09qaWuFYAYVS7XryhaTeLrkgqQp69BsOWxGUtnStW2d3QQL7Urt5PabPZMjs5QLv/a1dAdbK05iWrs1FMXdYQgTn1XFQY08t05w6rkplJpB8jdaOjw71bV3AHLO4c7lZLNRqO9QzArM+nU0n93sI3IC+ems6uWb7tJotFh9u30+qlVOnjjcq9lHZFTd0mMKbo/XijhK/acaynWf1apvQ3r+pPi8Wlmm2blUeF8k9/lL2KoLtdoWnV2KnAyZ985F67VcvPapm/fOF+tBtuJjIjNtg/eQmSDnRVH1XwtoNeTKg/TDYRcWK9KfusJ2l1BpK6sWcWLokSs1WtvWpol/XC+uETneHGzxDfnccTsHu3KID628KD3zknSaPR7IpVv5+IyLIy9+6Lgha9oGfvpKIwfZD0xR8b05I0KqsLprNd0mQ5+c8+r4xK0jhs3G0/S0VGE8VaJXMxpucKxjVFOp9ZfmYkzidSd7LaOMxQQE1+D7SDEmOSJMfzGwRkSK9COK/nFwrpi5J0Mc9SSGO3lp2WJUnWFkmX71il2WhsNpt/mDfmoiLSRPIyAR9ZlfR5QcQbNZMzIU80R6mDz0OcCYfc/VZJHRWEEVEYkWPzDxa/EpNHJflq0dyupCZleSye//H7mQtR9YaRuYImGFNfXX6gRS+m8ouF7GXZFWan6M1/W0Mpll7Iq+ckURDjf5L7h+ORiKwkrsblMbX4/G1VBk0t+1maphXIbsvy7xfeUFHKGM/K6XEp8TWSratOA2Uiq4wEOt6CELmaLT7KqmeRthJ7n9Qfmk1WJT0d1W7nCw+N9AUJBL5alo5h838RFGVIxjbslZAnIKxDnB0eTxSflIo5XRFl7Tsvaw9VeUTJPKtXcglJEJTrFduqpCclcVzN3M+qY1Liz5e/OiVIl43KumlvAU/o331RnI1glSGXJ7ZcSILi6Wii8PHL0qwiSlHtTj5zQZKTJXg+sWdXc3FJjOe9wYhdvRMTBFl/YlpPdVlWS6xyZKNhPc1ERUnFQqdYB2kynpqPR+RI4no6PiqnnnpTCvDAqmQmBUHWipSK2FTp6zF3wOLO4W41r7NdLS6Uyo8LmUuyOJn98ONyelKUZor1tWJqQhDOJAobdv2RKotybNbIz0fF8XTl00p6WkncLlcXNHlMw3NZF71/sQEpJkjRKSU2n01NSPE/+/H7d7T4VCw+kymu25gSoMd3TJpW7sk330icEZT5srldAZ745saHOFtX2vBEY7eevyyClPeGVb2pSBfzJu3dUWiassl+no5O6+krijwWS91QZVkt+rPPXjXiZwTxklHzJ1mHcR5u/Azx3Xk8AS29W8tOSVh7LiaKkXE5ciljXIuI0/m1n+VjoxF1To1OJ2Iy5glRmowrI4I8HVdEGPuYC6oMQkAgcSpL8QIWhGggZezRROGvf5Q5LylJPTEZT5yX/uN/8E+0v5/Q75RryxlllOGJPZCuk66AAAtIyctqEfONXTOS8cRcvrJW0s/KHk8gYQllUpElSUmm4qM+ZVNno6hPCMK4XvR4qENI96IYd8DizuGut6L1BDr90rZdnpWFUSUiR/U7GUDd916WZyPStK5fjMYvKuJ46v0f52OSHLsYVSZk4W9d+r3f9qEX1NoFQRiJ51cqmfNS/F7d3jFNy2nsgbCE+W9h6oBnBiStGi5PvPNBdlKQLmSrm4gnHpr2ej42Gs2s2M5WUR2VtSdkqg3iLdXMeSl2F2R/a7ej0jQIAMPfPtnkbBbUc5HohCxJEXVelUcTbvbBNY65lI6Jrtz98QI73PgZ4rtjeGLPrtyOy4KrUQogvmCACN0tRQKeMGIjgjSlpS7BtDr+58tfnUTLR1f1uIRWohBPSFJMvRJT8KM9Mml15xN//aPMhCCMxfXZuCgIUrJkOXb1nhabUsQzlCcccxGWtqQZeBuK8IRjrVerG5bTcKzlrDodi6D5hLNVq66a9p5jPkxIoiRPpkrPiyi7XrrldyrpCUGczlaZxHHx7dh1oiRzPMR35SrugMWdw11pJmrEHXaMEp4QIvpj095CqAOekIWRSGJWi44IwtnU+z+GlBHHImilVitZfvQinpDnytYOdOXx2//id86KopzIL+XV8Zjxg7dVSRDP68VNp5kn3nwjMRpJPbMbNsMTkhy/moieg1QUJKLZtWeVb8YkQYjfY3jCtusrVSSCxPqz4abMnlVKyoIkK8lCdQmtHm+52fdq1YiJgnK9jOSXaEjQARIca3744S+CPw03fob47liesEqzEVGUtUUTBjtnZP2p1Wg4NcQT9U9L2jlRPKsVlwug/Yt5Ytqo2Y71WJcFCc8nREFSH9asVSMqCMJEpoompy5P/M1G4bIsSkrqScWYFum6U+WGIozEyLoTvEAli2L0RsWmPPFxHSQe0Qyj0WiYUJ2oLm5UbyqCDI+mnY1CXIJhFH5Son/3x7j8i3c0lDeQO/AnMpPorWLijIDGWe3g3Ktz3AGLO4e725LOmhEbFaXJTHUH5hMiHp5vI554+qp2JyaJUux2uXxDEc6lKj9HKTOWSCUVYVQrocEKQS9KMQl394gn/nTx9QsYrWL0BpAHLPPK8fyLtfxlOB85H41OyOJZ9cG/eZAQBfFsNHo+Io3Gsys2ZOuIEJmFhyXpcyAh7GbTnlW8GhHPRHSYYZD5xMc+5Lv+/KtlmmLWY02SEoVNx109xtn3j94ofiHi5hH+Z9p7e9B+qstCR8rzw42fIb47hidgNmrW1tDP5UDl0VUPdbbrWMQU1Ew34Td35lqtboEuKSg77tnmz14sv1v64BPH2UEl4dd2MHf2hBt3Tax7Sgu4pnASOxYoldJlU1a41IYL4Vd8m/U60kCFK/Ycc71m7jiOVa+vI7VINDkwbXjaYa7VTNstDz99WkECk1hmcrXu/RIwnE8cqwcd4kzoLB6eIqmH4T2YmwL8CJIBeCiPcBlnh6QVg14ojFMMLTShVMJSpm4qQN5tWA58SzC8glISoEtkU/FDAlIvJN4WuorejG3W1t0fwLqJvGeb63Vzh+Sbm022l2K0E/BnHwi44jzC/1/3Uhb6DaLhSmtuezDc+Bniu/PzRNu2PfjkdkkbE+WzEXWhz++YHuzmYH7LHbC4c3gw2/3UejXc+BniuzsxTzSc+pO8cb8c0I+MhjujuAMWdw4PN364u7vhxs8Q393JeYI7rA6Qw9wBizuHB6ixQ1eG+hcGp+X3EyGMex8B7rpd7hzufZuGNR4QgeHGzxDfXTifOADVgX91JKmsASkceFDCCoY3AgOC4eDcGNamC3miny0bHF6Ds9zPeIV1cx6B4GAZnGXOQ94d90Oe6E4cj2eFu4kqdw4fr13CqwKKAHf44c7hgBou5ImAAtuRWe5QyJ3DHTVDVwuVk4KWM7TcQa+Jd1Km0TCNXLlj10xjQjFymrbU8RVQsKxNGODopqEIWueVHakOtjB3+OHOYTbaXTw+Bk84sInsuagyna7s7O/JnlW+lcp3uFe+YxaTSmQiGp1FmwPub3XIvuEOhdw5HAxgysa+NGAaE4JwSJ/bSZmjOl7WYAcE1Okf5VIzpxmbjXLyUJ+PYnT/stzhhzuH94/9ib5p5gl7q17fYH6u2Wrc/uS7X/nt+G/8wz+8V1pjfpLZXHDPXv5a+tt/TX722fy177Pz6fJXk78R+6//4KvvvDhILdV30TB8YFFo5rAklCAkmwd2KI1htwTF7Z5Qp4BOGJs9jQPrcE8rHqzK2vMEaSZFSe7fX8PIHTdxWTucTjob4y8BRwA2Ng2llSoOqRGwpOSMw5zpTgOw+CHhoqimVbTAG98CAL6zgFBLJz5gHT6xMY4NeDxhPs1qF6ORUVEajaiPmrYfJnfYgRIqLnqo9Cmx2HA28olxRZnQjHu6Ms5ICdESw3vgodCb+KMFBLb3X9LIONHtWcpJklpLWiupBBotz+FAqxl04214wqP5Q8b1LZ3gfje7ZBibbSpqU/yQbrSTGtuRVlvWaVP9EU55+GlBNbXSAm+YfuH1NDOnkKESLR7sgedwsPUMunWPJ0CGZQz2GhMEYfrWB69gm6aWv8OVUN1LDpU+9UzvVLNTaGuxM7EM7Dx4iv48FDI9flMysB9hXXuJJZJ26R1k/DyHg6wltI0iYBoTPRs+twNSkDzRgmra5q3wZnwLwCVacduDEPA4LB5PpG+kU7OZ4kqtNBuJXC1u/E0lf1NXQbWxUNmELb0r99P6tXT+qWmtgqzpe9/Pu9KPDdgMXL1eMp2Gs1nKzqWz94z0NT3zxHT27PpiVp9RU3eKtR3Yp6++ZKSuqtpcpvAU7cq3Z1UXMvqMlrqe0q4Z1R1GCfVl1ZV+xHKPq7DnmbNZNuY1bTadntXSixsvn+XT19TEFT2DNw4ZDDXTtoBre5KikE2bBsMZ8KgRuMG9GhV7xCwRsEnVtoYun6QO++zCuofiroCRTHZXFWAZBC3H0wNa0meChw9oeQeNaHD37Y7T0QgXP3KA5R+IAxosP4JFf/yHg0PKJMvuAhETNw8A+GQOlpLoIBpZwZUSI94iZMObypBFJzOnwLXePMN7dEFXe/wzUdIXMy61X8U6WUNR/LSgmj72J55ARQjeP2QX09hvT+ZKZ1dTh9niKOCEwt1sZcGAjmH1GJ8kJVkTvB17PCGISnwCtsoHLbnv/Lw0F41eSRsPkWrpxBeK99TIWCR6Ia6MRlN3tMjo3/9nN1zpR8txanei0pRRf1UzLkZiV9TYeDRxJSbJ6ltLX01MqdmH+dSUFJl998ffVEE89X6xmNMUMQKyjsugEQ+Cq6NRHWtrUyXU/9WVfnSQ3KP+1G449fxF8E8cESOX0m8vfSMuCvKlTGHB0CfEyGzZ2h4I1evOMUBR6HUTDdTLMI8oWjJq4HjCzBnlTcPAZIZ44gPcTyGG0JZg8aSc07QJxdjsNbF13haHlCT8B71XThEmvvQlPNjHC4ZLGszzcuXGkqbkTG/lBBtFtPEBPDEuG7kyzBLcKHlxIwDALyAhU8QyXmnBNhkwQB/kkgGDFlQhDjh9kQlYCughWSa14C6YrF7CNW7/29qUtP8+JD6dfU0Bz9wIxJNZTWKZYEB5opwzTFgVRPcMPPHInfnhJoNcMOHdM3iawt5OZzEayFIeT0TkiCKLylw+MyUqN6uOXctejMjjWn4xEx2N/XH+8xFBkM7KohTP3tMjo4m3VlzpR+CJ24gnPi5p51kJ0giRIEVE8l986U9+UxJHJUmOpp9UjAuScqv6arVUXCyVHmXVc2JkHjQnPCXUH7byhFlZLJaeFPPzMUmK5z96WboWEUaQjve9uHTelbsYyDi3d4qmjS9VuJxPkEkP05+SyRAeAtMxNT5oH5DBPbtpGDl4BA09mu8e3Y6gnFSMTXTsrbyjG3fHlYgbBHh11bOAJih00oD6SvxAArOFr4vBCCnnDIO8m+R2tcgIM+FwOQA/0/K6YwQqoAEyvSu37Z0Zl/y32Z2WoYD3HEO8yxdPoPkEgbEvW3GTsdMIXyN2J4j9sOLxhHEvE5dk/XEVevCbVRjFS4IwpiKeiGZXHZA6gXlDtvIECV19apdnI/JMEWTpbiriZLb2qm5cjEQvRFskSNGFf/vLb30BvdIzGk0/qeYvSsoNrGME3FC5rvxHf+f3/tvfYpRQW3mCBMjZLCRGI+nKR/kLyMieY95PSBNpYo6UG/h/adqwa00+zvBnEcoudkjeaxR6Dvtj66W9rw8li2beSdZ5v4lB/1TWJhT3VSXvdryROHLfbQ4SjbIGQ3iDHVS6jUss4JJk4QjNt5JG2Z2f+RoXX2jmNAXeu3WnCJhjoGq0xKT80y81MRlaZULrHrg7g3kPmm0ssXMLfBfui3bEeWSTLGR1q3EofliQezVCNSxCcASYOJC4dcufQ+1Qh/0lGSfb8AS7JMA47zfB1yePJ1z1XZYnZJC0s0HDa1+eECdU9YIio/Wq6K0fffTNhCzJjAQpfi7tEsyHH2SjSFfVccwCwxPWUhrkGS8WzF1GCfWHRPpxuQAakJOpEhbctmv5mYggRNI/QDxxs+oAT8SBJ14NhJpp5wjwUIhnrHAlA0FsyBufupjzljV8GO282uOX9Bz22/BS3Z/J7nnvZMvd+e0M8ie03EQWc7wOlO0IvAZCPTi7Tu0uUrfhiSTMMNB5A36WsaQpEwqaDbCW6eIMWW7yP7hqMC9Hgamkhl+Q9VZIXKhA/BX0+hDbUzca3lLVfk3Zlabx8NOCamq/Bd4wLfPPumjZwA880482oAAAHfNJREFUh31VMTD25SBpMu8kOeO7nL8PHk/UH8L8QRiLSCBNajV2a8YlWTqrRM9J0vl02Wo0QMgX5HcjY5J0MVtD0o+CGDeeW/WHCXisMVt+9Td+CdIlH0/UX9Wyk2L0Ts1xTGY+4ZiPVFkUlbkyXndylVCrP8LSj8azcvo80oBcR7/GsKvux59twHzC5Qk0n/i5T9Nx8FuDRSEZVJLfT3h9K/4ZFCwtkOk5ntiSp6Y9vE/WYa9aNJhFSx/of8xy+TDxhLcOwzQNXdkHhqe/gCHP6lseGtOG8wbv7vNkb8GH9iz0ACJNu3Xaj9MD+BrPJ8iv/3yUhpuD9FzUDj1A7UiWyPZvSq+5T3DE4ocGB6Oa8YdGiazteF71+pkw67B3395aH5uVzOSSRJuFh3c5h0ceTzjbddA1XEFqpvhOsObiqmnjX8vt2SYWXMTaqI2GJ/0IYqVY+pFoQLoSpG5IiHgq1UMF/cjaFvkVHhSug3Ik/iM6jq70Y6NBD9zvsSQko64KSpPrprPL7XyC3PqA/9s+bQbc6dC9gYkAd/jhzuGAmtrjiYAqCM0eEAHuUMidwwcEP/yq9xHgDj/cORxQm4Y8EVBgOzLLHQq5c7ijZggL9SoC3OGHO4cDasmQJwIKbEdmuUMhdw531AxhoV5FgDv8cOdwQC0Z8kRAge3ILHco5M7hjpohLNSrCHCHH+4cDqglQ54IKLAdmeUOhdw53FEzhIV6FQHu8MOdwwG1ZMgTAQW2I7PBiTUGZ7mjGwsLhRFoF4HgYBmc5Xb3cerOhTzRzyYPDtzBWe5nvMK6OY9AcLAMzjLnIe+O+yfmCfhFiWEcIMwCfnak4Ai/He3OTXFjhbtZLXcO9x8K6Ed5RvKwH4jRfeUO8JhutnhAmcH+ijv8cOdwQO1/Up7Av0H19pk5hpv0x43M73iPYYbHS7hDIXcO9x8VCN7kh/THcwdvpHjCn993NFY7nn+dX8UdfrhzuPO2OFLJk/AEhi8MlHxbCLSp/yDFFbRRmrtl/2meT3i7PrTwZdMOB2Rf+xN2HG3a6dBTYdocGiK2AGo42HyC2ZSC/Z45RhuSM5/ZQ7yJrLfNEftdx8cDxxMtqKa3MvD7dlBPT83BSXiidd+hfcLGbFLWpgSdT0wYpm/nnDZlh+yU1+3CDjZ4aYLZYgzfbcuOaS0bpfUuKp7DvauT45oO4H7/XUEn7g6Y/F+gT3Q+AdvhHTYma3O9ayTXrLu+X9Hgznv4aUE1rbQF3h5BHk631EqXDjyHu2SQUzMn4omO7/mg+YTPyKnlCW/jsOaxJ5sbqI9gicS3VZwvksF8CNMmmLjCfLrDtanj8kRQjh/JLsVPC6qpmVZ4MyDvef9AHab+nc4DjyfQVp/MvvZkj0Z49oCO3QNPwBLteem2HEwVXaB7bYlPGiDhiNZSyPAKDZzpgALmE8zGkGC/jTV0LXkYiHtV1kMsMQi14EkrKTnYrUpRyKYNq0VBpH7c20DFBk7PbrBj3C3vyKCeqpa6SHNhD6soaLNxtx93Z8leQrEApn09PmnARrM4BTB6sU06jkZVk9VIMlYg+wqDGyShmDxC8oLshaQY1imCbEdXNad2t8LV3g4FPI0AuxUuuob6id5/mVCMwdM9bX9vQ33W4wmY9hLVRm0JK2qRxwZ04QhxQKuCo+lK/aGJLeEJpPDVQLNphPgvuyMmd15JeAIK0Bc58LVtrTVrDb6uYQ0AbMe9hDOtQZo2IU8MeJaZzaqlft1T9EYfXjhCPSBRKPISquFJQdDneZuGgkY2WHaiWUsVdejoDRFPHIKMG9gzbsfK5BFM3zV4w6ptMY0R7Cx7whUkbQNtCAr4kCcCjXPXjXs8Aa+3IslftgndPffR4MibT8AYxK/g6A3nPRks/J4rZgvWptsnEp6A4TORjCdb/KNRFR5AEfiikReZdjCrNL5L3CV+dkjS9Yh10yBNm5AnuhnWIGy1wTyuBoMNjdyZ+QRML/wJxQLYTQc8PMJsQXCOjHo2EU94xglPsGcI2mkegUE8YGpXjAYHJxF7FR540QIBHFDAt+kQ3OrI7cBHtAYVzicCaIijmvR4gkpqsE1IemEAnMcTqBK3a6P49q8FIYkuzVjCkuJl1qbHE4QevG/3t+YTemvDE1xqDdK0YdeafJzBCNQwfQThS7rmcNRmP255z+HjWuD6umbMw82Qfo2Mezwwk6/IGXflnbznA+N9LVl25xlLBlagQ/HxeAKvZZE0RPUl2Ux016nwui5UlMN2iFduQvmKkSrwylWb1EYFAvkfxQ8LchIfXGP4fCKQyJ/QaGc8Qftl2o/T/ouegTIarAWhMwb8aA5LCntLtC4QsIA7SPW67+p5QDnIGgMg6g9W8qILUO4aLkmSE8Ym+Mtp2kBHEL7vFHzAT1jD/jzhgdMDczue0JKK+85SzjCW0DsLEwr08hT54CLhiaRh4t/fMd+69uGMpsECABQ2QIUbvX/ozglICrQrBjXQpV2aSkwVJ4zSAZd7gCe0Sm7Wuyh838mLxcAceTyB5sXoYTZ9GkZ7YTQ5xd+5Mo2ATvKHe2cog58ee6tGNGfogffYin2ARizBv/tZY32gz8yphw3O5xOsaqZ/wQ1PI3CEyCsxNPh0YtEjQHl53qMKB6oaGnaCUvCO9OkTFMRuo7QkFIzccQt6a1C0d6YHnk2v3ydTEBcF8IABr4Nt4sUZ/yN0xkLbYiimcC/gDJtW7jALfR/M/1j80JuiMdkX3qivQDff6/dTWIeDCQkfVj2e4MPf4fKSOxRy5/Bw4YX7u+EOP9w5HBBEQp4IKLAdmeUOhdw53FEzhIV6FQHu8MOdwwG1ZMgTAQW2I7PcoZA7hztqhrBQryLAHX64cziglgx5IqDAdmSWOxRy53BHzRAW6lUEuMMPdw4H1JIhTwQU2I7McodC7hzuqBnCQr2KAHf44c7hgFoy5ImAAtuRWe5QyJ3DHTVDWKhXEeAOP9w5HFBLhjwRUGA7MhucCFdwlju6sbBQGIF2EQgOlsFZbncfp+5cyBP9bPLgwB2c5X7GK6yb8wgEB8vgLHMe8u64H/JEd+J4PCvczWq5c/h47RJeFVAEuMMPdw4H1HBc8QT6zWp3pIYDCucRzXKHQu4cPmKDDEXxAU4T7vDDncMBIfhYPNGJ5nsQ/qI9BsiP+4OooNc2uUMhdw73rEXxpuI9q+6gigY4TbjDz7Ecxjq1BzURd98NAE/QzVsmFCSu0j6GaDcY2DmH3WmybVG8k3nbrwbtJItCbzuglm12mnbCQXsKMVv99PCuWId7WC0HVQXPE2iTcGh2RdlfwbTzNOlcQa+L0Wfx04JqWg/dR4tsX0a7CHcHOVoy8APW4Y4rC3kCh6qb8wmKCcgAtNt+++Y4oBv1XUA3wvSdHdAPHgohE/AeZ97Oo67TLTtrtmyo2bu78xzuXZ181BQ0T9BeFfKkZSRBY9RpmjDCSvTaHhx4+GlBNa29Bd5k53O6RzUtGvyB5/AR6gp54gjB6ltRLucTdHvnlmRg509o212WSMj20b0K9rHSplfOhfUcKQIdK3IfyerBhSl+WlBNr2uFNwNy36669JIAD6jDAdbBg2lv3YnsCk436KbzXHcvX29EQze+Rosf7iTA26CY3fsX66fSEQGySUZDWPAOCRAhQ2hA7Q2IyPTCrRc21mf2cHaNUAxhy4Yx4e6xTBdnBvl5BkUhmzasZhHeVJxOs1CxwdPHhqZnlgiQBALTaqhp4CQ6oCV5SA/GR7IRN5zCuiksmP04RHNjJAJMy5Duz1tCIREDg67MMIAfARtlAckjd/qOo+fTtcZpw2zFD6tSxiZsSA7iLhN05uF3D4T2+pMmFPBthAbcWFNXB1fPrl3rMPDwyIwslmBREJomzKCQAdhAH3o84SqiECEHJAgMrmPsMh0Z4E/JPWqSp6ZqXFAexwWuxdrXcAnq7BjB3iUN1BlzZlNFXrTwUgyRM0KzBIwhxojLHOAk2EcZheatH2ANV0b/xzM8OEc0bZjwUp523WzJqIHjCdLKyGGUJB/g5nAVnnF7adqEYmyS7nJw2qBDT5j1TABbUtOW2uLQrz7tKVTjG2c6Qeg1XCagAcS5BrzhqcGXNRC7NpAoPfhKyxDHcXK1KnK3da/PaUIB34Jqk9wOE6JB1T1tbR2TgQeVnCqDRLnbZEjfE3eGzQlObnyg//V4whsSunRHGBJ9NHOGkVNwGV+nhslz0zByBnydM2mY4L7RJAMPbRBPoDGOO95UtKSCBvu+ivAIGjENTS2k5gjjLIwhzwg5gwgJpZCGNcJybWE3cC1B08YXUv9woyWjBo4nSCuj8HqDKfiInEft5U4juOUJwB4enpsGdNxkwO4OidjeDcWBSSI03nfBbOQMYoe5xE0TjwOADHDE0HAKDcKa0wSFHWYPGDwwgfMpcg9imlDAt6C6bcKioA2ePvZ+reNO7PwpgKkd8YTXpm7JgeuQ9nWI5QmYxULHjSHuTpAVI6fBXS1pyoSCHzX7OjU3KFjiFCUSOvMo6U6QvZ4CZxT61kAav66dpooapuHKPTJ9ipd1iKJppXjijdyj47sy1lV1b5nJxn2D0LcvaNq4MUeO+MKLyI8unZFg0iWLXt+d57A/Zl7au03jfu2e904ybeq3wMEnAKFhwKwI8x8SlQNUIwrxPV6mpEK7fnzjppFUIIvcq7TXfWmCCrOEilMPR685TRpoIg6TBgYwLh78YWfcg9m5O8/oS5pQ/DA+k2C6CGARgm+HAbkHpB7hhTrsrw85ybYOWYZBCxikI8XXoIYjA2KUuW5v5jc52J88nsAJAO1HBHuNJdMAyWs6jPJUG2nPRWcPwLEME6DhATSwO/JilX7JgwcXK3jK5q+ImU+g+LXhiSZxYGg5Ba1usRCkE47BbAUPhQAmPEtl84TcOw4sWWRreSGkdzfnOeyv87TwhNuJk64Nuq0mHKK4eKsQtI8jzeotN9GvaJp4Xb/70A4/hCM84c9Hj1QYwLs2GZ5ocq/PaeLhh+/3ndBcjW0dlyc0WI1H7WXkDHeKBIvhfjrnmifoaimawOJFHiAGuh5K4UgPICcow7cewNcwlsHC8S0s4s6XcZmmitwHdG7/iBcu0DlKRd6wy30iR72iByhlaTaiTwP2Py9t8LoznR6xgUWrN/gbQs9khEi6rZ7dFuuwV6k71HUbjZ1TMx0WThvSXXoX83PEpLd3Xy04RPcDDUSGkCQs7jiAApIeeGlCl5IQT5BZo5tZrk2aj3ToSleM0XqIi5T9NLRpdtAD4rC7mB5oe7D4cd90cANFewM3Gug2mAi4UeyFk2wEWIeZ8wyMab/nGwHQNwiwkjn0gUzruANuxuCgH3rzCewpPC7OafQFm0F3n3P/9kHh4N4Vdw4PbihPpWfc4Yc7hwOCVTNPoBHNQb93C8iP02mWOxRy5/DpxNXA3jV3+OHO4YCavoUnAqonNNsuAtyhkDuH20U9PNe3CHCHH+4cDqhpQ54IKLAdmeUOhdw53FEzhIV6FQHu8MOdwwG1ZMgTAQW2I7PcoZA7hztqhrBQryLAHX64cziglgx5IqDAdmQ2OBGu4Cx3dGNhoTAC7SIQHCyDs9zuPk7duZAn+tnkEd7+XnvttX7GK6yb8wjwhvdICHiMuJAn+pl5kUjks8/e4ui/cBreT7jwX3cIeE7bsIUn4MdEBuycccIbQlvW0F8AndDYsF4eps2wtuzR7ov8UHHof7cUAv5owBiY0s08gX80eGK8wsbL5ZxRJvskD8z9DpYjYdoMVnv0yRuUKUbZ28qiT34EX20I+OBjHEgNDE+4MwBBmSB7Ix+/RtjlGLbVZbY6OL6x4b2STZtP/vTX3L0JfvePmlai3vtd95vxP/06+uqPPuee+LWv1Xu6bBWuOwUARtj4spzTjCWDbs4fQC0DYZIFfAuqKZJb4F3/3LgL+Kn3ertOGwIe48bjCdjG0v0j26qcBFqwMyWXO62f5KaPeq2XNpAJOAe+/rVf9/f+T6aEX//cJ5Aef/Q5VOa93xVcwngyJbSQShPHdPdjmDZHbeKOym8aWtOG/B1dxl8hD/AtqKZAbYH317/268LnngCLfPKnv0aGSpRUgj0IAY9B5vFEIKAL5xMHhtWXNqTHb0oG9uN7vyt87glLJC5z0BwL+iBMmwPb82Rf0h3lTmZmkK+mgG9BNe3uW+HNgLz+uXF3zETLB3sQAh7DyeMJPJcgm1wqX/qn3gQDP66g+zu6MhXeFqdEEwJvGM7C3eUJZhtesjk2bCTVvB2suxkk3VjRV69beJCz4Mi+tU2bz/yzBMQNbjKg7NLxrAJRAptUwSYMZqBTnDZk0+JkmeyR7O7aizfxhexAEHW3kiWruJBWLnTZ8jQj9tt51J3Tk11dobz71JBYdjcP9n8kudPrfVU7hD4FfAuq8YKqN2n24P0DlhsYzujJAtQpBryvST2eAPFFrNPr9eCoqE8age6WrBjf0miGwAHZZp1kEbrW5Yk2EoyUJ6juKZxBSQhzcLyxtqA98ilo+lwfgg80bdjhVcgTA9iyRBSoDHq6MBL60pcm6PBIKyPFbJRBRJoCj6IIcyi5JiFemhFteILKoFIpNCxHgXgCnvyh+OAL6ceyJrSk5ODFkQI+5InBa5yDPPJ4QsmZaCiEALcJ15AhEoEyM1FwB03IsjvkQeMagDJTzO36kU4yM6pCCdbERlQQyquX3aDfS7+D7oa372jahDwx6E0HoyXYch+GRCzC3fkxmh8QVkAdOskaBtjoHjGq0dwCenymGDVLU8lTM2TmE26k3AvRBAIRFRLaw1+SWcjABZUCPuSJgWubAx3yeAITA0CcLhb59Ee9TPBKItMElATKFO44Q3yLUe7UGwupYhVV4h6bOTBZV0BJ2Js+s8xELuH+X5o27BzCxxn+Z3cou9i1pnAa3lMMuFBnEd6yjoqBirpv8j6Im1DYVXf0AwVaeYKI9jBGIBWMTV/24XkG/nGSuxpMBFlxHSQlexqcTiqjgGdBznLGZ5+1wpsBefh8opMoB1DmQJ6YwEureORCZ8rgBdtru6CkycBmkW8xyi/BCC9Ewc8s3JvypCLhpJnTtKRCJfaaagwgDv0xSdPms/B9p/60wNFq3Z8nvGkBTo1yzjAB/Mg+TQ34ROcTeAzkXdjwUgDlVxLmLqhGw8h9QETjXYepfXSgaUkQ0HOr82YhR7u7HpT2AB++79SDcHevCoYnyI9CWx5TU7bwxPza84T7Wq1XDGbodD7RpBBJv3JvBuYT9IEHLFJBgVMzn0DzBjd++MUnZujU8qZ5ywvmPXmm99lnb53ux3pkNiwwCGfXndz2g/6aLAchcLfnCZotFOT+FMDPIcgaFFkEdrOF2icH3nIx81Sje/1Elyx5PPHZW02oZmYYLfAOfz/Rpfgf2wzDE8e2EV543AiwaRP0K61dsX+6eeK4zRxeRyIQAp5EgrN/Q57oZ4OFadPP6Id19zwCIeB7HvLuVBjyRHfieDwrYdocL27hVZxGIAQ8pw0X8kQ/Gy5Mm35GP6y75xEIAd/zkHenwpAnuhPH41kJ0+Z4cQuv4jQCIeA5bbiQJ/rZcK+99lpweo0BWe5nvMK6OY9ACHhOGzDkiX42XCgD2c/oh3X3PAIBjV0CNdvzIA1ihSFP9LNVwml4P6Mf1t3zCHD3XjV3DgfUpKeRJ9ytDtxdPAMKbEdmQ57oKExhoS5EwPuRIP41axdMHt0Ed90udw4fvU06uiJgnqBbF3TkTE8Kwe4IZSNX9jZq7km1bSsJeaJtWMKTXY9AOent6tF1450b5K7b5c7hztviSCUZnkA7BLRsh9lszR2MM5vJNJdgP3eFJ5BjsJtIFwRZYZdDbQnLspIN/VmHe3vM8gTfuqd40xfYasK3y29vwxlwbfge+zANRZsAwjYfikL3Q2tzr7gY7ALCbquDClILdI+QNtfDqeZ27PjCfew1nWa7XdKTuLv1MCXp1Kf/3MY6zHh46g4ZnsAQATjuCya0mQzZl6aThDk5T3he4Y0zu9BCINzdJpe6YPmoJjye4H4fwAHK7aO2QmflyxoGPN2sqXVj/M4MHbUU7U8h8fCmT/uYoCX3WVmCTh/teb7P9XDa147U4KFVH2CR/crrdr3oNQ8syknCHDTUrIneHnsO97beQauN4YlBcy1gf1rGXAHX1868xxOMhh2zIRpI1LEfw33F20WxV+d88wlCG72qvCv19B3ztNtldz73e8VsoDsAc1PqcFfiz68Rjye8ucKE8UGO2dMbs7rH/+hml7CYHZqWumMcb1zgDUPwV2ROQPRb0IzE04+EaTL8ofEaHJMDX3mymyzZIBPcIAijs2Mwg0dMrE1Q1MALZcwIxXdtyy30pkUpT7BkwGpRfIa21cQi8oQzBlD3lMYfz0RhTOoOadlN5nsT057U4okw4uoIwulc3Ac/TyEYYdtdR4VFFReE5HKALjp2D+gMBuUHMd4mvG51UMxdq8FpYkAie6s3B2Ge5ghefUJVtzVykgDTbpd4AsZYzvCvW7KccZJqj38tdfj4JobiSo8nFGZKS3e3h3tswxNYIgJ0Uo2cCYWhnMsTTKtD96HkHnkTdmAgzdjEj5GxfiRwEuUDrEjB6kcyeIL00JYarG+t36I0a1ZL9YQk2/BEm1voWcsOB094nSYOL6OjAM2BO7uexbQHFW0abLJQ5LvyQWiYxUAadf1ecsGzMQAkGmkhAJOpCR6KwVItYNINHRNA6LXRfvsGFW5hvnXvGxtxPUR2mBEeyZc2mPdyhPLEPkZOEmDa7RJPwBjTY3jdCKol5ImTBLub13o84Q5Z0MMJNI4gw5A2PIFnAFht0R3+02wxcwYdxfgQgDENw6W2+pF4bIVGpsx8opwzDJhteE8UWN88tHkE4MMWLuBd4hUjQ7m2mqzdjPBBtoaDJ7w7dMOL1rjpVHLYeMIEiWzvntERmiL4JgHotItPdwLhwVgA+TkP0q4xnCBNpjYNIwciLswLJm3DixIHYo6Ga0DVhJ8YLiH54mUZTVs05yZPL0iqtjXSdOtH+hjyxJHCNTiFPZ4An9CcF60YML0t5QkYzlOMklUmF4XoPH7OtqQpEwpe/2nDE+jW3fMMgr1FJDL8IV28pky4s2kG5e6cHXGbVsYP39whG+O5tzBFVFz8POFO5FtvoVftQ3mCXWvyrUHx9HyCYoPMQclyyj6PVXsV5e7W4664onskD5Y9nLeFNHbASy5v1EwgjUq410InzlBOWZtQIJ2YdVp3iu8LL5mmuNN69EYf1tRb8qZ0aHkKkVwL5tFYCuWTV1F7IycJJ+UJL2JekmLDbP6STuYkVZ7sWurwycxwf7WfJ+icl5V3JzzhyZTCGc0VrwbA+QVN0Qgddw0sGtgliP15wkMJSSHofdAsnp0BKFoSVqugTM4wvmV4M3HWcwJBzw2WJ6gyZZtb6FG7ejzB/ftOMMjwWgEjBIsSTsCIGK1M9iiqAVZDBjEUzBhaHsDc/td1gWAYffSS60CeoBAlpqAHx3MycgbxhAbLuegMCi8laWb5dwJJcNOrGsyaLZxk0/ZLeq7segv3qODVQrivFiMnCa/X7dJIkvVqajZ834mGYnAO/DxBhzzeTBk9GsOrpaS/Bu+hABmYuA/KvMksTRt6AJd4eCWTDzIcw+FAMEVG3CUwd+GLJhs5gDKUh9BjOjBIBq0e09A5ijdW8ooxypRw17gu7xZ600IeTwyD7inTChQevqleb4Laq1pwjqBZrIdzD+TgBkEscokmF/tYm3nI7CYIm3pNa3fUeLvweo+y97sK+bNf2j6C1V0349owE636ZNH1eMJ1hnQvvqcUtH9w/TlZnSe6mnX4RIY4v9jPE5zfDHfuszzRFV3SoI2EacMdxgbKYe7ww53DATV3yBMBBbYjsyFPdBSmsNCwRIC7bpc7hwNCSsgTAQW2I7MhT3QUprDQsESAu26XO4cDQkrIEwEFtiOzIU90FKaw0LBEgLtulzuHA0JKyBMBBbYjsyFPdBSmsNCwRIC7bpc7hwNCSsgTAQW2I7MhT3QUprDQsESAu26XO4cDQkrIEwEFtiOzoVxwR2EKCw1LBAIVKA3I+LDE/kT34fGEIDTC/8IIhBEIIxBGIIxAawQwzwgnopvw4jACx4rAu+++G9Aw8ACz77777qHO9sWxA3z+4he/2Inbh95XWCCMwEkiEPLESaIXXnvMCHzxi1+0e/7XyaJzXxw7OBKduH3MZggvCyPQWQT+fzaCrjBq2ocmAAAAAElFTkSuQmCC;" vertex="1" parent="WIyWlLk6GJQsqaUBKTNV-1">
          <mxGeometry x="670.74" y="-1795" width="628.52" height="510" as="geometry" />
        </mxCell>
      </root>
    </mxGraphModel>
  </diagram>
</mxfile>
